<svg xmlns="http://www.w3.org/2000/svg" width="151" height="32" viewBox="0 0 151 32" fill="none"><g clip-path="url(#clip0_19362_5706)"><path d="M59.7892 16.7621L57.1961 9.86008C57.1721 9.79789 57.1299 9.74441 57.0749 9.7067C57.02 9.66898 56.9549 9.64879 56.8882 9.64879C56.8216 9.64879 56.7565 9.66898 56.7015 9.7067C56.6466 9.74441 56.6044 9.79789 56.5804 9.86008L53.9873 16.7632C53.9693 16.8122 53.9635 16.8649 53.9705 16.9165C53.9776 16.9683 53.9971 17.0175 54.0274 17.0598C54.0578 17.1023 54.098 17.1366 54.1447 17.16C54.1914 17.1833 54.243 17.1948 54.2951 17.1936H59.5034C59.581 17.1945 59.6559 17.1659 59.7133 17.1137C59.7705 17.0615 59.806 16.9894 59.8124 16.9122C59.8172 16.8614 59.8093 16.8102 59.7892 16.7632V16.7621ZM60.9975 20.6352H52.779C52.712 20.6357 52.6466 20.6565 52.5916 20.6949C52.5367 20.7333 52.4946 20.7876 52.4711 20.8504L50.8446 25.1561C50.8212 25.2187 50.7794 25.2728 50.7247 25.3112C50.67 25.3497 50.6049 25.3706 50.5379 25.3712H46.9748C46.9204 25.372 46.8667 25.3592 46.8185 25.334C46.7703 25.3088 46.7291 25.272 46.6987 25.2269C46.6682 25.1818 46.6494 25.1298 46.6441 25.0756C46.6388 25.0214 46.647 24.9668 46.6681 24.9166L54.8645 4.79746C54.889 4.73658 54.932 4.68494 54.9874 4.64988C55.0429 4.61483 55.108 4.59812 55.1735 4.60215H58.5787C58.6434 4.60254 58.7066 4.62106 58.7612 4.65559C58.8158 4.69011 58.8596 4.73926 58.8877 4.79746L67.083 24.9166C67.1041 24.9669 67.1123 25.0218 67.1069 25.0761C67.1015 25.1303 67.0827 25.1824 67.0522 25.2277C67.0216 25.2728 66.9804 25.3098 66.9319 25.335C66.8836 25.3603 66.8297 25.3731 66.7751 25.3723H63.2176C63.1504 25.3718 63.085 25.3508 63.03 25.3122C62.9751 25.2736 62.9331 25.2192 62.9097 25.1561L61.2833 20.8504C61.2678 20.787 61.231 20.7308 61.1789 20.6914C61.1268 20.652 61.0628 20.6318 60.9975 20.6341V20.6352ZM68.7768 11.6554H71.8322C71.9185 11.657 72.0008 11.6918 72.0622 11.7524C72.1236 11.8128 72.1594 11.8947 72.1622 11.9809V25.049C72.1594 25.1351 72.1235 25.2166 72.0621 25.2769C72.0006 25.337 71.9183 25.3712 71.8322 25.3723H68.7779C68.6917 25.3716 68.6092 25.3375 68.5475 25.2772C68.4858 25.217 68.4497 25.1352 68.4468 25.049V11.9809C68.4464 11.9375 68.4547 11.8946 68.4712 11.8545C68.4878 11.8145 68.5123 11.7782 68.5432 11.7477C68.5741 11.7174 68.6108 11.6935 68.6511 11.6777C68.6915 11.6618 68.7346 11.6542 68.7779 11.6554H68.7768ZM83.2827 14.8355C83.2802 14.9219 83.2445 15.004 83.1831 15.0648C83.1217 15.1256 83.0393 15.1605 82.9528 15.1621H82.8645C81.3484 15.1621 80.2493 15.5064 79.5464 16.2214C78.8435 16.9365 78.4915 18.1039 78.4915 19.7458V25.0259C78.4888 25.1119 78.4531 25.1936 78.392 25.2542C78.3309 25.3146 78.2488 25.3495 78.1627 25.3514H75.1503C75.0643 25.3495 74.9822 25.3146 74.9211 25.2542C74.86 25.1936 74.8243 25.1119 74.8215 25.0259V11.9809C74.8243 11.8947 74.8601 11.8128 74.9215 11.7524C74.9829 11.6918 75.0652 11.657 75.1514 11.6554H78.1395C78.226 11.6568 78.3086 11.6913 78.3703 11.7519C78.4318 11.8125 78.4678 11.8945 78.4706 11.9809V14.5552H78.5357C78.8409 13.5774 79.4391 12.7169 80.2493 12.0901C81.0963 11.4927 82.1156 11.1888 83.1514 11.225H83.3048V14.8366H83.2827V14.8355ZM91.6115 14.7075C91.5259 14.7089 91.444 14.743 91.3829 14.8031C91.3217 14.863 91.2858 14.9441 91.2827 15.0297V20.4609C91.2419 20.8857 91.3588 21.3094 91.6115 21.6526C91.8322 21.8887 92.2052 21.9969 92.7547 21.9969H93.0626C93.1486 21.9989 93.2306 22.0336 93.2919 22.0942C93.353 22.1548 93.3886 22.2364 93.3914 22.3224V25.0479C93.3886 25.1338 93.3529 25.2152 93.2916 25.2753C93.2305 25.3356 93.1484 25.3699 93.0626 25.3712H91.7671C90.4253 25.3712 89.3936 25.0247 88.6686 24.3538C87.9426 23.6631 87.5917 22.6667 87.5917 21.305V15.0297C87.5886 14.9438 87.5525 14.8623 87.4908 14.8023C87.4291 14.7423 87.3467 14.7083 87.2606 14.7075H85.3495C85.2633 14.7056 85.1811 14.6706 85.1199 14.6098C85.0587 14.549 85.0232 14.4671 85.0206 14.3809V11.9809C85.0232 11.8948 85.0588 11.8129 85.1199 11.7524C85.1812 11.6918 85.2634 11.657 85.3495 11.6554H87.2617C87.3478 11.6543 87.4301 11.6201 87.4916 11.5599C87.553 11.4997 87.5889 11.4181 87.5917 11.3321V6.48463C87.5945 6.39865 87.6304 6.31706 87.6919 6.25685C87.7533 6.19662 87.8356 6.16241 87.9216 6.16132H90.9759C91.062 6.16241 91.1443 6.19662 91.2058 6.25685C91.2673 6.31706 91.3031 6.39865 91.3059 6.48463V11.3321C91.3087 11.4181 91.3446 11.4997 91.4061 11.5599C91.4675 11.6201 91.5498 11.6543 91.6358 11.6554H93.8328C93.9191 11.657 94.0014 11.6918 94.0627 11.7524C94.1242 11.8128 94.1599 11.8947 94.1627 11.9809V14.3809C94.1602 14.4673 94.1245 14.5494 94.0631 14.6102C94.0017 14.671 93.9193 14.7059 93.8328 14.7075H91.6115ZM105.567 21.2841C105.918 20.9123 106.191 20.4735 106.368 19.9937C106.546 19.5139 106.624 19.0032 106.6 18.4923C106.619 17.982 106.538 17.4727 106.361 16.9937C106.184 16.5147 105.914 16.0753 105.567 15.7006C104.823 15.0195 103.851 14.6416 102.842 14.6416C101.833 14.6416 100.861 15.0195 100.117 15.7006C99.7656 16.0724 99.4929 16.5113 99.3155 16.991C99.138 17.4708 99.0593 17.9814 99.0841 18.4923C99.0645 19.0027 99.1457 19.5119 99.3229 19.9909C99.5001 20.4699 99.7699 20.9093 100.117 21.2841C100.474 21.6391 100.9 21.9166 101.369 22.0988C101.838 22.2811 102.34 22.3644 102.842 22.3434C103.346 22.3714 103.85 22.2914 104.32 22.1088C104.79 21.926 105.215 21.6449 105.568 21.2841H105.567ZM98.5335 24.9409C97.5015 24.3558 96.6619 23.4832 96.1169 22.4294C95.538 21.1975 95.2378 19.853 95.2378 18.4918C95.2378 17.1306 95.538 15.7861 96.1169 14.5541C96.6685 13.5054 97.5065 12.6349 98.5335 12.0438C99.5655 11.463 100.733 11.1647 101.917 11.1787C102.885 11.155 103.844 11.371 104.708 11.8076C105.472 12.2123 106.111 12.8187 106.554 13.561H106.621V11.9566C106.624 11.8709 106.66 11.7897 106.721 11.7295C106.782 11.6694 106.864 11.635 106.949 11.6333H109.961C110.047 11.6347 110.129 11.6689 110.19 11.7292C110.252 11.7893 110.288 11.8708 110.291 11.9566V25.0236C110.288 25.1103 110.252 25.1925 110.191 25.2534C110.129 25.3142 110.046 25.3489 109.96 25.3503H106.952C106.865 25.3486 106.783 25.3137 106.721 25.2529C106.66 25.1921 106.624 25.11 106.622 25.0236V23.4236H106.556C106.112 24.1667 105.473 24.7736 104.708 25.1781C103.843 25.6131 102.885 25.8287 101.917 25.806C100.733 25.8201 99.5655 25.5217 98.5335 24.9409ZM122.84 21.2841C123.191 20.9123 123.464 20.4734 123.641 19.9936C123.819 19.5139 123.897 19.0032 123.873 18.4923C123.893 17.982 123.811 17.4727 123.635 16.9937C123.457 16.5147 123.187 16.0753 122.84 15.7006C122.097 15.0191 121.123 14.6411 120.115 14.6411C119.106 14.6411 118.133 15.0191 117.389 15.7006C117.038 16.0726 116.766 16.5115 116.588 16.9912C116.412 17.471 116.332 17.9815 116.358 18.4923C116.338 19.0027 116.419 19.5119 116.596 19.9909C116.774 20.4699 117.043 20.9093 117.39 21.2841C117.747 21.6391 118.173 21.9166 118.643 22.0988C119.112 22.2811 119.613 22.3644 120.116 22.3434C120.619 22.3713 121.123 22.2912 121.593 22.1086C122.063 21.9258 122.488 21.6448 122.841 21.2841H122.84ZM118.27 25.177C117.505 24.7723 116.866 24.1654 116.423 23.4225H116.356V25.0247C116.353 25.1108 116.318 25.1925 116.257 25.253C116.195 25.3135 116.114 25.3484 116.028 25.3503H112.972C112.886 25.3484 112.804 25.3135 112.743 25.253C112.682 25.1925 112.646 25.1108 112.643 25.0247V4.90449C112.646 4.81859 112.682 4.73704 112.743 4.67667C112.804 4.6163 112.886 4.58173 112.972 4.58008H116.028C116.114 4.58144 116.195 4.61574 116.257 4.6759C116.319 4.73606 116.354 4.8175 116.358 4.90339V13.5809H116.424C116.867 12.8389 117.506 12.2322 118.27 11.8264C119.135 11.3916 120.093 11.176 121.06 11.1985C122.244 11.1843 123.412 11.4839 124.444 12.067C125.475 12.6509 126.315 13.5224 126.86 14.5751C127.478 15.7932 127.78 17.1469 127.741 18.5122C127.768 19.8766 127.467 21.2274 126.861 22.4504C126.31 23.4998 125.471 24.3704 124.445 24.9607C123.412 25.5416 122.244 25.8401 121.06 25.8258C120.092 25.8338 119.134 25.6107 118.269 25.1748L118.27 25.177ZM132.884 25.3525H129.831C129.745 25.3511 129.662 25.3164 129.6 25.2555C129.538 25.1946 129.503 25.1124 129.501 25.0259V4.9056C129.504 4.81932 129.539 4.73745 129.601 4.67703C129.663 4.6166 129.746 4.58227 129.832 4.58118H132.885C132.971 4.58309 133.053 4.6176 133.113 4.67767C133.174 4.73775 133.211 4.81888 133.214 4.90449V25.0247C133.215 25.0882 133.197 25.1504 133.163 25.2037C133.129 25.257 133.079 25.2988 133.021 25.3238C132.978 25.3424 132.931 25.3515 132.885 25.3503V25.3525H132.884ZM140.071 14.8156C139.539 15.2401 139.174 15.8377 139.038 16.5039C139.028 16.552 139.03 16.6017 139.042 16.6491C139.054 16.6966 139.078 16.7407 139.11 16.7781C139.14 16.8155 139.18 16.8453 139.225 16.8653C139.27 16.8853 139.319 16.8949 139.368 16.8934H145.17C145.216 16.8937 145.262 16.8838 145.305 16.8649C145.348 16.8459 145.386 16.8181 145.417 16.7832C145.449 16.7484 145.472 16.7074 145.486 16.6629C145.501 16.6183 145.505 16.5713 145.5 16.5249C145.411 15.8782 145.09 15.2857 144.597 14.8587C143.961 14.3533 143.167 14.0918 142.356 14.1216C141.539 14.0995 140.737 14.3423 140.071 14.8145L140.07 14.8156H140.071ZM147.499 13.1285C148.685 14.403 149.279 16.2049 149.278 18.5354V18.9271C149.275 19.0131 149.239 19.0945 149.177 19.1546C149.116 19.2148 149.034 19.2491 148.948 19.2504H139.259C139.21 19.2514 139.163 19.2625 139.119 19.2832C139.075 19.3038 139.037 19.3335 139.006 19.3701C138.974 19.4069 138.951 19.4498 138.937 19.4961C138.924 19.5425 138.921 19.591 138.927 19.6388C139.053 20.4492 139.467 21.187 140.094 21.7166C140.863 22.3183 141.822 22.6249 142.797 22.5806C144.254 22.5603 145.647 21.9793 146.687 20.9585C146.721 20.9272 146.762 20.9038 146.806 20.89C146.851 20.8762 146.898 20.8724 146.944 20.8787C146.99 20.8849 147.035 20.9013 147.073 20.9265C147.113 20.9518 147.146 20.9854 147.17 21.0247L148.642 23.1224C148.684 23.1894 148.703 23.2683 148.694 23.3468C148.686 23.4253 148.652 23.499 148.598 23.5561C147.868 24.1788 147.063 24.7095 146.204 25.1362C145.132 25.6139 143.969 25.8501 142.796 25.8281C141.422 25.8593 140.062 25.5463 138.84 24.9177C137.739 24.3392 136.83 23.4523 136.225 22.3654C135.585 21.2 135.26 19.888 135.281 18.5585C135.256 17.2269 135.566 15.9105 136.182 14.7296C136.759 13.6463 137.636 12.7526 138.709 12.1563C139.874 11.5209 141.184 11.1999 142.511 11.225C144.664 11.1996 146.313 11.8496 147.499 13.1274V13.1285ZM72.5572 6.81235C72.5635 7.25571 72.4382 7.69097 72.1971 8.06312C71.956 8.43527 71.6101 8.72759 71.2029 8.90312C70.7958 9.07866 70.3457 9.12954 69.9096 9.04932C69.4735 8.9691 69.071 8.76139 68.7529 8.45243C68.4349 8.14349 68.2156 7.74717 68.1228 7.31361C68.0299 6.88004 68.0677 6.42867 68.2313 6.01658C68.395 5.60448 68.6771 5.25016 69.0422 4.9984C69.4072 4.74663 69.8386 4.60875 70.2819 4.60215H70.2929C70.8845 4.59941 71.4533 4.82925 71.8769 5.24208C72.3004 5.65492 72.5448 6.21769 72.5572 6.80904V6.81125V6.81235Z" fill="#181D26"></path><path d="M17.5113 0.392523L3.64776 6.12902C2.87702 6.44829 2.88479 7.54334 3.66079 7.85084L17.5822 13.3715C18.8054 13.8566 20.1676 13.8566 21.3907 13.3715L35.3123 7.85084C36.0879 7.54334 36.0961 6.44829 35.325 6.12923L21.4617 0.392523C20.1969 -0.130841 18.7761 -0.130841 17.5113 0.392523Z" fill="#FCB400"></path><path d="M20.7207 16.3863V30.1779C20.7207 30.8336 21.3821 31.283 21.9919 31.0412L37.5046 25.0199C37.6776 24.9514 37.826 24.8325 37.9305 24.6784C38.0351 24.5245 38.091 24.3427 38.091 24.1566V10.3653C38.091 9.70928 37.4296 9.26012 36.8198 9.50183L21.3071 15.5231C21.1341 15.5918 20.9858 15.7107 20.8811 15.8647C20.7766 16.0187 20.7207 16.2004 20.7207 16.3866" fill="#18BFFF"></path><path d="M17.1002 17.0983L12.4964 19.3211L12.029 19.5471L2.31054 24.2037C1.6947 24.5008 0.908203 24.052 0.908203 23.3676V10.4233C0.908203 10.1757 1.03515 9.96195 1.2054 9.80117C1.27524 9.73162 1.35448 9.67219 1.4408 9.62462C1.67284 9.48527 2.00409 9.44807 2.28573 9.55946L17.0229 15.3987C17.772 15.6959 17.8308 16.7456 17.1002 17.0985" fill="#F82B60"></path><path d="M17.0998 17.0983L12.496 19.3211L1.20508 9.80096C1.27494 9.73149 1.35418 9.67212 1.44049 9.62462C1.67252 9.48527 2.00378 9.44807 2.28542 9.55946L17.0226 15.3987C17.7716 15.6959 17.8304 16.7456 17.0998 17.0985" fill="black" fill-opacity="0.25"></path></g><defs><clipPath id="clip0_19362_5706"><rect width="150.069" height="32" fill="white" transform="translate(0.0449219)"></rect></clipPath></defs></svg>