<svg xmlns="http://www.w3.org/2000/svg" width="60" height="60" viewBox="0 0 60 60" fill="none"><path d="M48.2007 35.0766L31.3257 51.9516C31.1515 52.1259 30.9447 52.2642 30.7171 52.3586C30.4895 52.4529 30.2455 52.5015 29.9991 52.5015C29.7527 52.5015 29.5087 52.4529 29.2811 52.3586C29.0535 52.2642 28.8467 52.1259 28.6725 51.9516L11.7975 35.0766C11.4457 34.7247 11.248 34.2476 11.248 33.75C11.248 33.2524 11.4457 32.7753 11.7975 32.4234C12.1494 32.0716 12.6265 31.874 13.1241 31.874C13.6216 31.874 14.0988 32.0716 14.4507 32.4234L28.1241 46.0992V9.375C28.1241 8.87772 28.3216 8.40081 28.6733 8.04918C29.0249 7.69754 29.5018 7.5 29.9991 7.5C30.4964 7.5 30.9733 7.69754 31.3249 8.04918C31.6765 8.40081 31.8741 8.87772 31.8741 9.375V46.0992L45.5475 32.4234C45.8994 32.0716 46.3765 31.874 46.8741 31.874C47.3716 31.874 47.8488 32.0716 48.2007 32.4234C48.5525 32.7753 48.7501 33.2524 48.7501 33.75C48.7501 34.2476 48.5525 34.7247 48.2007 35.0766Z" fill="white"></path></svg>