<svg xmlns="http://www.w3.org/2000/svg" width="25" height="24" viewBox="0 0 25 24" fill="none"><path d="M21.9492 9.00003H20.4492C20.4492 8.80112 20.3702 8.61036 20.2295 8.4697C20.0889 8.32905 19.8981 8.25003 19.6992 8.25003H12.9492C12.7503 8.25003 12.5595 8.32905 12.4189 8.4697C12.2782 8.61036 12.1992 8.80112 12.1992 9.00003H6.19922V4.87503C6.19922 4.57667 6.31775 4.29052 6.52872 4.07954C6.7397 3.86856 7.02585 3.75003 7.32422 3.75003C7.58789 3.74896 7.84415 3.83726 8.05118 4.00054C8.25822 4.16382 8.40381 4.39244 8.46422 4.6491C8.50542 4.84238 8.62124 5.01159 8.78651 5.11995C8.95177 5.22831 9.15313 5.26706 9.34681 5.22778C9.54049 5.1885 9.71084 5.07436 9.82083 4.91018C9.93083 4.74599 9.97157 4.54503 9.93422 4.35097C9.80688 3.75417 9.47784 3.21945 9.00248 2.8368C8.52711 2.45416 7.93445 2.24694 7.32422 2.25003C6.62803 2.25003 5.96035 2.5266 5.46806 3.01888C4.97578 3.51116 4.69922 4.17884 4.69922 4.87503V9.00003H2.44922C2.05139 9.00003 1.66986 9.15807 1.38856 9.43937C1.10725 9.72068 0.949219 10.1022 0.949219 10.5V13.5C0.950708 14.892 1.50431 16.2265 2.48855 17.2107C3.4728 18.1949 4.80729 18.7485 6.19922 18.75V20.25C6.19922 20.4489 6.27824 20.6397 6.41889 20.7804C6.55954 20.921 6.75031 21 6.94922 21C7.14813 21 7.3389 20.921 7.47955 20.7804C7.6202 20.6397 7.69922 20.4489 7.69922 20.25V18.75H16.6992V20.25C16.6992 20.4489 16.7782 20.6397 16.9189 20.7804C17.0595 20.921 17.2503 21 17.4492 21C17.6481 21 17.8389 20.921 17.9795 20.7804C18.1202 20.6397 18.1992 20.4489 18.1992 20.25V18.75C19.5911 18.7485 20.9256 18.1949 21.9099 17.2107C22.8941 16.2265 23.4477 14.892 23.4492 13.5V10.5C23.4492 10.1022 23.2912 9.72068 23.0099 9.43937C22.7286 9.15807 22.347 9.00003 21.9492 9.00003ZM18.9492 13.5H13.6992V9.75003H18.9492V13.5Z" fill="#103C3B"></path></svg>