<svg xmlns="http://www.w3.org/2000/svg" width="25" height="24" viewBox="0 0 25 24" fill="none"><path d="M19.8984 6.75H2.64844V4.5C2.64844 4.30109 2.56942 4.11032 2.42877 3.96967C2.28812 3.82902 2.09735 3.75 1.89844 3.75C1.69953 3.75 1.50876 3.82902 1.36811 3.96967C1.22746 4.11032 1.14844 4.30109 1.14844 4.5V19.5C1.14844 19.6989 1.22746 19.8897 1.36811 20.0303C1.50876 20.171 1.69953 20.25 1.89844 20.25C2.09735 20.25 2.28812 20.171 2.42877 20.0303C2.56942 19.8897 2.64844 19.6989 2.64844 19.5V16.5H22.1484V19.5C22.1484 19.6989 22.2275 19.8897 22.3681 20.0303C22.5088 20.171 22.6995 20.25 22.8984 20.25C23.0973 20.25 23.2881 20.171 23.4288 20.0303C23.5694 19.8897 23.6484 19.6989 23.6484 19.5V10.5C23.6484 9.50544 23.2533 8.55161 22.5501 7.84835C21.8468 7.14509 20.893 6.75 19.8984 6.75ZM2.64844 8.25H9.39844V15H2.64844V8.25Z" fill="#103C3B"></path></svg>