<svg xmlns="http://www.w3.org/2000/svg" width="60" height="60" viewBox="0 0 60 60" fill="none"><path d="M56.25 48.7505H52.5V22.5005C52.5 21.5059 52.1049 20.5521 51.4016 19.8488C50.6984 19.1456 49.7446 18.7505 48.75 18.7505H33.75V7.50048C33.7504 6.82141 33.5665 6.15497 33.2178 5.57228C32.869 4.98959 32.3686 4.51253 31.7699 4.19202C31.1713 3.87151 30.4968 3.71958 29.8185 3.75244C29.1403 3.7853 28.4836 4.00173 27.9188 4.37861L9.16875 16.8755C8.65439 17.2187 8.23287 17.6837 7.94172 18.2292C7.65057 18.7747 7.49883 19.3837 7.5 20.002V48.7505H3.75C3.25272 48.7505 2.77581 48.948 2.42417 49.2997C2.07254 49.6513 1.875 50.1282 1.875 50.6255C1.875 51.1228 2.07254 51.5997 2.42417 51.9513C2.77581 52.3029 3.25272 52.5005 3.75 52.5005H56.25C56.7473 52.5005 57.2242 52.3029 57.5758 51.9513C57.9275 51.5997 58.125 51.1228 58.125 50.6255C58.125 50.1282 57.9275 49.6513 57.5758 49.2997C57.2242 48.948 56.7473 48.7505 56.25 48.7505ZM48.75 22.5005V48.7505H33.75V22.5005H48.75ZM11.25 20.002L30 7.50048V48.7505H11.25V20.002ZM26.25 26.2505V30.0005C26.25 30.4978 26.0525 30.9747 25.7008 31.3263C25.3492 31.6779 24.8723 31.8755 24.375 31.8755C23.8777 31.8755 23.4008 31.6779 23.0492 31.3263C22.6975 30.9747 22.5 30.4978 22.5 30.0005V26.2505C22.5 25.7532 22.6975 25.2763 23.0492 24.9247C23.4008 24.573 23.8777 24.3755 24.375 24.3755C24.8723 24.3755 25.3492 24.573 25.7008 24.9247C26.0525 25.2763 26.25 25.7532 26.25 26.2505ZM18.75 26.2505V30.0005C18.75 30.4978 18.5525 30.9747 18.2008 31.3263C17.8492 31.6779 17.3723 31.8755 16.875 31.8755C16.3777 31.8755 15.9008 31.6779 15.5492 31.3263C15.1975 30.9747 15 30.4978 15 30.0005V26.2505C15 25.7532 15.1975 25.2763 15.5492 24.9247C15.9008 24.573 16.3777 24.3755 16.875 24.3755C17.3723 24.3755 17.8492 24.573 18.2008 24.9247C18.5525 25.2763 18.75 25.7532 18.75 26.2505ZM18.75 39.3755V43.1255C18.75 43.6228 18.5525 44.0997 18.2008 44.4513C17.8492 44.8029 17.3723 45.0005 16.875 45.0005C16.3777 45.0005 15.9008 44.8029 15.5492 44.4513C15.1975 44.0997 15 43.6228 15 43.1255V39.3755C15 38.8782 15.1975 38.4013 15.5492 38.0497C15.9008 37.698 16.3777 37.5005 16.875 37.5005C17.3723 37.5005 17.8492 37.698 18.2008 38.0497C18.5525 38.4013 18.75 38.8782 18.75 39.3755ZM26.25 39.3755V43.1255C26.25 43.6228 26.0525 44.0997 25.7008 44.4513C25.3492 44.8029 24.8723 45.0005 24.375 45.0005C23.8777 45.0005 23.4008 44.8029 23.0492 44.4513C22.6975 44.0997 22.5 43.6228 22.5 43.1255V39.3755C22.5 38.8782 22.6975 38.4013 23.0492 38.0497C23.4008 37.698 23.8777 37.5005 24.375 37.5005C24.8723 37.5005 25.3492 37.698 25.7008 38.0497C26.0525 38.4013 26.25 38.8782 26.25 39.3755Z" fill="#103C3B"></path></svg>