<svg xmlns="http://www.w3.org/2000/svg" width="133" height="32" viewBox="0 0 133 32" fill="none"><g clip-path="url(#clip0_19362_5731)"><path d="M0.978516 23.5307L5.68173 19.9277C8.18049 23.189 10.8353 24.6922 13.7904 24.6922C16.7296 24.6922 19.3094 23.2067 21.6956 19.9712L26.4659 23.4872C23.023 28.1529 18.7444 30.6181 13.7904 30.6181C8.8521 30.6181 4.5321 28.1687 0.978516 23.5307Z" fill="url(#paint0_linear_19362_5731)"></path><path d="M13.7762 7.86927L5.40479 15.0831L1.53516 10.5952L13.7939 0.03125L25.9559 10.6031L22.0685 15.0752L13.7762 7.86927Z" fill="url(#paint1_linear_19362_5731)"></path><path d="M44.5036 26.1678C41.6453 26.1678 39.2631 25.2413 37.3312 23.3885C35.3994 21.51 34.4473 19.1021 34.4473 16.1628C34.4473 13.1998 35.425 10.7643 37.3569 8.85811C39.3164 6.92626 41.6986 5.97416 44.5312 5.97416C48.0255 5.97416 51.1208 7.48132 52.9223 9.83786L49.7697 13.1465C48.2606 11.5307 46.6191 10.7109 44.8473 10.7109C43.3381 10.7109 42.0937 11.2127 41.0606 12.2458C40.0552 13.2788 39.5534 14.5766 39.5534 16.1371C39.5534 17.6463 40.0552 18.9164 41.0606 19.9495C42.0937 20.9549 43.3381 21.4566 44.8196 21.4566C46.7515 21.4566 48.4463 20.6092 49.8488 18.9421L53.1317 22.0927C52.231 23.2838 51.0142 24.2636 49.505 25.03C47.9959 25.7984 46.3287 26.1678 44.5016 26.1678H44.5036ZM58.6863 5.68181V25.8774H54.0285V5.68181H58.6863ZM63.1011 9.96823C61.5406 9.96823 60.4028 8.83045 60.4028 7.26996C60.4028 5.76082 61.5939 4.62305 63.1011 4.62305C64.6102 4.62305 65.7757 5.76082 65.7757 7.26996C65.7757 8.83045 64.6102 9.97021 63.1011 9.97021V9.96823ZM65.4576 11.266V25.8774H60.7722V11.266H65.4576ZM74.4255 26.1954C72.1223 26.1954 70.2695 25.4804 68.8157 24.0502C67.3855 22.6221 66.6705 20.7949 66.6705 18.545C66.6705 16.2951 67.3855 14.47 68.8413 13.0398C70.2971 11.6097 72.1757 10.8966 74.5046 10.8966C77.5485 10.8966 80.2231 12.3781 81.4655 15.1574L77.7342 17.1169C76.9934 15.8724 75.9604 15.2364 74.6112 15.2364C73.6315 15.2364 72.8374 15.5544 72.2013 16.1905C71.8995 16.5026 71.6625 16.8713 71.5035 17.2754C71.3445 17.6794 71.2668 18.1109 71.2749 18.545C71.2749 20.4769 72.6774 21.907 74.5579 21.907C75.907 21.907 77.1515 21.1663 77.6809 20.0285L81.4142 22.2507C80.1421 24.6863 77.5228 26.1954 74.4255 26.1954ZM97.6611 25.8774H92.1006L87.7846 20.0799L87.0971 20.7159V25.8774H82.4413V5.68181H87.0991V15.5011L91.4922 11.266H97.1831L90.9115 17.1426L97.6611 25.8774ZM97.9732 18.2803V6.31589H102.949V18.2013C102.949 20.3979 104.219 21.4566 106.046 21.4566C107.846 21.4566 109.116 20.3445 109.116 18.2013V6.31589H114.119V18.2803C114.119 24.0502 110.121 26.2211 106.046 26.2211C101.997 26.2211 97.9732 24.0502 97.9732 18.2803ZM125.177 10.8966C127.269 10.8966 128.964 11.6374 130.313 13.1188C131.662 14.5747 132.324 16.4018 132.324 18.545C132.324 20.6902 131.636 22.5154 130.287 24.0245C128.936 25.506 127.243 26.2487 125.205 26.2487C123.589 26.2487 122.187 25.7194 121.049 24.6606V31.8863H116.363V11.266H120.97V12.6171C122.108 11.4774 123.51 10.8966 125.177 10.8966ZM127.559 18.5984C127.559 16.6922 126.185 15.2364 124.278 15.2364C122.372 15.2364 120.97 16.6922 120.97 18.5984C120.97 19.5248 121.286 20.3189 121.896 20.9806C122.53 21.6423 123.324 21.9604 124.278 21.9604C125.23 21.9604 126.025 21.6423 126.633 20.9806C127.24 20.337 127.573 19.4828 127.561 18.5984H127.559Z" fill="#111111"></path></g><defs><linearGradient id="paint0_linear_19362_5731" x1="0.978516" y1="27.1983" x2="26.4659" y2="27.1983" gradientUnits="userSpaceOnUse"><stop stop-color="#8930FD"></stop><stop offset="1" stop-color="#49CCF9"></stop></linearGradient><linearGradient id="paint1_linear_19362_5731" x1="1.53516" y1="10.268" x2="25.9559" y2="10.268" gradientUnits="userSpaceOnUse"><stop stop-color="#FF02F0"></stop><stop offset="1" stop-color="#FFC800"></stop></linearGradient><clipPath id="clip0_19362_5731"><rect width="131.556" height="32" fill="white" transform="translate(0.900391)"></rect></clipPath></defs></svg>