<svg xmlns="http://www.w3.org/2000/svg" width="25" height="24" viewBox="0 0 25 24" fill="none"><path d="M8.85157 4.5V1.5C8.85157 1.30109 8.93058 1.11032 9.07124 0.96967C9.21189 0.829018 9.40265 0.75 9.60157 0.75C9.80048 0.75 9.99124 0.829018 10.1319 0.96967C10.2725 1.11032 10.3516 1.30109 10.3516 1.5V4.5C10.3516 4.69891 10.2725 4.88968 10.1319 5.03033C9.99124 5.17098 9.80048 5.25 9.60157 5.25C9.40265 5.25 9.21189 5.17098 9.07124 5.03033C8.93058 4.88968 8.85157 4.69891 8.85157 4.5ZM12.6016 5.25C12.8005 5.25 12.9912 5.17098 13.1319 5.03033C13.2725 4.88968 13.3516 4.69891 13.3516 4.5V1.5C13.3516 1.30109 13.2725 1.11032 13.1319 0.96967C12.9912 0.829018 12.8005 0.75 12.6016 0.75C12.4027 0.75 12.2119 0.829018 12.0712 0.96967C11.9306 1.11032 11.8516 1.30109 11.8516 1.5V4.5C11.8516 4.69891 11.9306 4.88968 12.0712 5.03033C12.2119 5.17098 12.4027 5.25 12.6016 5.25ZM15.6016 5.25C15.8005 5.25 15.9912 5.17098 16.1319 5.03033C16.2725 4.88968 16.3516 4.69891 16.3516 4.5V1.5C16.3516 1.30109 16.2725 1.11032 16.1319 0.96967C15.9912 0.829018 15.8005 0.75 15.6016 0.75C15.4027 0.75 15.2119 0.829018 15.0712 0.96967C14.9306 1.11032 14.8516 1.30109 14.8516 1.5V4.5C14.8516 4.69891 14.9306 4.88968 15.0712 5.03033C15.2119 5.17098 15.4027 5.25 15.6016 5.25ZM24.4516 8.55C24.3322 8.39087 24.1545 8.28567 23.9576 8.25754C23.7607 8.22941 23.5607 8.28065 23.4016 8.4L21.6016 9.75V8.25C21.6016 7.85218 21.4435 7.47064 21.1622 7.18934C20.8809 6.90804 20.4994 6.75 20.1016 6.75H5.10157C4.70374 6.75 4.32221 6.90804 4.04091 7.18934C3.7596 7.47064 3.60157 7.85218 3.60157 8.25V9.75L1.80157 8.4C1.64244 8.28065 1.44241 8.22941 1.2455 8.25754C1.04859 8.28567 0.870913 8.39087 0.751566 8.55C0.632218 8.70913 0.580973 8.90915 0.609103 9.10607C0.637234 9.30298 0.742436 9.48065 0.901566 9.6L3.60157 11.625V17.25C3.60157 18.0456 3.91764 18.8087 4.48025 19.3713C5.04285 19.9339 5.80592 20.25 6.60157 20.25H18.6016C19.3972 20.25 20.1603 19.9339 20.7229 19.3713C21.2855 18.8087 21.6016 18.0456 21.6016 17.25V11.625L24.3016 9.6C24.3804 9.5409 24.4467 9.46687 24.4969 9.38212C24.5471 9.29737 24.5801 9.20357 24.594 9.10607C24.608 9.00856 24.6025 8.90927 24.5781 8.81386C24.5537 8.71845 24.5107 8.62879 24.4516 8.55Z" fill="#103C3B"></path></svg>