<svg xmlns="http://www.w3.org/2000/svg" width="24" height="24" viewBox="0 0 24 24" fill="none"><path d="M23.25 11.25V15.75C23.25 16.1478 23.092 16.5294 22.8107 16.8107C22.5294 17.092 22.1478 17.25 21.75 17.25H21V18.75C21 18.9489 20.921 19.1397 20.7803 19.2803C20.6397 19.421 20.4489 19.5 20.25 19.5C20.0511 19.5 19.8603 19.421 19.7197 19.2803C19.579 19.1397 19.5 18.9489 19.5 18.75V17.25H4.5V18.75C4.5 18.9489 4.42098 19.1397 4.28033 19.2803C4.13968 19.421 3.94891 19.5 3.75 19.5C3.55109 19.5 3.36032 19.421 3.21967 19.2803C3.07902 19.1397 3 18.9489 3 18.75V17.25H2.25C1.85218 17.25 1.47064 17.092 1.18934 16.8107C0.908035 16.5294 0.75 16.1478 0.75 15.75V11.25C0.75 10.8522 0.908035 10.4706 1.18934 10.1893C1.47064 9.90804 1.85218 9.75 2.25 9.75H3C3.39782 9.75 3.77936 9.90804 4.06066 10.1893C4.34196 10.4706 4.5 10.8522 4.5 11.25V12.75C4.5 12.9489 4.57902 13.1397 4.71967 13.2803C4.86032 13.421 5.05109 13.5 5.25 13.5H18.75C18.9489 13.5 19.1397 13.421 19.2803 13.2803C19.421 13.1397 19.5 12.9489 19.5 12.75V11.25C19.5 10.8522 19.658 10.4706 19.9393 10.1893C20.2206 9.90804 20.6022 9.75 21 9.75H21.75C22.1478 9.75 22.5294 9.90804 22.8107 10.1893C23.092 10.4706 23.25 10.8522 23.25 11.25ZM18 11.25C18 10.4544 18.3161 9.69129 18.8787 9.12868C19.4413 8.56607 20.2044 8.25 21 8.25H22.125C22.2245 8.25 22.3198 8.21049 22.3902 8.14017C22.4605 8.06984 22.5 7.97446 22.5 7.875V6.75C22.5 6.35218 22.342 5.97064 22.0607 5.68934C21.7794 5.40804 21.3978 5.25 21 5.25H13.125C13.0255 5.25 12.9302 5.28951 12.8598 5.35984C12.7895 5.43016 12.75 5.52554 12.75 5.625V12H18V11.25ZM1.875 8.25H3C3.79565 8.25 4.55871 8.56607 5.12132 9.12868C5.68393 9.69129 6 10.4544 6 11.25V12H11.25V5.625C11.25 5.52554 11.2105 5.43016 11.1402 5.35984C11.0698 5.28951 10.9745 5.25 10.875 5.25H3C2.60218 5.25 2.22064 5.40804 1.93934 5.68934C1.65804 5.97064 1.5 6.35218 1.5 6.75V7.875C1.5 7.97446 1.53951 8.06984 1.60984 8.14017C1.68016 8.21049 1.77554 8.25 1.875 8.25Z" fill="#103C3B"></path></svg>