<svg xmlns="http://www.w3.org/2000/svg" width="168" height="32" viewBox="0 0 168 32" fill="none"><g clip-path="url(#clip0_19362_5747)"><path fill-rule="evenodd" clip-rule="evenodd" d="M150.039 24.5712L156.224 16.2506L150.519 8.38867H155.405L158.709 13.2939L162.042 8.38867H166.899L161.11 16.2224L167.209 24.5712H162.409L158.652 19.2916L155.009 24.5712H150.039Z" fill="black"></path><path fill-rule="evenodd" clip-rule="evenodd" d="M134.488 16.8034C134.488 22.1443 137.405 24.9836 142.573 24.9836C147.409 24.9836 150.687 22.1443 150.687 16.8034V16.3536C150.687 10.9563 147.352 7.97656 142.573 7.97656C137.906 7.97656 134.488 10.9001 134.488 16.3536V16.8034ZM146.475 16.8045C146.475 19.7675 144.998 21.376 142.573 21.376C140.177 21.376 138.699 19.7393 138.699 16.8045V16.4095C138.699 13.2491 140.26 11.5841 142.601 11.5841C144.97 11.5841 146.475 13.362 146.475 16.4095V16.8045Z" fill="black"></path><path fill-rule="evenodd" clip-rule="evenodd" d="M120.36 21.6115C121.236 23.6909 122.989 24.9834 125.675 24.9834C129.83 24.9834 132.545 21.9487 132.545 16.5537V16.076C132.545 10.6811 129.661 8.01167 125.788 7.98357C123.215 7.98357 121.406 9.13562 120.501 11.243V2.92578H116.346V24.5619H120.021L120.36 21.6115ZM128.333 16.5924C128.333 19.8001 126.851 21.3759 124.417 21.3759C122.096 21.3759 120.557 19.6312 120.557 16.5924V16.2547C120.557 13.4692 122.152 11.5839 124.473 11.5839C126.711 11.5839 128.333 13.2159 128.333 16.1985V16.5924Z" fill="black"></path><path fill-rule="evenodd" clip-rule="evenodd" d="M97.8789 8.40791V30.1373H102.027V21.9997C102.902 23.8902 104.624 25.047 107.22 25.047C111.058 25.047 114.078 22.2536 114.078 16.8927V16.4413C114.078 10.9674 111.369 7.97656 107.22 7.97656C104.539 7.97656 102.733 9.35913 101.858 11.4471L101.435 8.40791H97.8789ZM109.866 16.7895C109.866 19.7722 108.328 21.376 105.922 21.376C103.601 21.376 102.091 19.5752 102.091 16.7052V16.3956C102.091 13.3849 103.657 11.5841 106.006 11.5841C108.216 11.5841 109.866 13.188 109.866 16.4237V16.7895Z" fill="black"></path><path fill-rule="evenodd" clip-rule="evenodd" d="M79.4102 16.8034C79.4102 22.1443 82.3554 24.9836 87.5236 24.9836C92.3583 24.9836 95.6091 22.1443 95.6091 16.8034V16.3536C95.6091 10.9563 92.3026 7.97656 87.5236 7.97656C82.8555 7.97656 79.4102 10.9001 79.4102 16.3536V16.8034ZM91.3974 16.8045C91.3974 19.7675 89.8925 21.376 87.4957 21.376C85.099 21.376 83.6219 19.7393 83.6219 16.8045V16.4095C83.6219 13.2491 85.1826 11.5841 87.5236 11.5841C89.8925 11.5841 91.3974 13.362 91.3974 16.4095V16.8045Z" fill="black"></path><path fill-rule="evenodd" clip-rule="evenodd" d="M68.0723 24.5703H72.3212V17.1361C72.3212 13.7008 73.171 12.49 76.6835 12.49H78.4396V8.18164H77.3916C74.3608 8.18164 72.6895 9.50511 72.038 12.0958L71.4997 8.38684H68.0723V24.5703Z" fill="black"></path><path fill-rule="evenodd" clip-rule="evenodd" d="M49.2812 4.57422V24.5704H56.9959C62.0212 24.5704 65.8044 21.6514 65.8044 15.1961V13.8207C65.8044 7.39339 61.7954 4.57422 56.883 4.57422H49.2812ZM53.4931 8.18177H56.7069C59.6096 8.18177 61.5925 10.0157 61.5925 14.0503V15.0943C61.5925 19.1289 59.667 20.9628 56.8507 20.9628H53.4931V8.18177Z" fill="black"></path><path d="M10.1331 0.410156L0.888672 6.28921L10.1331 12.1683L19.3791 6.28921L28.6237 12.1683L37.8681 6.28921L28.6237 0.410156L19.3791 6.28921L10.1331 0.410156Z" fill="#0056FE"></path><path d="M10.1331 23.9262L0.888672 18.0471L10.1331 12.168L19.3791 18.0471L10.1331 23.9262Z" fill="#0056FE"></path><path d="M19.3789 18.0471L28.6235 12.168L37.8679 18.0471L28.6235 23.9262L19.3789 18.0471Z" fill="#0056FE"></path><path d="M19.3788 31.7659L10.1328 25.8869L19.3788 20.0078L28.6233 25.8869L19.3788 31.7659Z" fill="#0056FE"></path></g><defs><clipPath id="clip0_19362_5747"><rect width="167.68" height="32" fill="white" transform="translate(0.275391)"></rect></clipPath></defs></svg>