<svg xmlns="http://www.w3.org/2000/svg" width="111" height="32" viewBox="0 0 111 32" fill="none"><g clip-path="url(#clip0_19362_5735)"><path fill-rule="evenodd" clip-rule="evenodd" d="M14.551 1.09061C15.9772 -0.363538 18.3097 -0.363538 19.7351 1.09061L32.7678 14.377C34.1924 15.8296 34.1924 18.2095 32.7678 19.6636L23.6526 28.9558C22.986 29.6355 22.0645 30.0555 21.0478 30.0555H13.2399C12.3136 30.0555 11.4684 29.7075 10.82 29.133L1.52549 19.6563C0.100878 18.203 0.100878 15.8247 1.52549 14.3705L14.551 1.09061ZM19.3724 25.3459L18.0724 26.6713C17.9772 26.7685 17.8454 26.8283 17.7002 26.8283H16.5867C16.4542 26.8283 16.3343 26.779 16.2407 26.6964L14.9152 25.3442C14.7129 25.1379 14.7129 24.7988 14.9152 24.5909L16.7732 22.6965C16.9772 22.4886 17.3105 22.4886 17.5129 22.6965L19.3724 24.5917C19.5764 24.7988 19.5764 25.1379 19.3724 25.3459ZM19.3724 17.397L14.174 22.6973C14.078 22.7944 13.947 22.8543 13.8026 22.8543H12.6883C12.5565 22.8543 12.4351 22.8049 12.343 22.7224L11.0168 21.371C10.8137 21.1631 10.8137 20.8232 11.0168 20.6168L16.7732 14.7476C16.9772 14.5405 17.3105 14.5405 17.5137 14.7476L19.3724 16.6428C19.5764 16.85 19.5764 17.1899 19.3724 17.397ZM19.3724 9.44813L10.2763 18.7225C10.1795 18.8196 10.0485 18.8795 9.90412 18.8795H8.7906C8.65886 18.8795 8.53745 18.8301 8.44539 18.7476L7.11839 17.3954C6.91521 17.1891 6.91521 16.8492 7.11839 16.6412L16.7732 6.79796C16.9772 6.58999 17.3089 6.58999 17.5129 6.79796L19.3724 8.69394C19.5764 8.90109 19.5764 9.24098 19.3724 9.44813Z" fill="#26A943"></path><path d="M95.8078 12.2076V6.62891H91.8633V26.8462H95.8078V12.7991L100.644 25.9399C100.755 26.2223 100.809 26.5338 100.809 26.8462C100.809 27.7525 100.31 28.5722 99.2827 28.6855C98.5054 28.7147 97.7285 28.6289 96.9787 28.5439V31.8584C97.7833 31.9434 98.5879 31.9992 99.3945 31.9992C102.086 31.9992 103.475 31.0363 104.337 28.6855L110.336 12.2076H106.253L103.115 22.2313H103.06L99.8097 12.2076H95.8078Z" fill="#2E2E2E"></path><path d="M49.5914 6.74218C48.9255 6.71388 48.2034 6.62891 47.5094 6.62891C44.2875 6.62891 42.7048 8.46983 42.7048 11.0739V12.2076H40.3438V14.8966H42.7048V26.8462H46.6477V14.8966H49.3701V12.2076H46.6477V11.3288C46.6477 10.1117 47.0645 9.65776 48.1467 9.65776C48.6198 9.65776 49.1191 9.68772 49.5914 9.74436V6.74218Z" fill="#2E2E2E"></path><path fill-rule="evenodd" clip-rule="evenodd" d="M91.0015 6.62891V26.8462H87.2513V24.9761H87.1965C86.2797 26.563 84.6967 27.2419 82.8361 27.2419C78.8989 27.2419 76.7965 24.1313 76.4465 20.5036H66.1178C66.2296 23.0801 67.4225 24.2122 69.6455 24.2122C71.2266 24.2122 72.5058 23.2201 72.7553 22.3162H76.2275C75.1148 25.7991 72.7553 27.2419 69.5059 27.2419C65.3082 27.2419 62.5916 24.5149 62.2196 20.5036H52.0644C52.1758 23.0801 53.3695 24.2122 55.5909 24.2122C57.1732 24.2122 58.4513 23.2201 58.7003 22.3162H62.1718C61.0622 25.7991 58.7003 27.2419 55.4525 27.2419C50.924 27.2419 48.1191 24.0706 48.1191 19.5398C48.1191 15.1515 51.0909 11.8111 55.4525 11.8111C59.4082 11.8111 61.7265 14.5559 62.3044 17.9894C62.9186 14.3884 65.6775 11.8111 69.5059 11.8111C73.6575 11.8111 76.0054 14.8335 76.4307 18.5024C76.7329 14.9257 78.8553 11.8111 82.7535 11.8111C84.4465 11.8111 86.1132 12.5466 87.0015 13.9903H87.0585V6.62891H91.0015ZM55.3415 14.84C52.7854 14.84 52.1481 16.8225 52.0644 17.9554H58.479C58.1178 15.9154 57.2576 14.84 55.3415 14.84ZM66.1178 17.9554C66.2018 16.8225 66.8399 14.84 69.3949 14.84C71.3107 14.84 72.1727 15.9154 72.5328 17.9554H66.1178ZM87.1965 19.484C87.1965 17.1057 86.3634 14.84 83.8076 14.84C81.2268 14.84 80.337 17.134 80.337 19.5123C80.337 21.8064 81.3641 24.2122 83.8076 24.2122C86.3919 24.2122 87.1965 21.8906 87.1965 19.484Z" fill="#2E2E2E"></path></g><defs><clipPath id="clip0_19362_5735"><rect width="109.88" height="32" fill="white" transform="translate(0.457031)"></rect></clipPath></defs></svg>