<svg xmlns="http://www.w3.org/2000/svg" width="25" height="24" viewBox="0 0 25 24" fill="none"><path d="M21.0508 3.74996V21C21.0508 21.1989 20.9718 21.3896 20.8311 21.5303C20.6905 21.6709 20.4997 21.75 20.3008 21.75C20.1019 21.75 19.9111 21.6709 19.7705 21.5303C19.6298 21.3896 19.5508 21.1989 19.5508 21V16.5H15.0508C14.8519 16.5 14.6611 16.4209 14.5205 16.2803C14.3798 16.1396 14.3008 15.9489 14.3008 15.75C14.3356 13.9534 14.5625 12.1657 14.9777 10.4175C15.8945 6.62152 17.6327 4.07715 20.0055 3.0609C20.1195 3.01205 20.2439 2.99225 20.3675 3.00328C20.4911 3.01432 20.61 3.05584 20.7136 3.12412C20.8172 3.19241 20.9022 3.28532 20.961 3.39455C21.0199 3.50377 21.0507 3.62589 21.0508 3.74996ZM12.0405 3.62715C12.0258 3.52867 11.9916 3.4341 11.94 3.34896C11.8884 3.26381 11.8203 3.1898 11.7398 3.13124C11.6593 3.07267 11.5679 3.03073 11.471 3.00786C11.3741 2.98498 11.2736 2.98163 11.1754 2.998C11.0772 3.01437 10.9832 3.05013 10.8989 3.1032C10.8147 3.15627 10.7419 3.22558 10.6847 3.30709C10.6275 3.38861 10.5871 3.48069 10.5659 3.57797C10.5447 3.67526 10.543 3.77579 10.5611 3.87371L11.2905 8.24996H9.05078V3.74996C9.05078 3.55105 8.97176 3.36028 8.83111 3.21963C8.69046 3.07898 8.49969 2.99996 8.30078 2.99996C8.10187 2.99996 7.9111 3.07898 7.77045 3.21963C7.6298 3.36028 7.55078 3.55105 7.55078 3.74996V8.24996H5.31109L6.04047 3.87371C6.05851 3.77579 6.05688 3.67526 6.03566 3.57797C6.01444 3.48069 5.97407 3.38861 5.91689 3.30709C5.85971 3.22558 5.78687 3.15627 5.70262 3.1032C5.61837 3.05013 5.5244 3.01437 5.42619 2.998C5.32797 2.98163 5.22748 2.98498 5.13057 3.00786C5.03367 3.03073 4.94229 3.07267 4.86176 3.13124C4.78124 3.1898 4.71318 3.26381 4.66156 3.34896C4.60993 3.4341 4.57578 3.52867 4.56109 3.62715L3.81109 8.12715C3.80436 8.16774 3.80091 8.20881 3.80078 8.24996C3.80228 9.31291 4.17945 10.3411 4.86566 11.1529C5.55186 11.9647 6.50292 12.5078 7.55078 12.6862V21C7.55078 21.1989 7.6298 21.3896 7.77045 21.5303C7.9111 21.6709 8.10187 21.75 8.30078 21.75C8.49969 21.75 8.69046 21.6709 8.83111 21.5303C8.97176 21.3896 9.05078 21.1989 9.05078 21V12.6862C10.0986 12.5078 11.0497 11.9647 11.7359 11.1529C12.4221 10.3411 12.7993 9.31291 12.8008 8.24996C12.8006 8.20881 12.7972 8.16774 12.7905 8.12715L12.0405 3.62715Z" fill="#103C3B"></path></svg>