<svg xmlns="http://www.w3.org/2000/svg" width="132" height="32" viewBox="0 0 132 32" fill="none"><path fill-rule="evenodd" clip-rule="evenodd" d="M101.866 14.0965C101.473 16.6782 99.5009 16.6782 97.5943 16.6782H96.5089L97.27 11.8581C97.3159 11.5669 97.567 11.3523 97.8625 11.3523H98.3596C99.6577 11.3523 100.884 11.3523 101.516 12.0918C101.895 12.5343 102.009 13.1902 101.866 14.0965ZM101.036 7.36133H93.8439C93.3521 7.36133 92.9335 7.71914 92.8567 8.20495L89.9489 26.6463C89.8913 27.01 90.1724 27.339 90.5409 27.339H94.2311C94.5751 27.339 94.8684 27.0885 94.9217 26.7485L95.7463 21.5205C95.8231 21.0347 96.2417 20.6769 96.7335 20.6769H99.0092C103.746 20.6769 106.481 18.3842 107.195 13.8405C107.517 11.8533 107.208 10.2918 106.277 9.19861C105.255 7.99679 103.442 7.36133 101.036 7.36133Z" fill="#2790C3"></path><path fill-rule="evenodd" clip-rule="evenodd" d="M50.5692 14.0965C50.1762 16.6782 48.2044 16.6782 46.2977 16.6782H45.2126L45.9735 11.8581C46.0197 11.5669 46.2709 11.3523 46.5657 11.3523H47.0631C48.3612 11.3523 49.5876 11.3523 50.2195 12.0918C50.598 12.5343 50.7124 13.1902 50.5692 14.0965ZM49.7395 7.36133H42.5472C42.0556 7.36133 41.637 7.71914 41.5604 8.20495L38.6519 26.6463C38.5947 27.01 38.876 27.339 39.2441 27.339H42.6781C43.1698 27.339 43.5887 26.9812 43.6653 26.4957L44.4501 21.5205C44.5264 21.0347 44.9453 20.6769 45.4369 20.6769H47.7128C52.4498 20.6769 55.1838 18.3842 55.8985 13.8405C56.2201 11.8533 55.9118 10.2918 54.9812 9.19861C53.9577 7.99679 52.1453 7.36133 49.7395 7.36133Z" fill="#27346A"></path><path fill-rule="evenodd" clip-rule="evenodd" d="M66.4363 20.7184C66.1035 22.6863 64.5414 24.0074 62.5488 24.0074C61.5504 24.0074 60.7504 23.6861 60.2368 23.0778C59.7275 22.4746 59.5355 21.6155 59.6971 20.6587C60.007 18.7086 61.5942 17.3449 63.5563 17.3449C64.5344 17.3449 65.328 17.6694 65.8523 18.2832C66.3803 18.9016 66.5872 19.7666 66.4363 20.7184ZM71.2358 14.0156H67.792C67.4966 14.0156 67.2459 14.2299 67.1995 14.5218L67.048 15.4847L66.8075 15.1356C66.0619 14.0531 64.3995 13.6914 62.7398 13.6914C58.935 13.6914 55.6848 16.5746 55.0523 20.6186C54.7232 22.6359 55.1904 24.5636 56.3344 25.9093C57.3851 27.1456 58.8848 27.6602 60.6715 27.6602C63.7387 27.6602 65.4395 25.6901 65.4395 25.6901L65.2854 26.6472C65.2283 27.0111 65.5094 27.3405 65.8779 27.3405H68.9792C69.471 27.3405 69.8896 26.983 69.9659 26.4972L71.8278 14.7083C71.8854 14.3443 71.6043 14.0156 71.2358 14.0156Z" fill="#27346A"></path><path fill-rule="evenodd" clip-rule="evenodd" d="M117.731 20.7184C117.398 22.6863 115.836 24.0074 113.844 24.0074C112.845 24.0074 112.045 23.6861 111.531 23.0778C111.022 22.4746 110.83 21.6155 110.992 20.6587C111.302 18.7086 112.889 17.3449 114.851 17.3449C115.829 17.3449 116.623 17.6694 117.147 18.2832C117.675 18.9016 117.882 19.7666 117.731 20.7184ZM122.53 14.0156H119.086C118.791 14.0156 118.54 14.2299 118.494 14.5218L118.343 15.4847L118.102 15.1356C117.356 14.0531 115.694 13.6914 114.034 13.6914C110.23 13.6914 106.98 16.5746 106.347 20.6186C106.018 22.6359 106.485 24.5636 107.629 25.9093C108.68 27.1456 110.18 27.6602 111.966 27.6602C115.033 27.6602 116.734 25.6901 116.734 25.6901L116.58 26.6472C116.523 27.0111 116.804 27.3405 117.173 27.3405H120.274C120.765 27.3405 121.184 26.983 121.261 26.4972L123.122 14.7083C123.18 14.3443 122.899 14.0156 122.53 14.0156Z" fill="#2790C3"></path><mask id="mask0_19362_5760" style="mask-type:alpha" maskUnits="userSpaceOnUse" x="0" y="0" width="132" height="32"><path d="M0.326172 32.0003H131.104V0.265625H0.326172V32.0003Z" fill="white"></path></mask><g mask="url(#mask0_19362_5760)"><path fill-rule="evenodd" clip-rule="evenodd" d="M89.5756 14.0156H86.1142C85.7836 14.0156 85.4737 14.1798 85.2876 14.4536L80.5132 21.4862L78.4892 14.7284C78.3628 14.3055 77.9734 14.0156 77.5324 14.0156H74.1297C73.7185 14.0156 73.4294 14.4197 73.5617 14.8085L77.3734 25.9962L73.7884 31.0548C73.5068 31.4517 73.791 32.0009 74.2774 32.0009H77.7356C78.0636 32.0009 78.3702 31.8403 78.5569 31.5707L90.0689 14.9569C90.3441 14.5593 90.0598 14.0156 89.5756 14.0156Z" fill="#27346A"></path><path fill-rule="evenodd" clip-rule="evenodd" d="M126.59 7.86783L123.638 26.6463C123.581 27.0103 123.862 27.339 124.231 27.339H127.199C127.691 27.339 128.11 26.9812 128.187 26.4957L131.097 8.05434C131.154 7.69039 130.873 7.36133 130.504 7.36133H127.182C126.887 7.36133 126.636 7.57626 126.59 7.86783Z" fill="#2790C3"></path><path fill-rule="evenodd" clip-rule="evenodd" d="M13.9318 30.6933L14.8986 24.5629L14.961 24.2231C15.0075 23.9277 15.1588 23.6575 15.3867 23.4629C15.6145 23.2683 15.9051 23.161 16.2047 23.161H16.9724C18.2521 23.161 19.4277 23.0243 20.4669 22.7547C21.5756 22.4673 22.5617 22.0197 23.3976 21.4253C24.2839 20.7949 25.0283 19.9801 25.6104 19.0039C26.2246 17.9741 26.6755 16.7342 26.9509 15.3191C27.1943 14.0694 27.2399 12.9508 27.087 11.9936C26.9251 10.9826 26.5356 10.1199 25.9295 9.42878C25.562 9.01022 25.0917 8.64755 24.5318 8.35081L24.5186 8.34371L24.5183 8.32756C24.7138 7.0802 24.7064 6.03972 24.496 5.14402C24.2846 4.24641 23.8566 3.43865 23.1866 2.67518C21.7983 1.09328 19.2732 0.291016 15.6818 0.291016H5.81828C5.48861 0.291016 5.16861 0.408996 4.91778 0.623299C4.66696 0.837603 4.50081 1.1353 4.44909 1.46112L0.342107 27.5049C0.304612 27.7425 0.372814 27.9839 0.529258 28.1662C0.685703 28.3495 0.913261 28.4546 1.15374 28.4546H7.27284L7.26735 28.4837L6.84714 31.1484C6.81482 31.3556 6.87428 31.5657 7.01039 31.7247C7.14644 31.8841 7.34463 31.9759 7.55407 31.9759H12.6863C12.9743 31.9759 13.2533 31.8727 13.4722 31.6856C13.691 31.4984 13.8364 31.2389 13.8813 30.9548L13.9318 30.6933Z" fill="#27346A"></path><path fill-rule="evenodd" clip-rule="evenodd" d="M10.4153 8.36095C10.4802 7.94821 10.745 7.61045 11.1015 7.43946C11.2638 7.36186 11.4448 7.31855 11.6345 7.31855H19.3659C20.2819 7.31855 21.1359 7.37866 21.9169 7.50442C22.1399 7.54031 22.3568 7.58165 22.5679 7.62853C22.7789 7.67541 22.9835 7.72746 23.1817 7.78565C23.2809 7.81439 23.3782 7.84479 23.4742 7.87679C23.8576 8.00415 24.2144 8.15413 24.5428 8.32799C24.9301 5.85946 24.5402 4.17965 23.2049 2.65819C21.7349 0.983199 19.0792 0.265625 15.6814 0.265625H5.81795C5.12365 0.265625 4.53246 0.770836 4.42418 1.45673L0.317188 27.5005C0.236057 28.0144 0.633309 28.479 1.15339 28.479H7.24243L10.4153 8.36095Z" fill="#27346A"></path><path fill-rule="evenodd" clip-rule="evenodd" d="M24.5423 8.32812C24.5128 8.51655 24.4802 8.70823 24.4414 8.90573C23.141 15.5841 18.6908 17.8929 13.0071 17.8929H10.1128C9.41853 17.8929 8.83219 18.3984 8.72392 19.0843L6.82168 31.1444C6.75091 31.5937 7.09837 32.0004 7.55315 32.0004H12.6858C13.2931 32.0004 13.8103 31.5585 13.905 30.9583L13.9554 30.6974L14.9222 24.5664L14.9846 24.2276C15.0793 23.6274 15.5965 23.1855 16.2038 23.1855H16.9715C21.9438 23.1855 25.8371 21.1653 26.9749 15.3232C27.4501 12.8822 27.2044 10.8445 25.9473 9.41191C25.5672 8.97879 25.094 8.62034 24.5423 8.32812Z" fill="#2790C3"></path><path fill-rule="evenodd" clip-rule="evenodd" d="M23.1818 7.7854C22.9837 7.72721 22.7791 7.67521 22.568 7.62833C22.3569 7.58145 22.14 7.54007 21.917 7.50423C21.1361 7.37847 20.2821 7.31836 19.366 7.31836H11.6347C11.4449 7.31836 11.2639 7.36167 11.1017 7.43921C10.7451 7.61025 10.4804 7.94801 10.4154 8.36076L8.77213 18.7799L8.72461 19.084C8.83288 18.3981 9.41922 17.8925 10.1135 17.8925H13.0078C18.6915 17.8925 23.1417 15.5837 24.4421 8.9054C24.4809 8.70791 24.5135 8.51623 24.543 8.3278C24.2145 8.15388 23.8577 8.00391 23.4744 7.87655C23.3784 7.84455 23.281 7.8142 23.1818 7.7854Z" fill="#1F264F"></path></g></svg>