<svg xmlns="http://www.w3.org/2000/svg" width="113" height="32" viewBox="0 0 113 32" fill="none"><path d="M24.4416 6.0608C24.4197 5.90185 24.2809 5.81367 24.1656 5.80407C24.0513 5.79447 21.8105 5.76042 21.8105 5.76042C21.8105 5.76042 19.9365 3.94059 19.7514 3.75546C19.5663 3.57034 19.2048 3.62622 19.0642 3.66814C19.0625 3.66902 18.7123 3.7773 18.1229 3.9598C18.0242 3.6402 17.8792 3.24724 17.6723 2.85254C17.0051 1.57936 16.028 0.906098 14.8473 0.904357C14.8456 0.904357 14.8447 0.904357 14.843 0.904357C14.7609 0.904357 14.6797 0.912215 14.5976 0.919197C14.5627 0.877283 14.5278 0.836244 14.4911 0.796071C13.9767 0.245936 13.3175 -0.0221472 12.5272 0.00143009C11.0025 0.0450918 9.48398 1.14624 8.25272 3.10228C7.38646 4.4785 6.72716 6.20753 6.5403 7.54618C4.78945 8.08845 3.56517 8.46741 3.53811 8.47617C2.65439 8.75384 2.62645 8.78091 2.51118 9.61401C2.42561 10.2436 0.113281 28.124 0.113281 28.124L19.4912 31.4754L27.89 29.3875C27.89 29.3875 24.4634 6.21975 24.4416 6.0608ZM17.1527 4.26019C16.7065 4.39816 16.1991 4.55535 15.649 4.72563C15.6376 3.95369 15.5459 2.87961 15.1862 1.95136C16.3432 2.17054 16.9125 3.47952 17.1527 4.26019ZM14.6351 5.03999C13.6196 5.35433 12.5114 5.69752 11.3998 6.0416C11.7124 4.84439 12.3054 3.65242 13.0337 2.87088C13.3044 2.58009 13.6833 2.25612 14.1322 2.07099C14.5539 2.95121 14.6456 4.19732 14.6351 5.03999ZM12.5577 1.01613C12.9157 1.00827 13.217 1.08686 13.4746 1.25627C13.0625 1.47021 12.6643 1.77759 12.2905 2.1784C11.3221 3.21755 10.5799 4.83042 10.2838 6.38652C9.36081 6.67205 8.45788 6.95239 7.62657 7.20913C8.15142 4.75969 10.2044 1.08424 12.5577 1.01613Z" fill="#95BF47"></path><path d="M24.1666 5.80494C24.0522 5.79534 21.8115 5.7613 21.8115 5.7613C21.8115 5.7613 19.9376 3.94147 19.7524 3.75635C19.6835 3.68736 19.59 3.65156 19.4922 3.63672L19.4931 31.4746L27.891 29.3875C27.891 29.3875 24.4644 6.22063 24.4426 6.06168C24.4207 5.90273 24.281 5.81454 24.1666 5.80494Z" fill="#5E8E3E"></path><path d="M14.8364 10.1235L13.8611 13.7727C13.8611 13.7727 12.773 13.2776 11.4833 13.3588C9.59179 13.4785 9.5717 14.6713 9.59095 14.9709C9.69398 16.6029 13.9876 16.9592 14.2287 20.7822C14.4182 23.7896 12.6333 25.847 10.0616 26.0094C6.97472 26.2041 5.27539 24.3834 5.27539 24.3834L5.92947 21.6013C5.92947 21.6013 7.64011 22.892 9.00934 22.8055C9.90356 22.7487 10.2231 22.0213 10.1908 21.507C10.0564 19.378 6.55992 19.5038 6.33902 16.0056C6.153 13.062 8.08638 10.079 12.3521 9.81004C13.9955 9.70439 14.8364 10.1235 14.8364 10.1235Z" fill="white"></path><path d="M38.9507 17.764C37.985 17.24 37.4887 16.7983 37.4887 16.1911C37.4887 15.4186 38.1781 14.9223 39.2547 14.9223C40.5079 14.9223 41.6269 15.4463 41.6269 15.4463L42.5095 12.7423C42.5095 12.7423 41.698 12.1074 39.3092 12.1074C35.9851 12.1074 33.6812 14.0111 33.6812 16.6874C33.6812 18.2048 34.757 19.3637 36.1921 20.1908C37.3509 20.8526 37.765 21.322 37.765 22.0114C37.765 22.7286 37.1855 23.308 36.1098 23.308C34.5066 23.308 32.9927 22.48 32.9927 22.48L32.0547 25.184C32.0547 25.184 33.4535 26.122 35.8067 26.122C39.2278 26.122 41.6833 24.4391 41.6833 21.4043C41.6824 19.7777 40.4413 18.6188 38.9507 17.764Z" fill="black"></path><path d="M52.5801 12.0815C50.8971 12.0815 49.5728 12.8818 48.5525 14.0952L48.4971 14.0675L49.9591 6.42578H46.1517L42.4551 25.8752H46.2625L47.5314 19.2269C48.0276 16.7161 49.3242 15.1718 50.5385 15.1718C51.3934 15.1718 51.7251 15.7512 51.7251 16.5792C51.7251 17.1032 51.6697 17.7381 51.5597 18.2621L50.1254 25.8761H53.933L55.4223 18.0135C55.5881 17.1855 55.6988 16.193 55.6988 15.5304C55.6972 13.3781 54.5662 12.0815 52.5801 12.0815Z" fill="black"></path><path d="M64.3034 12.0801C59.7232 12.0801 56.6895 16.2184 56.6895 20.8253C56.6895 23.777 58.5098 26.1493 61.9312 26.1493C66.4279 26.1493 69.4627 22.1218 69.4627 17.4041C69.4627 14.6732 67.8622 12.0801 64.3034 12.0801ZM62.4274 23.2261C61.1306 23.2261 60.5788 22.1227 60.5788 20.743C60.5788 18.5638 61.7103 15.005 63.7793 15.005C65.1312 15.005 65.5718 16.1638 65.5718 17.295C65.5718 19.6395 64.4418 23.2261 62.4274 23.2261Z" fill="black"></path><path d="M79.2014 12.0801C76.6314 12.0801 75.1731 14.3424 75.1731 14.3424H75.1185L75.3394 12.3009H71.9736C71.8083 13.6807 71.5041 15.7767 71.2014 17.3495L68.5527 31.281H72.3602L73.4078 25.653H73.4912C73.4912 25.653 74.2723 26.1493 75.726 26.1493C80.195 26.1493 83.119 21.5701 83.119 16.9347C83.119 14.3701 81.9875 12.0801 79.2014 12.0801ZM75.5597 23.2807C74.5714 23.2807 73.9864 22.7289 73.9864 22.7289L74.6212 19.1701C75.0629 16.7978 76.3041 15.2249 77.6287 15.2249C78.7875 15.2249 79.1458 16.3007 79.1458 17.3218C79.1458 19.7772 77.6838 23.2807 75.5597 23.2807Z" fill="black"></path><path d="M88.5541 6.61914C87.3408 6.61914 86.375 7.58486 86.375 8.82599C86.375 9.95716 87.0921 10.7297 88.168 10.7297H88.2231C89.4098 10.7297 90.4301 9.92941 90.4579 8.52288C90.4579 7.4194 89.713 6.61914 88.5541 6.61914Z" fill="black"></path><path d="M83.2305 25.8745H87.0369L89.631 12.3848H85.7957L83.2305 25.8745Z" fill="black"></path><path d="M99.3139 12.3578H96.6653L96.8027 11.723C97.0236 10.4264 97.7963 9.26751 99.0653 9.26751C99.7425 9.26751 100.279 9.46066 100.279 9.46066L101.024 6.48125C101.024 6.48125 100.362 6.15039 98.9541 6.15039C97.6022 6.15039 96.2514 6.53665 95.23 7.41922C93.9332 8.52269 93.3263 10.1224 93.0231 11.723L92.9134 12.3578H91.1471L90.5953 15.2273H92.3616L90.3477 25.8761H94.1551L96.169 15.2273H98.7899L99.3139 12.3578Z" fill="black"></path><path d="M108.473 12.3857C108.473 12.3857 106.093 18.3817 105.025 21.6548H104.969C104.897 20.6007 104.031 12.3857 104.031 12.3857H100.03L102.321 24.7719C102.377 25.0474 102.349 25.2137 102.238 25.4068C101.796 26.2616 101.052 27.0897 100.169 27.6968C99.4518 28.2208 98.6518 28.5516 98.0176 28.7725L99.0657 32.0005C99.8384 31.8351 101.438 31.2002 102.79 29.9314C104.528 28.3039 106.128 25.7931 107.783 22.3719L112.445 12.3848H108.473V12.3857Z" fill="black"></path></svg>