<svg xmlns="http://www.w3.org/2000/svg" width="179" height="32" viewBox="0 0 179 32" fill="none"><path fill-rule="evenodd" clip-rule="evenodd" d="M124.835 24.5659C124.292 24.5727 123.754 24.4716 123.25 24.2685C122.747 24.0655 122.288 23.7644 121.902 23.3829C121.126 22.6071 120.603 21.429 120.603 19.8386C120.603 18.229 121.126 17.0557 121.902 16.2799C122.29 15.9021 122.749 15.6048 123.252 15.405C123.756 15.2053 124.294 15.1072 124.835 15.1163C125.941 15.1163 126.993 15.5042 127.769 16.2799C128.544 17.0557 129.063 18.229 129.063 19.8386C129.063 21.4483 128.544 22.6217 127.769 23.3974C127.381 23.7753 126.922 24.0726 126.418 24.2723C125.915 24.472 125.377 24.5701 124.835 24.5611V24.5659ZM124.835 9.97203C119.221 9.97203 114.969 14.1029 114.969 19.8386C114.969 25.5356 119.221 29.7054 124.835 29.7054C130.45 29.7054 134.702 25.5356 134.702 19.8386C134.702 14.1029 130.45 9.97203 124.835 9.97203ZM78.1541 24.7017C77.6111 24.7085 77.0724 24.6074 76.5686 24.4043C76.0654 24.2012 75.6072 23.9002 75.2208 23.5186C74.445 22.7429 73.9262 21.5696 73.9262 19.9793C73.9262 18.3696 74.4499 17.1914 75.2208 16.4205C75.6091 16.0412 76.0688 15.7427 76.573 15.5421C77.0773 15.3416 77.6164 15.243 78.1589 15.252C79.2644 15.252 80.3165 15.6448 81.0923 16.4157C81.868 17.1914 82.3868 18.3696 82.3868 19.9745C82.3868 21.5842 81.8632 22.7623 81.0923 23.5332C80.7039 23.9125 80.2443 24.211 79.74 24.4116C79.2358 24.6121 78.6966 24.7107 78.1541 24.7017ZM78.1541 10.1078C72.5444 10.1078 68.2923 14.2435 68.2923 19.9745C68.2923 25.6763 72.5444 29.8411 78.1541 29.8411C83.7687 29.8411 88.0208 25.6714 88.0208 19.9745C88.0208 14.2435 83.7686 10.1126 78.1589 10.1126L78.1541 10.1078ZM150.043 29.6423H155.643V18.5199C155.643 17.5987 155.933 16.7987 156.438 16.2363C156.718 15.932 157.06 15.6921 157.442 15.5331C157.824 15.3741 158.236 15.2997 158.649 15.3151C159.657 15.3151 160.346 15.6544 160.787 16.1683C161.238 16.692 161.466 17.4532 161.466 18.3745V29.6423H167.032V18.5199C167.032 17.6229 167.323 16.8229 167.827 16.2459C168.099 15.942 168.435 15.7011 168.81 15.5403C169.185 15.3795 169.591 15.3026 169.999 15.3151C171.032 15.3151 171.715 15.6544 172.152 16.1683C172.598 16.692 172.821 17.4532 172.821 18.3745V29.6423H178.275V17.3757C178.275 14.869 177.451 13.0411 176.147 11.8484C174.852 10.6605 173.126 10.132 171.395 10.132C170.159 10.132 169.029 10.3453 168.016 10.8544C167.148 11.2908 166.387 11.9308 165.718 12.8229C164.637 11.0629 162.663 10.132 160.336 10.132C158.629 10.132 156.666 10.8108 155.424 12.1199V10.5878H150.043V29.6423ZM147.934 10.6023V16.309L147.497 16.2217C146.978 16.1199 146.527 16.0811 146.11 16.0811C144.923 16.0811 143.866 16.372 143.109 17.0799C142.358 17.7829 141.839 18.9514 141.839 20.8326V29.6423H136.253V10.5878H141.693V12.4302C143.037 10.8108 145.126 10.4908 146.44 10.4908C146.857 10.4908 147.24 10.5344 147.604 10.5683L147.934 10.6023ZM47.2305 20.4593H52.6899L52.7529 20.5223C52.7917 20.5611 52.8208 20.6193 52.8256 20.6823C52.8494 21.1948 52.9745 21.6976 53.1941 22.1612C53.4142 22.6248 53.724 23.0401 54.1056 23.3829C54.8242 23.9694 55.7289 24.279 56.6559 24.2556C57.1694 24.2728 57.6804 24.1781 58.1531 23.978C58.6263 23.7778 59.0501 23.4772 59.3953 23.0968C60.0663 22.283 60.4164 21.2517 60.3796 20.1975V4.23625H66.285V20.3623C66.285 25.526 62.3335 29.8411 56.6947 29.8411C53.8826 29.8411 51.5165 28.9054 49.8583 27.2811C48.239 25.6957 47.2741 23.4314 47.2305 20.6775V20.4593ZM114.178 6.82052L114.489 6.91264V2.58777L114.343 2.52473C114.03 2.40012 113.703 2.31385 113.369 2.26777C112.957 2.19989 112.472 2.15625 111.977 2.15625C110.052 2.15625 107.89 2.79625 106.77 3.94534C105.65 5.08961 105.029 6.72355 105.029 8.68233V9.59385H102.217V14.5587H105.029V29.6423H110.678V14.5587H114.489V9.59385H110.678V8.75021C110.678 7.87264 110.983 7.36355 111.376 7.07264C111.795 6.78721 112.295 6.64282 112.801 6.66052C113.529 6.66052 113.955 6.75749 114.178 6.82052ZM100.195 25.1866L100.486 25.0944V29.4338L100.35 29.5017C100.147 29.5986 99.8171 29.6908 99.4341 29.7587C99.0462 29.8217 98.5953 29.8653 98.125 29.8653C96.3214 29.8653 94.2947 29.2254 93.2426 28.0714C92.1905 26.9223 91.6087 25.2835 91.6087 23.3199V14.5587H88.9662V9.61809H91.6087V4.26534H96.908V9.62294H100.486V14.5683H96.908V23.252C96.908 24.1344 97.1989 24.6435 97.5674 24.9393C97.9456 25.2447 98.445 25.3514 98.9056 25.3514C99.5893 25.3514 99.9868 25.2544 100.195 25.1914V25.1866Z" fill="#0A1551"></path><path d="M8.302 30.4145C8.90321 30.9963 8.47654 31.9999 7.62321 31.9999H2.25109C1.75041 32.0064 1.26759 31.814 0.908563 31.465C0.549532 31.116 0.343599 30.6388 0.335938 30.1381V24.9405C0.335938 24.1066 1.36866 23.6945 1.97473 24.2812L8.302 30.4145Z" fill="#0A1551"></path><path d="M16.685 30.8163C16.3083 30.4423 16.0093 29.9974 15.8052 29.5073C15.6012 29.0171 15.4961 28.4915 15.4961 27.9606C15.4961 27.4297 15.6012 26.904 15.8052 26.4139C16.0093 25.9238 16.3083 25.4789 16.685 25.1048L22.4159 19.4127C23.1806 18.6541 24.214 18.2285 25.2911 18.2285C26.3681 18.2285 27.4015 18.6541 28.1662 19.4127C28.543 19.7868 28.842 20.2317 29.046 20.7218C29.2501 21.2119 29.3551 21.7376 29.3551 22.2685C29.3551 22.7994 29.2501 23.325 29.046 23.8151C28.842 24.3053 28.543 24.7502 28.1662 25.1242L22.4353 30.8163C21.6706 31.5749 20.6372 32.0005 19.5601 32.0005C18.4831 32.0005 17.4496 31.5749 16.685 30.8163Z" fill="#FFB629"></path><path d="M1.54827 16.5085C1.17152 16.1344 0.872518 15.6895 0.66847 15.1995C0.464424 14.7093 0.359375 14.1837 0.359375 13.6527C0.359375 13.1219 0.464424 12.5962 0.66847 12.1061C0.872518 11.6159 1.17152 11.171 1.54827 10.797L11.1919 1.21154C11.9565 0.452989 12.99 0.0273438 14.0671 0.0273438C15.1441 0.0273438 16.1776 0.452989 16.9422 1.21154C17.319 1.5856 17.618 2.03051 17.822 2.52063C18.0261 3.01075 18.1311 3.5364 18.1311 4.0673C18.1311 4.59821 18.0261 5.12387 17.822 5.614C17.618 6.10409 17.319 6.54898 16.9422 6.92304L7.29375 16.5085C6.52929 17.2656 5.4969 17.6903 4.421 17.6903C3.34511 17.6903 2.31271 17.2656 1.54827 16.5085Z" fill="#0099FF"></path><path d="M9.43108 23.3451C9.05431 22.971 8.7553 22.5261 8.55128 22.036C8.34721 21.5459 8.24219 21.0202 8.24219 20.4893C8.24219 19.9584 8.34721 19.4328 8.55128 18.9426C8.7553 18.4525 9.05431 18.0076 9.43108 17.6336L22.459 4.68811C23.2236 3.92955 24.257 3.50391 25.3341 3.50391C26.4112 3.50391 27.4446 3.92955 28.2093 4.68811C28.586 5.06214 28.885 5.50709 29.0891 5.99717C29.2931 6.48731 29.3982 7.01298 29.3982 7.54389C29.3982 8.07475 29.2931 8.60042 29.0891 9.09055C28.885 9.58069 28.586 10.0256 28.2093 10.3996L15.1814 23.3451C14.4167 24.1036 13.3833 24.5293 12.3062 24.5293C11.2291 24.5293 10.1957 24.1036 9.43108 23.3451Z" fill="#FF6100"></path></svg>