<svg xmlns="http://www.w3.org/2000/svg" width="41" height="40" viewBox="0 0 41 40" fill="none"><rect x="0.800781" width="40" height="40" rx="4" fill="white"></rect><path d="M29.0508 11.7504V29.0005C29.0508 29.1994 28.9718 29.3901 28.8311 29.5308C28.6905 29.6714 28.4997 29.7505 28.3008 29.7505C28.1019 29.7505 27.9111 29.6714 27.7705 29.5308C27.6298 29.3901 27.5508 29.1994 27.5508 29.0005V24.5005H23.0508C22.8519 24.5005 22.6611 24.4214 22.5205 24.2808C22.3798 24.1401 22.3008 23.9494 22.3008 23.7505C22.3356 21.9539 22.5625 20.1662 22.9777 18.418C23.8945 14.622 25.6327 12.0776 28.0055 11.0614C28.1195 11.0125 28.2439 10.9927 28.3675 11.0038C28.4911 11.0148 28.61 11.0563 28.7136 11.1246C28.8172 11.1929 28.9022 11.2858 28.961 11.395C29.0199 11.5043 29.0507 11.6264 29.0508 11.7504ZM20.0405 11.6276C20.0258 11.5292 19.9916 11.4346 19.94 11.3494C19.8884 11.2643 19.8203 11.1903 19.7398 11.1317C19.6593 11.0732 19.5679 11.0312 19.471 11.0083C19.3741 10.9855 19.2736 10.9821 19.1754 10.9985C19.0772 11.0149 18.9832 11.0506 18.8989 11.1037C18.8147 11.1568 18.7419 11.2261 18.6847 11.3076C18.6275 11.3891 18.5871 11.4812 18.5659 11.5785C18.5447 11.6757 18.543 11.7763 18.5611 11.8742L19.2905 16.2505H17.0508V11.7504C17.0508 11.5515 16.9718 11.3608 16.8311 11.2201C16.6905 11.0795 16.4997 11.0004 16.3008 11.0004C16.1019 11.0004 15.9111 11.0795 15.7705 11.2201C15.6298 11.3608 15.5508 11.5515 15.5508 11.7504V16.2505H13.3111L14.0405 11.8742C14.0585 11.7763 14.0569 11.6757 14.0357 11.5785C14.0144 11.4812 13.9741 11.3891 13.9169 11.3076C13.8597 11.2261 13.7869 11.1568 13.7026 11.1037C13.6184 11.0506 13.5244 11.0149 13.4262 10.9985C13.328 10.9821 13.2275 10.9855 13.1306 11.0083C13.0337 11.0312 12.9423 11.0732 12.8618 11.1317C12.7812 11.1903 12.7132 11.2643 12.6616 11.3494C12.6099 11.4346 12.5758 11.5292 12.5611 11.6276L11.8111 16.1276C11.8044 16.1682 11.8009 16.2093 11.8008 16.2505C11.8023 17.3134 12.1795 18.3416 12.8657 19.1534C13.5519 19.9652 14.5029 20.5083 15.5508 20.6867V29.0005C15.5508 29.1994 15.6298 29.3901 15.7705 29.5308C15.9111 29.6714 16.1019 29.7505 16.3008 29.7505C16.4997 29.7505 16.6905 29.6714 16.8311 29.5308C16.9718 29.3901 17.0508 29.1994 17.0508 29.0005V20.6867C18.0986 20.5083 19.0497 19.9652 19.7359 19.1534C20.4221 18.3416 20.7993 17.3134 20.8008 16.2505C20.8006 16.2093 20.7972 16.1682 20.7905 16.1276L20.0405 11.6276Z" fill="#103C3B"></path></svg>