<svg xmlns="http://www.w3.org/2000/svg" width="40" height="40" viewBox="0 0 40 40" fill="none"><g clip-path="url(#clip0_19417_6002)"><path d="M39.7418 25.5501C39.4744 25.3686 39.1096 25.4387 38.9271 25.7056C38.878 25.7776 37.6976 27.4673 35.53 27.4673C33.3622 27.4673 32.1819 25.7776 32.1339 25.7076C31.918 25.3654 31.3749 25.3658 31.1592 25.708C31.1474 25.7256 29.9536 27.4674 27.7664 27.4674C25.9332 27.4674 24.8064 26.2591 24.4732 25.8437V16.7463H39.413C39.7373 16.7463 40.0001 16.4835 40.0001 16.1592C40.0001 15.8349 39.7373 15.5721 39.413 15.5721H34.6918V11.2932C34.6918 7.4113 31.5711 4.22302 27.7353 4.18591C25.8482 4.16693 24.0686 4.89052 22.725 6.22122C22.0744 6.86552 21.5668 7.6138 21.2146 8.42779C20.1294 5.95646 17.6889 4.21333 14.8586 4.18591C14.8353 4.18568 14.8121 4.1856 14.7888 4.1856C12.9275 4.1856 11.1753 4.90693 9.84816 6.22122C8.50425 7.55224 7.76402 9.32435 7.76402 11.2111V15.5722H0.631677C0.30738 15.5722 0.0445672 15.835 0.0445672 16.1593C0.0445672 16.4836 0.30738 16.7464 0.631677 16.7464H7.76402V19.0648C7.76402 19.3891 8.02683 19.6519 8.35113 19.6519C8.67543 19.6519 8.93824 19.3891 8.93824 19.0648V11.2111C8.93824 9.64005 9.5548 8.16427 10.6745 7.05544C11.7938 5.947 13.2745 5.34138 14.8474 5.36005C18.0418 5.39091 20.6408 8.05255 20.6408 11.2932V15.5721H19.1568V11.2111C19.1568 8.84388 17.2317 6.88497 14.8654 6.84443C14.8404 6.84404 14.8157 6.8438 14.7908 6.8438C13.6577 6.8438 12.584 7.287 11.7604 8.09661C10.91 8.93263 10.4222 10.0922 10.4222 11.2781V27.0353C9.63957 26.6422 9.13793 26.0873 8.93816 25.837V21.4131C8.93816 21.0888 8.67535 20.826 8.35105 20.826C8.02675 20.826 7.76394 21.0888 7.76394 21.4131V25.8429C7.42957 26.2599 6.30285 27.4673 4.47035 27.4673C2.30261 27.4673 1.1223 25.7776 1.07433 25.7076C0.893395 25.4385 0.52863 25.3671 0.259567 25.5479C-0.00949532 25.7288 -0.0809797 26.0936 0.0999578 26.3627C0.162458 26.4558 1.66433 28.6415 4.47027 28.6415C6.38863 28.6415 7.69738 27.62 8.35339 26.9439C9.00941 27.62 10.3182 28.6415 12.2365 28.6415C14.1544 28.6415 15.4617 27.6205 16.1171 26.9442C16.7733 27.6204 18.082 28.6415 19.9999 28.6415C21.9182 28.6415 23.227 27.62 23.883 26.9439C24.539 27.62 25.8478 28.6415 27.7661 28.6415C29.684 28.6415 30.9913 27.6205 31.6468 26.9442C32.3029 27.6204 33.6116 28.6415 35.5295 28.6415C38.3355 28.6415 39.8373 26.4558 39.8998 26.3627C40.0806 26.0943 40.0094 25.7316 39.7418 25.5501ZM11.5964 20.8261H20.6408V22.4698H11.5964V20.8261ZM20.6408 19.6518H11.5964V16.7463H20.6408V19.6518ZM12.5836 8.93404C13.1989 8.32919 14.0019 8.00411 14.8453 8.01849C16.5753 8.04818 17.9827 9.48036 17.9827 11.2111V15.5722H11.5965V11.2782C11.5964 10.4051 11.9563 9.55068 12.5836 8.93404ZM16.6042 25.7076C16.3885 25.3673 15.848 25.3671 15.6307 25.7061C15.5817 25.778 14.404 27.4673 12.2368 27.4673C12.0125 27.4673 11.7994 27.4484 11.5964 27.4159V23.644H20.6408V27.4158C20.4378 27.4483 20.2246 27.4673 20.0001 27.4673C17.8325 27.4673 16.6521 25.7776 16.6042 25.7076ZM21.815 27.0351V11.2111C21.815 9.64005 22.4315 8.16427 23.5512 7.05544C24.6705 5.947 26.1514 5.34138 27.724 5.36005C30.9186 5.39091 33.5175 8.05255 33.5175 11.2932V15.5721H32.0336V14.267C32.0336 13.9427 31.7707 13.6799 31.4464 13.6799C31.1221 13.6799 30.8593 13.9427 30.8593 14.267V15.5721H24.4731V11.278C24.4731 10.405 24.8329 9.5506 25.4603 8.93388C26.0756 8.32904 26.8771 8.00396 27.7219 8.01833C29.4519 8.04802 30.8593 9.48021 30.8593 11.211V11.9186C30.8593 12.2429 31.1221 12.5058 31.4464 12.5058C31.7707 12.5058 32.0336 12.2429 32.0336 11.9186V11.211C32.0336 8.8438 30.1084 6.8849 27.7421 6.84435C27.7171 6.84396 27.6925 6.84372 27.6675 6.84372C26.5344 6.84372 25.4608 7.28693 24.6371 8.09654C23.7868 8.93255 23.2989 10.0922 23.2989 11.278V25.8362C23.0986 26.0876 22.597 26.6422 21.815 27.0351Z" fill="#222E48"></path><path d="M16.1195 34.6384C13.9518 34.6384 12.7714 32.9486 12.7235 32.8786C12.5079 32.5386 11.9678 32.5383 11.7503 32.8768C11.7012 32.9487 10.5208 34.6385 8.35316 34.6385C6.1855 34.6385 5.00511 32.9487 4.95715 32.8787C4.77621 32.6096 4.41144 32.5382 4.14238 32.7191C3.87332 32.9 3.80183 33.2647 3.98277 33.5338C4.04527 33.6269 5.54707 35.8126 8.35308 35.8126C10.2714 35.8126 11.5802 34.7911 12.2362 34.115C12.8922 34.7911 14.2011 35.8126 16.1194 35.8126C16.4437 35.8126 16.7065 35.5498 16.7065 35.2255C16.7065 34.9012 16.4438 34.6384 16.1195 34.6384Z" fill="#222E48"></path><path d="M35.8553 32.7217C35.5875 32.5405 35.223 32.611 35.0407 32.878C34.9916 32.9499 33.814 34.6392 31.6467 34.6392C29.4789 34.6392 28.2986 32.9494 28.2507 32.8794C28.0349 32.5375 27.4921 32.5376 27.2763 32.8794C27.2644 32.897 26.0678 34.6392 23.8803 34.6392C21.7125 34.6392 20.5322 32.9494 20.4843 32.8794C20.2685 32.5392 19.7281 32.5389 19.5108 32.878C19.5061 32.8848 19.0324 33.5702 18.1584 34.0803C17.8784 34.2438 17.7839 34.6033 17.9474 34.8833C18.1109 35.1632 18.4703 35.2577 18.7504 35.0944C19.2897 34.7795 19.7068 34.4136 19.9967 34.1152C20.6525 34.7913 21.9614 35.8134 23.8803 35.8134C25.7986 35.8134 27.1074 34.7918 27.7634 34.1157C28.4194 34.7918 29.7282 35.8134 31.6465 35.8134C34.4529 35.8134 35.9519 33.6271 36.0143 33.5341C36.1946 33.2654 36.1231 32.9028 35.8553 32.7217Z" fill="#222E48"></path></g><defs><clipPath id="clip0_19417_6002"><rect width="40" height="40" fill="white"></rect></clipPath></defs></svg>