<svg xmlns="http://www.w3.org/2000/svg" width="41" height="40" viewBox="0 0 41 40" fill="none"><rect x="0.400391" width="40" height="40" rx="4" fill="white"></rect><path d="M27.9004 14.75H10.6504V12.5C10.6504 12.3011 10.5714 12.1103 10.4307 11.9697C10.2901 11.829 10.0993 11.75 9.90039 11.75C9.70148 11.75 9.51071 11.829 9.37006 11.9697C9.22941 12.1103 9.15039 12.3011 9.15039 12.5V27.5C9.15039 27.6989 9.22941 27.8897 9.37006 28.0303C9.51071 28.171 9.70148 28.25 9.90039 28.25C10.0993 28.25 10.2901 28.171 10.4307 28.0303C10.5714 27.8897 10.6504 27.6989 10.6504 27.5V24.5H30.1504V27.5C30.1504 27.6989 30.2294 27.8897 30.3701 28.0303C30.5107 28.171 30.7015 28.25 30.9004 28.25C31.0993 28.25 31.2901 28.171 31.4307 28.0303C31.5714 27.8897 31.6504 27.6989 31.6504 27.5V18.5C31.6504 17.5054 31.2553 16.5516 30.552 15.8483C29.8488 15.1451 28.895 14.75 27.9004 14.75ZM10.6504 16.25H17.4004V23H10.6504V16.25Z" fill="#103C3B"></path></svg>