<svg xmlns="http://www.w3.org/2000/svg" width="41" height="40" viewBox="0 0 41 40" fill="none"><rect x="0.599609" width="40" height="40" rx="4" fill="white"></rect><path d="M16.8496 12.5V9.5C16.8496 9.30109 16.9286 9.11032 17.0693 8.96967C17.2099 8.82902 17.4007 8.75 17.5996 8.75C17.7985 8.75 17.9893 8.82902 18.1299 8.96967C18.2706 9.11032 18.3496 9.30109 18.3496 9.5V12.5C18.3496 12.6989 18.2706 12.8897 18.1299 13.0303C17.9893 13.171 17.7985 13.25 17.5996 13.25C17.4007 13.25 17.2099 13.171 17.0693 13.0303C16.9286 12.8897 16.8496 12.6989 16.8496 12.5ZM20.5996 13.25C20.7985 13.25 20.9893 13.171 21.1299 13.0303C21.2706 12.8897 21.3496 12.6989 21.3496 12.5V9.5C21.3496 9.30109 21.2706 9.11032 21.1299 8.96967C20.9893 8.82902 20.7985 8.75 20.5996 8.75C20.4007 8.75 20.2099 8.82902 20.0693 8.96967C19.9286 9.11032 19.8496 9.30109 19.8496 9.5V12.5C19.8496 12.6989 19.9286 12.8897 20.0693 13.0303C20.2099 13.171 20.4007 13.25 20.5996 13.25ZM23.5996 13.25C23.7985 13.25 23.9893 13.171 24.1299 13.0303C24.2706 12.8897 24.3496 12.6989 24.3496 12.5V9.5C24.3496 9.30109 24.2706 9.11032 24.1299 8.96967C23.9893 8.82902 23.7985 8.75 23.5996 8.75C23.4007 8.75 23.2099 8.82902 23.0693 8.96967C22.9286 9.11032 22.8496 9.30109 22.8496 9.5V12.5C22.8496 12.6989 22.9286 12.8897 23.0693 13.0303C23.2099 13.171 23.4007 13.25 23.5996 13.25ZM32.4496 16.55C32.3303 16.3909 32.1526 16.2857 31.9557 16.2575C31.7588 16.2294 31.5587 16.2807 31.3996 16.4L29.5996 17.75V16.25C29.5996 15.8522 29.4416 15.4706 29.1603 15.1893C28.879 14.908 28.4974 14.75 28.0996 14.75H13.0996C12.7018 14.75 12.3203 14.908 12.039 15.1893C11.7576 15.4706 11.5996 15.8522 11.5996 16.25V17.75L9.79961 16.4C9.64048 16.2807 9.44046 16.2294 9.24355 16.2575C9.04663 16.2857 8.86896 16.3909 8.74961 16.55C8.63027 16.7091 8.57902 16.9092 8.60715 17.1061C8.63528 17.303 8.74048 17.4807 8.89961 17.6L11.5996 19.625V25.25C11.5996 26.0456 11.9157 26.8087 12.4783 27.3713C13.0409 27.9339 13.804 28.25 14.5996 28.25H26.5996C27.3953 28.25 28.1583 27.9339 28.7209 27.3713C29.2835 26.8087 29.5996 26.0456 29.5996 25.25V19.625L32.2996 17.6C32.3784 17.5409 32.4448 17.4669 32.495 17.3821C32.5451 17.2974 32.5781 17.2036 32.5921 17.1061C32.606 17.0086 32.6006 16.9093 32.5761 16.8139C32.5517 16.7185 32.5087 16.6288 32.4496 16.55Z" fill="#103C3B"></path></svg>