<svg xmlns="http://www.w3.org/2000/svg" width="40" height="40" viewBox="0 0 40 40" fill="none"><rect width="40" height="40" rx="4" fill="white"></rect><path d="M31.25 19.25V23.75C31.25 24.1478 31.092 24.5294 30.8107 24.8107C30.5294 25.092 30.1478 25.25 29.75 25.25H29V26.75C29 26.9489 28.921 27.1397 28.7803 27.2803C28.6397 27.421 28.4489 27.5 28.25 27.5C28.0511 27.5 27.8603 27.421 27.7197 27.2803C27.579 27.1397 27.5 26.9489 27.5 26.75V25.25H12.5V26.75C12.5 26.9489 12.421 27.1397 12.2803 27.2803C12.1397 27.421 11.9489 27.5 11.75 27.5C11.5511 27.5 11.3603 27.421 11.2197 27.2803C11.079 27.1397 11 26.9489 11 26.75V25.25H10.25C9.85218 25.25 9.47064 25.092 9.18934 24.8107C8.90804 24.5294 8.75 24.1478 8.75 23.75V19.25C8.75 18.8522 8.90804 18.4706 9.18934 18.1893C9.47064 17.908 9.85218 17.75 10.25 17.75H11C11.3978 17.75 11.7794 17.908 12.0607 18.1893C12.342 18.4706 12.5 18.8522 12.5 19.25V20.75C12.5 20.9489 12.579 21.1397 12.7197 21.2803C12.8603 21.421 13.0511 21.5 13.25 21.5H26.75C26.9489 21.5 27.1397 21.421 27.2803 21.2803C27.421 21.1397 27.5 20.9489 27.5 20.75V19.25C27.5 18.8522 27.658 18.4706 27.9393 18.1893C28.2206 17.908 28.6022 17.75 29 17.75H29.75C30.1478 17.75 30.5294 17.908 30.8107 18.1893C31.092 18.4706 31.25 18.8522 31.25 19.25ZM26 19.25C26 18.4544 26.3161 17.6913 26.8787 17.1287C27.4413 16.5661 28.2044 16.25 29 16.25H30.125C30.2245 16.25 30.3198 16.2105 30.3902 16.1402C30.4605 16.0698 30.5 15.9745 30.5 15.875V14.75C30.5 14.3522 30.342 13.9706 30.0607 13.6893C29.7794 13.408 29.3978 13.25 29 13.25H21.125C21.0255 13.25 20.9302 13.2895 20.8598 13.3598C20.7895 13.4302 20.75 13.5255 20.75 13.625V20H26V19.25ZM9.875 16.25H11C11.7956 16.25 12.5587 16.5661 13.1213 17.1287C13.6839 17.6913 14 18.4544 14 19.25V20H19.25V13.625C19.25 13.5255 19.2105 13.4302 19.1402 13.3598C19.0698 13.2895 18.9745 13.25 18.875 13.25H11C10.6022 13.25 10.2206 13.408 9.93934 13.6893C9.65804 13.9706 9.5 14.3522 9.5 14.75V15.875C9.5 15.9745 9.53951 16.0698 9.60984 16.1402C9.68016 16.2105 9.77554 16.25 9.875 16.25Z" fill="#103C3B"></path></svg>