<svg xmlns="http://www.w3.org/2000/svg" width="40" height="40" viewBox="0 0 40 40" fill="none"><g clip-path="url(#clip0_19417_5960)"><path d="M37.0007 0H2.9993C1.34602 0 0 1.34602 0 2.9993V10V37.0007C0 38.654 1.34602 40 2.9993 40H37.0006C38.654 40 40 38.654 40 37.0007V10V2.9993C40 1.34602 38.654 0 37.0007 0ZM1.33336 2.9993C1.33336 2.08062 2.0807 1.33328 2.99937 1.33328H37.0007C37.9194 1.33328 38.6667 2.08062 38.6667 2.9993V9.33328H1.33336V2.9993ZM37.0007 38.6666H2.9993C2.08062 38.6666 1.33328 37.9193 1.33328 37.0006V10.6666H38.6666V37.0006C38.6666 37.9193 37.9193 38.6666 37.0007 38.6666Z" fill="#222E48"></path><path d="M16.664 2.66602H3.3307C2.96203 2.66602 2.66406 2.96398 2.66406 3.33266V7.33266C2.66406 7.70133 2.96203 7.9993 3.3307 7.9993H16.6641C17.0327 7.9993 17.3307 7.70133 17.3307 7.33266V3.33266C17.3307 2.96406 17.0327 2.66602 16.664 2.66602ZM15.9973 6.66602H3.99734V3.99938H15.9973V6.66602Z" fill="#222E48"></path><path d="M34.0026 2.66602C32.5319 2.66602 31.3359 3.86203 31.3359 5.33266C31.3359 6.80328 32.5319 7.99937 34.0026 7.99937C35.4733 7.99937 36.6692 6.80336 36.6692 5.33273C36.6692 3.86211 35.4733 2.66602 34.0026 2.66602ZM34.0026 6.66602C33.2673 6.66602 32.6692 6.06805 32.6692 5.33266C32.6692 4.59734 33.2672 3.9993 34.0026 3.9993C34.738 3.9993 35.3359 4.59727 35.3359 5.33266C35.3359 6.06805 34.7379 6.66602 34.0026 6.66602Z" fill="#222E48"></path><path d="M26.6666 2.66602C25.1959 2.66602 24 3.86203 24 5.33266C24 6.80328 25.196 7.9993 26.6666 7.9993C28.1373 7.9993 29.3333 6.80328 29.3333 5.33266C29.3333 3.86203 28.1373 2.66602 26.6666 2.66602ZM26.6666 6.66602C25.9313 6.66602 25.3333 6.06805 25.3333 5.33266C25.3333 4.59734 25.9312 3.9993 26.6666 3.9993C27.402 3.9993 28 4.59727 28 5.33266C28 6.06805 27.402 6.66602 26.6666 6.66602Z" fill="#222E48"></path><path d="M21.9973 3.33398H19.3307C18.962 3.33398 18.6641 3.63195 18.6641 4.00063C18.6641 4.3693 18.962 4.66727 19.3307 4.66727H21.9973C22.366 4.66727 22.664 4.3693 22.664 4.00063C22.664 3.63195 22.366 3.33398 21.9973 3.33398Z" fill="#222E48"></path><path d="M21.9973 6H19.3307C18.962 6 18.6641 6.29797 18.6641 6.66664C18.6641 7.03531 18.962 7.33328 19.3307 7.33328H21.9973C22.366 7.33328 22.664 7.03531 22.664 6.66664C22.664 6.29797 22.366 6 21.9973 6Z" fill="#222E48"></path><path d="M19.9974 13.334C13.7481 13.334 8.66406 18.418 8.66406 24.6673C8.66406 30.9167 13.7481 36.0006 19.9974 36.0006C26.2467 36.0006 31.3308 30.9166 31.3308 24.6673C31.3308 18.4179 26.2468 13.334 19.9974 13.334ZM19.9974 34.6673C14.4834 34.6673 9.99742 30.1812 9.99742 24.6673C9.99742 19.1533 14.4834 14.6673 19.9974 14.6673C25.5114 14.6673 29.9974 19.1533 29.9974 24.6673C29.9974 30.1812 25.5114 34.6673 19.9974 34.6673Z" fill="#222E48"></path><path d="M20.6666 17.3327C20.6666 16.964 20.3687 16.666 20 16.666C15.5887 16.666 12 20.2547 12 24.666C12 25.0347 12.298 25.3327 12.6666 25.3327C13.0353 25.3327 13.3333 25.0347 13.3333 24.666C13.3333 20.99 16.324 17.9994 19.9999 17.9994C20.3687 17.9993 20.6666 17.7013 20.6666 17.3327Z" fill="#222E48"></path><path d="M27.3359 24C26.9672 24 26.6692 24.298 26.6692 24.6666C26.6692 28.3427 23.6785 31.3333 20.0026 31.3333C19.6339 31.3333 19.3359 31.6312 19.3359 31.9999C19.3359 32.3686 19.6339 32.6666 20.0026 32.6666C24.4139 32.6666 28.0026 29.0779 28.0026 24.6666C28.0025 24.298 27.7045 24 27.3359 24Z" fill="#222E48"></path><path d="M9.33328 14.0006C9.33328 13.632 9.03531 13.334 8.66664 13.334H4.66664C4.29797 13.334 4 13.632 4 14.0006C4 14.3693 4.29797 14.6673 4.66664 14.6673H8.66664C9.03523 14.6673 9.33328 14.3693 9.33328 14.0006Z" fill="#222E48"></path><path d="M35.3307 34.666H31.3307C30.962 34.666 30.6641 34.964 30.6641 35.3327C30.6641 35.7013 30.962 35.9993 31.3307 35.9993H35.3307C35.6994 35.9993 35.9973 35.7013 35.9973 35.3327C35.9973 34.9641 35.6994 34.666 35.3307 34.666Z" fill="#222E48"></path><path d="M20.6692 28.6666C20.6692 28.298 20.3713 28 20.0026 28C18.1646 28 16.6692 26.5047 16.6692 24.6666C16.6692 24.298 16.3713 24 16.0026 24C15.6339 24 15.3359 24.298 15.3359 24.6666C15.3359 27.2393 17.4299 29.3333 20.0026 29.3333C20.3713 29.3334 20.6692 29.0353 20.6692 28.6666Z" fill="#222E48"></path><path d="M19.3359 20.6666C19.3359 21.0353 19.6339 21.3333 20.0026 21.3333C21.8405 21.3333 23.3359 22.8286 23.3359 24.6666C23.3359 25.0353 23.6339 25.3333 24.0026 25.3333C24.3713 25.3333 24.6692 25.0353 24.6692 24.6666C24.6692 22.094 22.5752 20 20.0026 20C19.6339 20 19.3359 20.298 19.3359 20.6666Z" fill="#222E48"></path></g><defs><clipPath id="clip0_19417_5960"><rect width="40" height="40" fill="white"></rect></clipPath></defs></svg>