<svg xmlns="http://www.w3.org/2000/svg" width="40" height="40" viewBox="0 0 40 40" fill="none"><path d="M28.6324 15.2558C28.7695 15.253 28.9019 15.2054 29.0094 15.1204C29.117 15.0353 29.1937 14.9174 29.2281 14.7847C29.2624 14.6519 29.2524 14.5116 29.1995 14.3851C29.1467 14.2586 29.0539 14.1528 28.9354 14.0839L27.2957 13.1771V9.76567C26.8987 0.118723 13.1003 0.11561 12.7019 9.76571V13.1771L11.0622 14.0839C10.9205 14.1658 10.8165 14.3001 10.7728 14.4579C10.729 14.6156 10.7488 14.7843 10.8281 14.9275C10.9073 15.0708 11.0396 15.1773 11.1965 15.224C11.3534 15.2708 11.5224 15.2541 11.6671 15.1777L12.7019 14.6054V27.0386C12.7033 28.2313 13.1776 29.3748 14.021 30.2182C14.8643 31.0616 16.0078 31.5361 17.2005 31.5375H22.7971C23.9898 31.5361 25.1333 31.0616 25.9766 30.2182C26.82 29.3748 27.2944 28.2314 27.2957 27.0386V14.6053C27.4675 14.6843 28.4283 15.2988 28.6324 15.2558ZM16.6396 16.2446C17.6305 15.5705 18.8015 15.2106 19.9999 15.2117C21.1984 15.2129 22.3687 15.575 23.3583 16.2509V24.7746C21.1611 25.3904 18.8368 25.3904 16.6396 24.7744V16.2446ZM23.9278 15.1312C22.759 14.3678 21.3933 13.961 19.9973 13.9603C18.6014 13.9597 17.2353 14.3652 16.0658 15.1274L14.1965 13.479C14.9154 12.6354 15.8033 11.952 16.8027 11.4728C17.8022 10.9936 18.891 10.7293 19.999 10.6971C21.1077 10.7252 22.1979 10.9876 23.1981 11.4668C24.1983 11.9461 25.0858 12.6314 25.8025 13.4779L23.9278 15.1312ZM15.3896 16.1978V24.9641L13.9519 26.2211V14.9301L15.3896 16.1978ZM16.1708 25.9413C18.6737 26.6819 21.3376 26.6807 23.8398 25.9378L25.2686 27.1043C21.8194 27.7874 18.2703 27.7933 14.8188 27.1216L16.1708 25.9413ZM24.6083 24.952V16.1978L26.0457 14.9302V26.1254L24.6083 24.952ZM19.9675 3.75004C20.7625 3.74288 21.551 3.89313 22.2875 4.19214C23.0241 4.49114 23.6942 4.93298 24.2593 5.49219C24.8243 6.0514 25.273 6.71691 25.5796 7.45036C25.8863 8.18382 26.0447 8.97071 26.0457 9.76567V11.9337C21.4417 7.98365 16.9479 9.25194 13.9519 11.9488V9.76569C13.9537 8.17078 14.588 6.64171 15.7158 5.51395C16.8436 4.38618 18.3726 3.75182 19.9675 3.75004ZM22.7971 30.2875H17.2005C16.556 30.2865 15.9264 30.094 15.3916 29.7343C14.8568 29.3747 14.441 28.8642 14.197 28.2678C18.0218 29.0843 21.9758 29.0844 25.8006 28.2681C25.5565 28.8645 25.1407 29.3749 24.6059 29.7344C24.0711 30.094 23.4416 30.2865 22.7971 30.2875Z" fill="#222E48"></path><path d="M10.7881 16.5366H10.2349L9.17597 13.7464C9.17934 13.7212 8.09233 10.9156 8.0925 10.8914C7.98889 10.678 7.82733 10.4981 7.6263 10.3723C7.42526 10.2464 7.19287 10.1797 6.95568 10.1797C6.7185 10.1797 6.48611 10.2465 6.28509 10.3723C6.08406 10.4982 5.92252 10.6781 5.81893 10.8915L3.67651 16.5366H3.12361C2.95946 16.539 2.80285 16.6059 2.68763 16.7229C2.5724 16.8398 2.50781 16.9974 2.50781 17.1616C2.50781 17.3257 2.5724 17.4833 2.68763 17.6003C2.80285 17.7172 2.95946 17.7841 3.12361 17.7866C3.5237 17.778 10.1678 17.7927 10.788 17.7866C10.9518 17.7835 11.1077 17.7162 11.2224 17.5994C11.3371 17.4825 11.4013 17.3253 11.4013 17.1616C11.4013 16.9978 11.3371 16.8406 11.2224 16.7238C11.1078 16.6069 10.9518 16.5397 10.7881 16.5366ZM7.68997 13.3536H6.22145L6.9557 11.4188L7.68997 13.3536ZM5.74707 14.6036H8.16437L8.89794 16.5366H5.01349L5.74707 14.6036Z" fill="#222E48"></path><path d="M10.7881 36.2494H10.2349L9.17597 33.4593C9.17934 33.4341 8.09233 30.6285 8.0925 30.6043C7.98889 30.3909 7.82733 30.211 7.6263 30.0852C7.42526 29.9593 7.19287 29.8926 6.95569 29.8926C6.71851 29.8926 6.48611 29.9593 6.28509 30.0852C6.08406 30.2111 5.92252 30.391 5.81893 30.6044L3.67651 36.2494H3.12361C2.95946 36.2519 2.80285 36.3188 2.68763 36.4357C2.5724 36.5527 2.50781 36.7103 2.50781 36.8744C2.50781 37.0386 2.5724 37.1962 2.68763 37.3131C2.80285 37.4301 2.95946 37.497 3.12361 37.4994C3.5237 37.4909 10.1678 37.5056 10.788 37.4994C10.9518 37.4963 11.1077 37.4291 11.2224 37.3123C11.3371 37.1954 11.4013 37.0382 11.4013 36.8745C11.4013 36.7107 11.3371 36.5535 11.2224 36.4367C11.1078 36.3198 10.9518 36.2526 10.7881 36.2494ZM7.68997 33.0665H6.22145L6.9557 31.1316L7.68997 33.0665ZM5.74707 34.3165H8.16437L8.89792 36.2494H5.01349L5.74707 34.3165Z" fill="#222E48"></path><path d="M36.874 36.2494H36.3211L35.2615 33.4575C35.2656 33.4354 34.1777 30.6254 34.1787 30.6043C34.0751 30.3909 33.9135 30.211 33.7125 30.0852C33.5114 29.9593 33.279 29.8926 33.0419 29.8926C32.8047 29.8926 32.5723 29.9593 32.3713 30.0852C32.1702 30.2111 32.0087 30.391 31.9051 30.6044L29.7628 36.2494H29.2095C29.0454 36.2519 28.8888 36.3188 28.7736 36.4357C28.6583 36.5527 28.5938 36.7102 28.5938 36.8744C28.5938 37.0386 28.6583 37.1962 28.7736 37.3131C28.8888 37.4301 29.0454 37.497 29.2095 37.4994C29.6095 37.4909 36.2539 37.5056 36.874 37.4994C37.0377 37.4963 37.1937 37.4291 37.3083 37.3122C37.423 37.1954 37.4872 37.0382 37.4873 36.8744C37.4873 36.7107 37.423 36.5535 37.3083 36.4366C37.1937 36.3197 37.0377 36.2525 36.874 36.2494ZM33.0419 31.1316L33.7762 33.0664H32.3077L33.0419 31.1316ZM31.8333 34.3164H34.2506L34.9841 36.2494H31.0997L31.8333 34.3164Z" fill="#222E48"></path><path d="M29.2064 17.7847C29.6059 17.7772 36.2508 17.7901 36.8705 17.7847C37.0363 17.7847 37.1953 17.7189 37.3125 17.6017C37.4297 17.4844 37.4955 17.3255 37.4955 17.1597C37.4955 16.994 37.4297 16.835 37.3125 16.7178C37.1953 16.6006 37.0363 16.5347 36.8705 16.5347H36.3176C35.7816 15.1251 34.7113 12.2999 34.1752 10.8896C34.0717 10.6762 33.9101 10.4963 33.7091 10.3704C33.508 10.2445 33.2756 10.1777 33.0384 10.1777C32.8012 10.1777 32.5688 10.2445 32.3678 10.3704C32.1668 10.4963 32.0052 10.6762 31.9017 10.8896L29.7593 16.5347H29.2064C29.0428 16.538 28.887 16.6053 28.7724 16.7221C28.6579 16.839 28.5938 16.9961 28.5938 17.1597C28.5938 17.3233 28.6579 17.4805 28.7724 17.5973C28.887 17.7142 29.0428 17.7814 29.2064 17.7847ZM33.7727 13.3518H32.3042L33.0385 11.4169L33.7727 13.3518ZM31.8298 14.6018H34.2471L34.9807 16.5347H31.0963L31.8298 14.6018Z" fill="#222E48"></path><path d="M20.6868 35.1823L20.6243 35.2515V33.0546C20.6212 32.8909 20.554 32.735 20.4371 32.6203C20.3202 32.5056 20.163 32.4414 19.9993 32.4414C19.8355 32.4414 19.6783 32.5057 19.5615 32.6203C19.4446 32.735 19.3774 32.891 19.3743 33.0547V35.2519C19.3257 35.1817 19.2633 35.1222 19.191 35.077C19.1186 35.0318 19.0378 35.0018 18.9534 34.9888C18.8691 34.9759 18.783 34.9803 18.7004 35.0017C18.6178 35.0232 18.5405 35.0612 18.4731 35.1136C18.4057 35.1659 18.3497 35.2315 18.3085 35.3062C18.2673 35.3809 18.2418 35.4632 18.2335 35.5482C18.2251 35.6331 18.2342 35.7188 18.2602 35.8001C18.2861 35.8814 18.3283 35.9566 18.3843 36.021L19.5357 37.2947C19.5946 37.3589 19.6663 37.4102 19.7461 37.4452C19.8259 37.4803 19.9121 37.4984 19.9993 37.4984C20.0864 37.4984 20.1726 37.4803 20.2524 37.4452C20.3322 37.4102 20.4039 37.3589 20.4628 37.2947L21.6139 36.0209C21.7212 35.8974 21.7758 35.7367 21.766 35.5734C21.7561 35.4101 21.6826 35.2571 21.5613 35.1474C21.44 35.0376 21.2804 34.9798 21.1169 34.9863C20.9534 34.9929 20.799 35.0632 20.6868 35.1823Z" fill="#222E48"></path><path d="M6.95666 20.6505C7.12133 20.6442 7.27716 20.5744 7.39143 20.4556C7.50571 20.3369 7.56954 20.1785 7.56954 20.0137C7.56953 19.8489 7.50569 19.6905 7.39141 19.5718C7.27713 19.4531 7.1213 19.3832 6.95662 19.377C6.79195 19.3833 6.63613 19.4531 6.52185 19.5718C6.40758 19.6906 6.34375 19.849 6.34375 20.0138C6.34375 20.1785 6.4076 20.3369 6.52188 20.4557C6.63616 20.5744 6.79199 20.6442 6.95666 20.6505Z" fill="#222E48"></path><path d="M6.95668 23.1974C7.12136 23.1911 7.27719 23.1213 7.39147 23.0025C7.50574 22.8838 7.56958 22.7254 7.56957 22.5606C7.56957 22.3958 7.50572 22.2374 7.39144 22.1187C7.27716 22 7.12132 21.9301 6.95664 21.9238C6.79197 21.9301 6.63614 22 6.52186 22.1187C6.40758 22.2375 6.34375 22.3959 6.34375 22.5606C6.34375 22.7254 6.4076 22.8838 6.52188 23.0026C6.63617 23.1213 6.792 23.1911 6.95668 23.1974Z" fill="#222E48"></path><path d="M6.95666 25.7443C7.12133 25.738 7.27716 25.6681 7.39143 25.5494C7.50571 25.4306 7.56954 25.2723 7.56954 25.1075C7.56953 24.9427 7.50569 24.7843 7.39141 24.6656C7.27713 24.5468 7.1213 24.477 6.95662 24.4707C6.79195 24.477 6.63613 24.5469 6.52185 24.6656C6.40758 24.7843 6.34375 24.9427 6.34375 25.1075C6.34375 25.2723 6.4076 25.4307 6.52188 25.5494C6.63616 25.6681 6.79199 25.738 6.95666 25.7443Z" fill="#222E48"></path><path d="M6.95668 28.2912C7.12136 28.2849 7.27719 28.215 7.39147 28.0963C7.50574 27.9776 7.56958 27.8192 7.56957 27.6544C7.56957 27.4896 7.50572 27.3312 7.39144 27.2124C7.27716 27.0937 7.12132 27.0239 6.95664 27.0176C6.79197 27.0239 6.63614 27.0937 6.52186 27.2125C6.40758 27.3312 6.34375 27.4896 6.34375 27.6544C6.34375 27.8192 6.4076 27.9776 6.52188 28.0963C6.63617 28.215 6.792 28.2849 6.95668 28.2912Z" fill="#222E48"></path><path d="M33.0426 19.377C32.878 19.3832 32.7221 19.4531 32.6078 19.5718C32.4935 19.6906 32.4297 19.849 32.4297 20.0138C32.4297 20.1786 32.4935 20.337 32.6078 20.4557C32.7221 20.5744 32.878 20.6443 33.0427 20.6505C33.2074 20.6442 33.3632 20.5744 33.4775 20.4557C33.5918 20.3369 33.6556 20.1785 33.6556 20.0137C33.6556 19.8489 33.5918 19.6905 33.4775 19.5718C33.3632 19.4531 33.2073 19.3832 33.0426 19.377Z" fill="#222E48"></path><path d="M33.0427 21.9238C32.878 21.9301 32.7221 22 32.6078 22.1187C32.4935 22.2374 32.4297 22.3958 32.4297 22.5607C32.4297 22.7255 32.4935 22.8839 32.6079 23.0026C32.7222 23.1213 32.878 23.1912 33.0427 23.1974C33.2074 23.1912 33.3632 23.1213 33.4775 23.0026C33.5918 22.8838 33.6557 22.7254 33.6557 22.5606C33.6557 22.3958 33.5918 22.2374 33.4775 22.1187C33.3632 21.9999 33.2074 21.9301 33.0427 21.9238Z" fill="#222E48"></path><path d="M33.0426 24.4707C32.878 24.477 32.7221 24.5468 32.6078 24.6656C32.4935 24.7843 32.4297 24.9427 32.4297 25.1075C32.4297 25.2723 32.4935 25.4307 32.6078 25.5494C32.7221 25.6682 32.878 25.738 33.0427 25.7443C33.2074 25.738 33.3632 25.6682 33.4775 25.5494C33.5918 25.4307 33.6556 25.2723 33.6556 25.1075C33.6556 24.9427 33.5918 24.7843 33.4775 24.6655C33.3632 24.5468 33.2073 24.477 33.0426 24.4707Z" fill="#222E48"></path><path d="M33.0427 27.0176C32.878 27.0239 32.7221 27.0937 32.6078 27.2124C32.4935 27.3312 32.4297 27.4896 32.4297 27.6544C32.4297 27.8192 32.4935 27.9776 32.6079 28.0963C32.7222 28.2151 32.878 28.2849 33.0427 28.2912C33.2074 28.2849 33.3632 28.2151 33.4775 28.0963C33.5918 27.9776 33.6557 27.8192 33.6557 27.6544C33.6557 27.4896 33.5918 27.3312 33.4775 27.2124C33.3632 27.0937 33.2074 27.0239 33.0427 27.0176Z" fill="#222E48"></path></svg>