<svg xmlns="http://www.w3.org/2000/svg" width="40" height="40" viewBox="0 0 40 40" fill="none"><path d="M20.1104 5.20016C19.4068 4.63048 19.2844 3.61946 19.832 2.89837L20.4653 2.06438C20.6616 1.80587 20.6111 1.4372 20.3526 1.24079C20.0942 1.04446 19.7254 1.09493 19.529 1.35345L18.8958 2.18743C17.9619 3.41727 18.1704 5.1418 19.3707 6.1136C20.0292 6.64688 20.1826 7.5879 19.7275 8.30266L18.832 9.70907C18.5809 10.1035 18.8702 10.6126 19.3272 10.6126C19.5215 10.6126 19.7115 10.5163 19.8236 10.3404L20.7191 8.93399C21.4953 7.71501 21.2336 6.10969 20.1104 5.20016Z" fill="#222E48"></path><path d="M22.8915 5.20016C22.1879 4.6304 22.0657 3.61946 22.6133 2.89837L23.2465 2.06438C23.4429 1.80587 23.3924 1.4372 23.1339 1.24079C22.8754 1.04446 22.5067 1.09493 22.3103 1.35345L21.677 2.18743C20.7432 3.4172 20.9517 5.14173 22.1519 6.11352C22.8104 6.64673 22.9637 7.58782 22.5087 8.30259L21.6132 9.70899C21.4388 9.98282 21.5195 10.3461 21.7933 10.5205C22.0659 10.6941 22.4297 10.6153 22.6047 10.3404L23.5002 8.93399C24.2765 7.71485 24.0148 6.10954 22.8915 5.20016Z" fill="#222E48"></path><path d="M39.4123 18.0313H37.2446V16.2838C37.2446 15.3363 36.4735 14.5652 35.5252 14.5652H34.6076C33.6602 14.5652 32.889 15.3363 32.889 16.2838V18.0313H29.4808C29.4688 17.6287 29.4671 17.309 29.3515 16.7657C29.0516 15.3424 28.1735 14.061 27.4174 13.4939C26.3799 12.5932 25.0227 12.0488 23.5367 12.0488H18.8778C15.3881 12.0488 12.4972 14.6608 12.0576 18.0313H7.20742C7.20742 17.5029 7.20742 16.5091 7.20742 15.9813C7.20742 15.2007 6.57187 14.5652 5.79133 14.5652C5.4357 14.5652 4.61383 14.5652 4.26789 14.5652C3.48734 14.5652 2.8518 15.2007 2.8518 15.9813C2.8518 16.5091 2.8518 17.5029 2.8518 18.0313H0.587734C0.263281 18.0313 0 18.2946 0 18.6191C0 18.9443 0.263281 19.2068 0.587734 19.2068H2.85172V21.4708C2.85172 21.7952 3.115 22.0585 3.43945 22.0585C3.76391 22.0585 4.02719 21.7952 4.02719 21.4708V16.2837C4.02719 15.9843 4.27094 15.7406 4.57023 15.7406H5.48867C5.78805 15.7406 6.03172 15.9844 6.03172 16.2837V18.0312C5.76445 18.0473 5.56977 17.9828 5.35227 18.1284C4.9975 18.3614 5.00086 18.8805 5.35227 19.1096C5.57 19.2554 5.76297 19.1906 6.03172 19.2068V32.7878C6.03172 33.088 5.78797 33.3316 5.48867 33.3316H4.57039C4.27102 33.3316 4.02734 33.0879 4.02734 32.7878V23.8219C4.02734 23.4974 3.76406 23.2341 3.43961 23.2341C3.11516 23.2341 2.85188 23.4974 2.85188 23.8219V32.0073H2.34016C1.60586 32.0073 1.00945 32.6037 1.00945 33.338V37.7892C1.00945 38.3903 1.49844 38.8793 2.10031 38.8793H7.83359C8.43469 38.8793 8.92445 38.3903 8.92445 37.7892V33.338C8.92445 32.6037 8.32727 32.0073 7.59375 32.0073H7.20742V19.2069H11.9987V19.9952C11.9987 22.2154 13.8059 24.0225 16.0268 24.0225C25.7423 23.9674 25.6324 24.1518 26.6244 23.8493H26.6298L26.7192 23.8195C28.3712 23.2725 29.4809 21.7358 29.4809 19.9952V19.2069H32.8891V32.0073H32.4392C31.7057 32.0073 31.1085 32.6037 31.1085 33.338V37.7892C31.1085 38.3903 31.5983 38.8793 32.1994 38.8793H37.9327C38.5345 38.8793 39.0235 38.3903 39.0235 37.7892V33.338C39.0235 32.6037 38.4271 32.0073 37.6936 32.0073H37.2445V29.2472C37.2445 28.9227 36.9813 28.6595 36.6568 28.6595C36.3323 28.6595 36.0691 28.9227 36.0691 29.2472C36.0674 33.3529 36.0727 33.088 36.0652 33.1358C36.0621 33.1436 36.0545 33.2102 35.9907 33.2682C35.9701 33.2888 35.9289 33.3133 35.8959 33.3215C35.848 33.3384 34.2777 33.332 34.2651 33.3277C34.2581 33.3277 34.234 33.3226 34.2149 33.3136C34.1529 33.2929 34.0902 33.2216 34.0755 33.1623C34.0695 33.1424 34.0687 33.136 34.0684 33.1357C34.0623 33.0971 34.0655 26.8074 34.0645 16.2837C34.0645 15.9843 34.3083 15.7406 34.6076 15.7406H35.5252C35.8254 15.7406 36.0691 15.9844 36.0691 16.2837V18.0391C35.7877 18.083 35.5722 18.3259 35.5722 18.619C35.5722 18.9129 35.7877 19.1558 36.0691 19.1997V26.8961C36.0691 27.2205 36.3323 27.4838 36.6568 27.4838C36.9813 27.4838 37.2445 27.2205 37.2445 26.8961V19.2067H39.4122C39.7366 19.2067 39.9999 18.9442 39.9999 18.619C40 18.2947 39.7367 18.0313 39.4123 18.0313ZM7.74891 37.7038H2.18484V35.7555H7.74891V37.7038ZM7.59375 33.1828C7.67914 33.1828 7.74891 33.2518 7.74891 33.338V34.5801H2.18484V33.338C2.18484 33.2518 2.25383 33.1828 2.34 33.1828H2.85484C2.90266 33.921 3.51859 34.5072 4.26781 34.5072C4.62383 34.5072 5.44523 34.5072 5.79125 34.5072C6.54047 34.5072 7.15641 33.921 7.20422 33.1828H7.59375ZM25.0602 14.4343C24.3995 18.6583 24.3713 21.481 24.9763 22.847H16.0268C14.454 22.847 13.1742 21.5672 13.1742 19.9952C13.1873 19.1024 13.1375 18.7093 13.2448 18.0312C13.6758 15.3112 16.0377 13.2242 18.8778 13.2242C23.1022 13.3201 23.9915 12.9763 25.4614 13.6286C25.2537 13.8419 25.1095 14.1193 25.0602 14.4343ZM27.6956 19.2069H28.3053V19.9952C28.3053 21.2452 27.4973 22.3123 26.3948 22.6879L26.394 22.6887C26.3181 22.6861 26.2772 22.7088 26.184 22.5994C25.6887 22.021 25.4387 19.6198 26.2216 14.6162C26.2579 14.3867 26.5345 14.2761 26.7075 14.4312C28.3518 15.897 28.3035 18.0235 28.3054 18.0314H27.622C27.217 16.9801 26.282 17.4948 26.282 18.7438C26.2819 20.1489 27.4012 20.5248 27.6956 19.2069ZM37.848 37.7038H32.284V35.7555H37.848V37.7038ZM34.3051 34.5072H35.8285C36.1888 34.5072 36.4609 34.3848 36.7164 34.193C36.9723 34.0102 37.2115 33.6178 37.2415 33.1828H37.6937C37.7791 33.1828 37.848 33.2518 37.848 33.338V34.5801H32.284V33.338C32.284 33.2518 32.3538 33.1828 32.4391 33.1828H32.8921C32.9445 33.9423 33.5738 34.5072 34.3051 34.5072Z" fill="#222E48"></path><path d="M23.6719 18.9177H22.8725C22.8748 18.2688 22.9172 17.6818 22.9791 17.167H23.6718C23.9963 17.167 24.2595 16.9037 24.2595 16.5792C24.2595 16.2548 23.9963 15.9915 23.6718 15.9915H23.1741C23.3434 15.2024 23.5213 14.7549 23.5284 14.7376C23.653 14.4382 23.5111 14.095 23.2118 13.9704C22.9124 13.845 22.5684 13.9869 22.443 14.2862C22.4203 14.3418 22.1734 14.9484 21.9689 15.9914H20.4603C20.6437 15.0189 20.8663 14.4625 20.8733 14.4445C20.9979 14.1451 20.856 13.8011 20.5575 13.6765C20.2573 13.5511 19.9134 13.693 19.7888 13.9923C19.7629 14.0534 19.4722 14.7689 19.2598 15.9914H17.6352C17.8069 15.1827 17.9895 14.7235 17.9965 14.7062C18.1203 14.4068 17.9792 14.0636 17.6798 13.939C17.3805 13.8136 17.0357 13.9555 16.9111 14.2548C16.8876 14.3112 16.636 14.9288 16.4307 15.9914H15.3305C15.006 15.9914 14.7427 16.2547 14.7427 16.5792C14.7427 16.9036 15.006 17.1669 15.3305 17.1669H16.2544C16.1972 17.6912 16.1603 18.2758 16.1603 18.9176H15.3304C15.1184 18.9176 14.9339 19.0302 14.832 19.195C14.5911 19.5744 14.8611 20.0931 15.3304 20.0931H16.2026C16.2473 20.7247 16.3288 21.3963 16.4596 22.1047C16.5121 22.3876 16.759 22.5859 17.0372 22.5859C17.4052 22.5859 17.682 22.2513 17.6155 21.8908C17.4988 21.26 17.4251 20.6596 17.3836 20.0931H19.1006C19.1484 20.6479 19.2237 21.231 19.3373 21.843C19.3898 22.1259 19.6366 22.3234 19.9141 22.3234C20.2838 22.3234 20.5595 21.989 20.4932 21.6283C20.3937 21.0946 20.3255 20.5814 20.2816 20.0931H21.733C21.7761 20.7333 21.8584 21.4159 21.9923 22.1361C22.0441 22.419 22.2917 22.6173 22.5691 22.6173C22.9381 22.6173 23.2148 22.2828 23.1475 21.9222C23.0284 21.2796 22.9547 20.6683 22.9132 20.0932H23.6718C23.9963 20.0932 24.2595 19.8307 24.2595 19.5054C24.2596 19.181 23.9963 18.9177 23.6719 18.9177ZM19.0412 18.9177H17.3406C17.3406 18.2696 17.3822 17.6826 17.4433 17.167H19.1055C19.0569 17.6952 19.031 18.2806 19.0412 18.9177ZM21.6931 18.9177H20.2198C20.2097 18.2751 20.2395 17.6881 20.292 17.167H21.7903C21.7315 17.6905 21.6939 18.2759 21.6931 18.9177Z" fill="#222E48"></path><path d="M26.3431 32.4832H24.192C25.0261 31.2636 24.9217 30.2606 24.9333 29.2858C24.9395 28.6354 24.9459 28.0735 24.8769 27.4418C24.8158 26.8831 24.1713 26.614 23.7296 26.9473L22.221 27.9896L21.0487 24.6621C20.8363 24.0581 19.9776 24.0578 19.765 24.6621L18.5934 27.988C17.0611 26.9682 17.0152 26.8 16.6515 26.8C16.2848 26.8 15.9775 27.075 15.9376 27.4394C15.8419 28.3234 15.8906 29.0875 15.8851 30.1266C15.8851 30.9871 16.1586 31.7989 16.6248 32.4831H13.6587C12.8131 32.4831 12.125 33.1711 12.125 34.0168C12.125 35.3632 12.125 36.9232 12.125 37.461C12.125 38.2235 12.7457 38.8434 13.5082 38.8434H23.5251C23.8495 38.8434 24.1128 38.5809 24.1128 38.2557C24.1128 38.0989 24.0509 37.9555 23.9506 37.8513C23.8441 37.7384 23.6928 37.6679 23.5251 37.6679H13.5082C13.3938 37.6679 13.3005 37.5754 13.3005 37.4611V36.0865C13.3005 35.9721 13.3938 35.8789 13.5082 35.8789H26.4936C26.608 35.8789 26.7013 35.9721 26.7013 36.0865V37.4611C26.7013 37.5755 26.608 37.6679 26.4936 37.6679H25.8761C25.7084 37.6679 25.5571 37.7385 25.4505 37.8513C25.3502 37.9555 25.2884 38.0989 25.2884 38.2557C25.2884 38.5809 25.5516 38.8434 25.8761 38.8434H26.4936C27.2561 38.8434 27.8768 38.2235 27.8768 37.461C27.8768 36.9066 27.8768 35.2954 27.8768 34.0168C27.8767 33.1712 27.1887 32.4832 26.3431 32.4832ZM17.0574 28.3556C18.4143 29.262 18.4484 29.4025 18.8034 29.4025C19.1396 29.4025 19.4335 29.1831 19.5307 28.865L20.4069 26.3776L21.2838 28.8665C21.4429 29.3875 22.0844 29.5732 22.4946 29.2293L23.7579 28.3571C23.7688 28.8618 23.7495 29.5468 23.754 30.1282C23.754 31.0577 23.3167 31.9001 22.6247 32.4832C21.374 33.5389 19.5189 33.6089 18.2024 32.4832C17.5113 31.8923 17.0606 31.0412 17.0606 30.1298C17.0654 29.5081 17.0445 28.9031 17.0574 28.3556ZM26.7013 34.7189H13.3005V34.0168C13.3005 33.8193 13.4611 33.6586 13.6586 33.6586H17.7885C19.3822 34.7727 21.4579 34.7261 23.014 33.6586H26.343C26.5405 33.6586 26.7012 33.8193 26.7012 34.0168V34.7189H26.7013Z" fill="#222E48"></path></svg>