<svg xmlns="http://www.w3.org/2000/svg" width="40" height="40" viewBox="0 0 40 40" fill="none"><path d="M10.625 20H5.625C5.12772 20 4.65081 20.1975 4.29917 20.5492C3.94754 20.9008 3.75 21.3777 3.75 21.875C3.75 22.3723 3.94754 22.8492 4.29917 23.2008C4.65081 23.5525 5.12772 23.75 5.625 23.75H10.625C11.1223 23.75 11.5992 23.5525 11.9508 23.2008C12.3025 22.8492 12.5 22.3723 12.5 21.875C12.5 21.3777 12.3025 20.9008 11.9508 20.5492C11.5992 20.1975 11.1223 20 10.625 20ZM10.625 22.5H5.625C5.45924 22.5 5.30027 22.4342 5.18306 22.3169C5.06585 22.1997 5 22.0408 5 21.875C5 21.7092 5.06585 21.5503 5.18306 21.4331C5.30027 21.3158 5.45924 21.25 5.625 21.25H10.625C10.7908 21.25 10.9497 21.3158 11.0669 21.4331C11.1842 21.5503 11.25 21.7092 11.25 21.875C11.25 22.0408 11.1842 22.1997 11.0669 22.3169C10.9497 22.4342 10.7908 22.5 10.625 22.5Z" fill="#222E48"></path><path d="M26.2825 11.9066L27.1663 12.7903C27.7523 12.2045 28.547 11.8754 29.3756 11.8754C30.2043 11.8754 30.999 12.2045 31.585 12.7903L32.4688 11.9066C32.0625 11.5003 31.5802 11.178 31.0493 10.9581C30.5185 10.7382 29.9496 10.625 29.375 10.625C28.8004 10.625 28.2315 10.7382 27.7007 10.9581C27.1698 11.178 26.6875 11.5003 26.2812 11.9066H26.2825Z" fill="#222E48"></path><path d="M24.5156 10.1393L25.3994 11.0231C26.4551 9.96971 27.8855 9.37812 29.3769 9.37812C30.8682 9.37812 32.2987 9.96971 33.3544 11.0231L34.2381 10.1393C32.9478 8.85193 31.1996 8.12891 29.3769 8.12891C27.5542 8.12891 25.8059 8.85193 24.5156 10.1393Z" fill="#222E48"></path><path d="M35.1198 9.25425L36.0036 8.3705C34.2455 6.61257 31.8611 5.625 29.3748 5.625C26.8886 5.625 24.5042 6.61257 22.7461 8.3705L23.6298 9.25425C25.1536 7.73066 27.2201 6.87473 29.3748 6.87473C31.5296 6.87473 33.5961 7.73066 35.1198 9.25425Z" fill="#222E48"></path><path d="M29.375 15.625C30.0654 15.625 30.625 15.0654 30.625 14.375C30.625 13.6846 30.0654 13.125 29.375 13.125C28.6846 13.125 28.125 13.6846 28.125 14.375C28.125 15.0654 28.6846 15.625 29.375 15.625Z" fill="#222E48"></path><path d="M38.75 10.625C38.75 8.1386 37.7623 5.75403 36.0041 3.99587C34.246 2.23772 31.8614 1.25 29.375 1.25C26.8886 1.25 24.504 2.23772 22.7459 3.99587C20.9877 5.75403 20 8.1386 20 10.625C20.0011 11.4705 20.1189 12.3117 20.35 13.125H3.125C2.62818 13.1265 2.15212 13.3245 1.80081 13.6758C1.4495 14.0271 1.25148 14.5032 1.25 15V33.125C1.25148 33.6218 1.4495 34.0979 1.80081 34.4492C2.15212 34.8005 2.62818 34.9985 3.125 35H36.875C37.3718 34.9985 37.8479 34.8005 38.1992 34.4492C38.5505 34.0979 38.7485 33.6218 38.75 33.125V15C38.7464 14.5164 38.5561 14.0528 38.2188 13.7063C38.5679 12.7164 38.7475 11.6747 38.75 10.625ZM5.625 14.375H20.7875C21.3116 15.5588 22.0732 16.6224 23.025 17.5H7.5C7.00318 17.4985 6.52712 17.3005 6.17581 16.9492C5.8245 16.5979 5.62648 16.1218 5.625 15.625V14.375ZM8.125 33.75H5V31.25C5.00148 30.7532 5.1995 30.2771 5.55081 29.9258C5.90212 29.5745 6.37818 29.3765 6.875 29.375H8.125V33.75ZM11.875 33.75H9.375V29.375H11.875V33.75ZM15.625 33.75H13.125V29.375H15.625V33.75ZM19.375 33.75H16.875V29.375H19.375V33.75ZM23.125 33.75H20.625V29.375H23.125V33.75ZM26.875 33.75H24.375V29.375H26.875V33.75ZM30.625 33.75H28.125V29.375H30.625V33.75ZM35 33.75H31.875V29.375H33.125C33.6218 29.3765 34.0979 29.5745 34.4492 29.9258C34.8005 30.2771 34.9985 30.7532 35 31.25V33.75ZM37.5 33.125C37.5 33.2908 37.4342 33.4497 37.3169 33.5669C37.1997 33.6842 37.0408 33.75 36.875 33.75H36.25V31.25C36.25 30.4212 35.9208 29.6263 35.3347 29.0403C34.7487 28.4542 33.9538 28.125 33.125 28.125H6.875C6.0462 28.125 5.25134 28.4542 4.66529 29.0403C4.07924 29.6263 3.75 30.4212 3.75 31.25V33.75H3.125C2.95924 33.75 2.80027 33.6842 2.68306 33.5669C2.56585 33.4497 2.5 33.2908 2.5 33.125V15C2.5 14.8342 2.56585 14.6753 2.68306 14.5581C2.80027 14.4408 2.95924 14.375 3.125 14.375H4.375V15.625C4.375 16.4538 4.70424 17.2487 5.29029 17.8347C5.87634 18.4208 6.6712 18.75 7.5 18.75H24.7188C26.1336 19.5696 27.7399 20.0008 29.375 20C31.0247 19.9979 32.6447 19.5605 34.0713 18.732C35.4979 17.9034 36.6806 16.7131 37.5 15.2812V33.125ZM29.375 18.75C27.768 18.75 26.1971 18.2735 24.861 17.3807C23.5248 16.4879 22.4834 15.219 21.8685 13.7343C21.2535 12.2497 21.0926 10.616 21.4061 9.03989C21.7196 7.4638 22.4935 6.01606 23.6298 4.87976C24.7661 3.74346 26.2138 2.96962 27.7899 2.65612C29.366 2.34261 30.9997 2.50352 32.4843 3.11848C33.969 3.73344 35.2379 4.77484 36.1307 6.11099C37.0235 7.44714 37.5 9.01803 37.5 10.625C37.498 12.7793 36.6413 14.8447 35.118 16.368C33.5947 17.8914 31.5293 18.748 29.375 18.75Z" fill="#222E48"></path></svg>