<svg xmlns="http://www.w3.org/2000/svg" width="41" height="40" viewBox="0 0 41 40" fill="none"><rect x="0.199219" width="40" height="40" rx="4" fill="white"></rect><path d="M29.9492 17H28.4492C28.4492 16.8011 28.3702 16.6104 28.2295 16.4697C28.0889 16.3291 27.8981 16.25 27.6992 16.25H20.9492C20.7503 16.25 20.5595 16.3291 20.4189 16.4697C20.2782 16.6104 20.1992 16.8011 20.1992 17H14.1992V12.875C14.1992 12.5767 14.3177 12.2905 14.5287 12.0795C14.7397 11.8686 15.0259 11.75 15.3242 11.75C15.5879 11.749 15.8441 11.8373 16.0512 12.0005C16.2582 12.1638 16.4038 12.3924 16.4642 12.6491C16.5054 12.8424 16.6212 13.0116 16.7865 13.1199C16.9518 13.2283 17.1531 13.2671 17.3468 13.2278C17.5405 13.1885 17.7108 13.0744 17.8208 12.9102C17.9308 12.746 17.9716 12.545 17.9342 12.351C17.8069 11.7542 17.4778 11.2195 17.0025 10.8368C16.5271 10.4542 15.9344 10.2469 15.3242 10.25C14.628 10.25 13.9603 10.5266 13.4681 11.0189C12.9758 11.5112 12.6992 12.1788 12.6992 12.875V17H10.4492C10.0514 17 9.66986 17.1581 9.38856 17.4394C9.10725 17.7207 8.94922 18.1022 8.94922 18.5V21.5C8.95071 22.892 9.50431 24.2265 10.4886 25.2107C11.4728 26.1949 12.8073 26.7485 14.1992 26.75V28.25C14.1992 28.4489 14.2782 28.6397 14.4189 28.7804C14.5595 28.921 14.7503 29 14.9492 29C15.1481 29 15.3389 28.921 15.4795 28.7804C15.6202 28.6397 15.6992 28.4489 15.6992 28.25V26.75H24.6992V28.25C24.6992 28.4489 24.7782 28.6397 24.9189 28.7804C25.0595 28.921 25.2503 29 25.4492 29C25.6481 29 25.8389 28.921 25.9795 28.7804C26.1202 28.6397 26.1992 28.4489 26.1992 28.25V26.75C27.5911 26.7485 28.9256 26.1949 29.9099 25.2107C30.8941 24.2265 31.4477 22.892 31.4492 21.5V18.5C31.4492 18.1022 31.2912 17.7207 31.0099 17.4394C30.7286 17.1581 30.347 17 29.9492 17ZM26.9492 21.5H21.6992V17.75H26.9492V21.5Z" fill="#103C3B"></path></svg>