<svg xmlns="http://www.w3.org/2000/svg" width="20" height="20" viewBox="0 0 20 20" fill="none"><path d="M11.8594 5.50098C11.8754 5.49891 11.8916 5.4998 11.9072 5.50391C13.2312 5.8577 14.1422 6.76791 14.4961 8.0918V8.09277C14.5003 8.10858 14.5012 8.12538 14.499 8.1416C14.4969 8.15777 14.4916 8.17337 14.4834 8.1875C14.4752 8.2017 14.4642 8.21462 14.4512 8.22461C14.4384 8.23432 14.4237 8.24088 14.4082 8.24512C14.397 8.24794 14.3856 8.24897 14.374 8.24902C14.3468 8.2488 14.3204 8.24021 14.2988 8.22363C14.2881 8.21535 14.2789 8.20545 14.2715 8.19434L14.2539 8.15723L14.1855 7.92773C13.8152 6.80531 13.015 6.05891 11.8428 5.74609C11.8272 5.7419 11.8127 5.73435 11.7998 5.72461C11.7868 5.71467 11.7758 5.70162 11.7676 5.6875C11.7594 5.67337 11.7532 5.65779 11.751 5.6416C11.7488 5.62536 11.7507 5.60861 11.7549 5.59277C11.7591 5.57691 11.7664 5.56187 11.7764 5.54883C11.7863 5.5359 11.7984 5.52479 11.8125 5.5166C11.8267 5.50838 11.8431 5.50313 11.8594 5.50098ZM12.4834 3.00098C12.4997 2.99883 12.5164 2.99966 12.5322 3.00391L12.5352 3.00488C13.6078 3.28475 14.5872 3.84504 15.3711 4.62891C16.1548 5.41264 16.7152 6.39144 16.9951 7.46387V7.46484L16.9961 7.46777C17.0003 7.48358 17.0012 7.50038 16.999 7.5166C16.9969 7.53277 16.9916 7.54837 16.9834 7.5625C16.9752 7.5767 16.9642 7.58962 16.9512 7.59961C16.9384 7.60932 16.9237 7.61588 16.9082 7.62012C16.897 7.62294 16.8856 7.62397 16.874 7.62402C16.8468 7.6238 16.8204 7.61521 16.7988 7.59863C16.7881 7.59035 16.7789 7.58045 16.7715 7.56934L16.7539 7.53223C16.4847 6.50136 15.9458 5.56103 15.1924 4.80762C14.4387 4.05396 13.4981 3.51424 12.4668 3.24512H12.4678C12.4519 3.24089 12.4369 3.23361 12.4238 3.22363C12.4109 3.21369 12.3998 3.20161 12.3916 3.1875C12.3834 3.17341 12.3782 3.15773 12.376 3.1416C12.3738 3.12543 12.3747 3.10854 12.3789 3.09277C12.3831 3.07704 12.3905 3.06179 12.4004 3.04883C12.4104 3.0358 12.4233 3.02481 12.4375 3.0166C12.4517 3.00842 12.4672 3.00314 12.4834 3.00098ZM3 6.24902C2.9983 5.30275 3.34153 4.38777 3.96484 3.67578C4.58698 2.96533 5.44583 2.50433 6.38184 2.37988L6.38281 2.38086C6.54327 2.36133 6.70542 2.3943 6.8457 2.47461C6.88813 2.49891 6.92733 2.52788 6.96387 2.55957L6.41992 2.63184C5.54169 2.7464 4.73483 3.17646 4.15137 3.84277C3.56816 4.50879 3.24791 5.36475 3.25 6.25C3.25304 9.0335 4.36001 11.7026 6.32812 13.6709C8.29616 15.6389 10.9649 16.7456 13.748 16.749L13.749 16.75V16.749C14.6339 16.7519 15.4898 16.4336 16.1562 15.8516C16.7108 15.3673 17.0992 14.7276 17.2822 14.0215H17.375V13.5205L16.8809 13.4873L17.0703 13.0654L13.3984 11.4209L13.1113 11.292L12.8701 11.4961L10.9688 13.1133C10.9643 13.1171 10.9589 13.1208 10.9541 13.124C10.8467 13.1951 10.7232 13.2378 10.5947 13.2471C10.4668 13.2563 10.3388 13.2322 10.2227 13.1777C8.85932 12.519 7.4814 11.1518 6.82324 9.80566C6.76779 9.68996 6.74282 9.56167 6.75098 9.43359C6.75922 9.30483 6.80069 9.18038 6.87109 9.07227L6.87402 9.06738L6.87891 9.06152L8.50684 7.13086L8.70996 6.89062L8.58105 6.60449L6.99414 3.05273L7.03516 2.62988C7.08675 2.68843 7.1297 2.75462 7.16113 2.82715L7.16406 2.83203L8.77051 6.41699V6.4248L8.81152 6.51953C8.86077 6.63315 8.88146 6.75746 8.87109 6.88086C8.86085 7.00253 8.82073 7.1199 8.75488 7.22266C8.75272 7.22588 8.74951 7.23034 8.74414 7.2373L7.11816 9.16602L6.90723 9.41602L7.05176 9.70898C7.68664 10.9989 9.01143 12.3116 10.3145 12.9463L10.6084 13.0898L10.8574 12.8779L12.7568 11.2617C12.7608 11.2584 12.7652 11.2548 12.7695 11.252L12.7715 11.251C12.8751 11.1819 12.9942 11.1394 13.1182 11.1279C13.2414 11.1166 13.3656 11.1364 13.4795 11.1846L13.4844 11.1865L17.165 12.8359L17.1719 12.8389C17.3204 12.903 17.4447 13.0131 17.5254 13.1533C17.6061 13.2937 17.6377 13.4574 17.6182 13.6182C17.4936 14.5542 17.0338 15.4131 16.3232 16.0352C15.6113 16.6584 14.6972 17.0017 13.751 17H13.75C7.82307 17 3.00009 12.1769 3 6.25V6.24902Z" stroke="#103C3B"></path></svg>