<svg xmlns="http://www.w3.org/2000/svg" width="80" height="81" viewBox="0 0 80 81" fill="none"><g opacity="0.3"><path d="M43.75 58V30.5C43.7541 26.523 45.3358 22.7101 48.148 19.898C50.9601 17.0858 54.773 15.5041 58.75 15.5C59.413 15.5 60.0489 15.7634 60.5178 16.2322C60.9866 16.7011 61.25 17.337 61.25 18C61.25 18.663 60.9866 19.2989 60.5178 19.7678C60.0489 20.2366 59.413 20.5 58.75 20.5C56.0978 20.5 53.5543 21.5536 51.6789 23.4289C49.8036 25.3043 48.75 27.8478 48.75 30.5V33H67.5C68.8261 33 70.0979 33.5268 71.0355 34.4645C71.9732 35.4021 72.5 36.6739 72.5 38V58C72.5 59.3261 71.9732 60.5979 71.0355 61.5355C70.0979 62.4732 68.8261 63 67.5 63H48.75C47.4239 63 46.1521 62.4732 45.2145 61.5355C44.2768 60.5979 43.75 59.3261 43.75 58ZM12.5 63H31.25C32.5761 63 33.8479 62.4732 34.7855 61.5355C35.7232 60.5979 36.25 59.3261 36.25 58V38C36.25 36.6739 35.7232 35.4021 34.7855 34.4645C33.8479 33.5268 32.5761 33 31.25 33H12.5V30.5C12.5 27.8478 13.5536 25.3043 15.4289 23.4289C17.3043 21.5536 19.8478 20.5 22.5 20.5C23.163 20.5 23.7989 20.2366 24.2678 19.7678C24.7366 19.2989 25 18.663 25 18C25 17.337 24.7366 16.7011 24.2678 16.2322C23.7989 15.7634 23.163 15.5 22.5 15.5C18.523 15.5041 14.7101 17.0858 11.898 19.898C9.08582 22.7101 7.50414 26.523 7.5 30.5V58C7.5 59.3261 8.02679 60.5979 8.96447 61.5355C9.90215 62.4732 11.1739 63 12.5 63Z" fill="#222E48"></path></g></svg>