<svg xmlns="http://www.w3.org/2000/svg" width="24" height="25" viewBox="0 0 24 25" fill="none"><path d="M13.1254 19.6243C13.1254 19.8468 13.0594 20.0643 12.9358 20.2493C12.8121 20.4343 12.6364 20.5785 12.4309 20.6636C12.2253 20.7488 11.9991 20.7711 11.7809 20.7276C11.5626 20.6842 11.3622 20.5771 11.2049 20.4198C11.0475 20.2624 10.9404 20.062 10.897 19.8437C10.8536 19.6255 10.8758 19.3993 10.961 19.1937C11.0461 18.9882 11.1903 18.8125 11.3753 18.6889C11.5603 18.5652 11.7779 18.4993 12.0004 18.4993C12.2987 18.4993 12.5849 18.6178 12.7958 18.8288C13.0068 19.0397 13.1254 19.3259 13.1254 19.6243ZM22.2266 8.65551C19.3433 6.29056 15.7295 4.99805 12.0004 4.99805C8.27123 4.99805 4.65739 6.29056 1.77411 8.65551C1.69796 8.71805 1.63488 8.79498 1.58846 8.8819C1.54204 8.96882 1.5132 9.06404 1.50358 9.1621C1.49396 9.26017 1.50375 9.35917 1.5324 9.45346C1.56104 9.54774 1.60797 9.63546 1.67051 9.71161C1.73305 9.78775 1.80998 9.85083 1.8969 9.89725C1.98382 9.94367 2.07904 9.97251 2.1771 9.98213C2.37516 10.0016 2.57282 9.94151 2.72661 9.8152C5.34149 7.67087 8.61867 6.49897 12.0004 6.49897C15.382 6.49897 18.6592 7.67087 21.2741 9.8152C21.4279 9.94151 21.6255 10.0016 21.8236 9.98213C22.0217 9.9627 22.2039 9.86539 22.3302 9.71161C22.4565 9.55782 22.5166 9.36016 22.4971 9.1621C22.4777 8.96405 22.3804 8.78182 22.2266 8.65551ZM19.2191 12.0089C17.1654 10.383 14.6226 9.49827 12.0032 9.49827C9.38368 9.49827 6.84098 10.383 4.78723 12.0089C4.63133 12.1325 4.53091 12.313 4.50805 12.5106C4.4852 12.7082 4.54178 12.9068 4.66535 13.0627C4.78893 13.2186 4.96937 13.319 5.16699 13.3419C5.3646 13.3647 5.56321 13.3081 5.7191 13.1846C7.50772 11.7688 9.72202 10.9985 12.0032 10.9985C14.2843 10.9985 16.4986 11.7688 18.2872 13.1846C18.3644 13.2458 18.4529 13.2912 18.5476 13.3182C18.6424 13.3452 18.7415 13.3532 18.8393 13.3419C18.9372 13.3306 19.0319 13.3001 19.1179 13.2522C19.204 13.2043 19.2798 13.1399 19.341 13.0627C19.4022 12.9855 19.4476 12.897 19.4746 12.8023C19.5016 12.7076 19.5096 12.6084 19.4983 12.5106C19.487 12.4127 19.4565 12.3181 19.4086 12.232C19.3607 12.1459 19.2963 12.0701 19.2191 12.0089ZM16.1947 15.3614C14.9765 14.4761 13.5092 13.9992 12.0032 13.9992C10.4972 13.9992 9.02985 14.4761 7.8116 15.3614C7.65073 15.4786 7.54297 15.6548 7.51203 15.8513C7.48109 16.0479 7.52949 16.2487 7.6466 16.4096C7.76371 16.5704 7.93993 16.6782 8.13649 16.7091C8.33306 16.7401 8.53386 16.6917 8.69473 16.5746C9.65615 15.8754 10.8144 15.4987 12.0032 15.4987C13.192 15.4987 14.3502 15.8754 15.3116 16.5746C15.3913 16.6326 15.4816 16.6743 15.5773 16.6974C15.6731 16.7205 15.7725 16.7245 15.8698 16.7091C15.9672 16.6938 16.0605 16.6595 16.1446 16.6081C16.2286 16.5567 16.3017 16.4892 16.3597 16.4096C16.4177 16.3299 16.4594 16.2396 16.4825 16.1438C16.5056 16.0481 16.5096 15.9487 16.4943 15.8513C16.479 15.754 16.4446 15.6607 16.3932 15.5766C16.3418 15.4925 16.2744 15.4194 16.1947 15.3614Z" fill="#103C3B"></path></svg>