<svg xmlns="http://www.w3.org/2000/svg" width="24" height="25" viewBox="0 0 24 25" fill="none"><path d="M20.9489 4.25667C20.9381 4.07319 20.8604 3.90003 20.7305 3.77007C20.6005 3.6401 20.4273 3.56239 20.2439 3.55167C13.1067 3.13261 7.38979 5.28136 4.95229 9.31261C4.10738 10.6916 3.69103 12.2904 3.75604 13.9064C3.80948 15.3989 4.24448 16.9064 5.04885 18.3923L3.21979 20.2204C3.07906 20.3612 3 20.552 3 20.751C3 20.9501 3.07906 21.1409 3.21979 21.2817C3.36052 21.4224 3.55139 21.5015 3.75042 21.5015C3.94944 21.5015 4.14031 21.4224 4.28104 21.2817L6.10917 19.4526C7.59417 20.256 9.1026 20.691 10.5942 20.7445C10.6985 20.7482 10.8026 20.7501 10.9064 20.7501C12.4174 20.7541 13.8997 20.338 15.1879 19.5482C19.2192 17.1107 21.3689 11.3948 20.9489 4.25667ZM14.4145 18.2657C12.2817 19.5576 9.75698 19.5782 7.22292 18.3379L15.532 10.0298C15.6017 9.96011 15.6569 9.87739 15.6947 9.78634C15.7324 9.6953 15.7518 9.59772 15.7518 9.49917C15.7518 9.40062 15.7324 9.30304 15.6947 9.212C15.6569 9.12095 15.6017 9.03823 15.532 8.96855C15.4623 8.89886 15.3796 8.84359 15.2885 8.80588C15.1975 8.76816 15.0999 8.74875 15.0014 8.74875C14.9028 8.74875 14.8052 8.76816 14.7142 8.80588C14.6231 8.84359 14.5404 8.89886 14.4707 8.96855L6.1626 17.2814C4.92604 14.7501 4.94385 12.2189 6.23479 10.0898C8.30573 6.67073 13.2285 4.79855 19.4826 5.02167C19.7067 11.271 17.8335 16.1948 14.4145 18.2657Z" fill="#103C3B"></path></svg>