<svg xmlns="http://www.w3.org/2000/svg" width="24" height="25" viewBox="0 0 24 25" fill="none"><path d="M18.75 21.5H14.1131C14.892 20.8045 15.6266 20.0608 16.3125 19.2734C18.8859 16.3138 20.25 13.1938 20.25 10.25C20.25 8.06196 19.3808 5.96354 17.8336 4.41637C16.2865 2.86919 14.188 2 12 2C9.81196 2 7.71354 2.86919 6.16637 4.41637C4.61919 5.96354 3.75 8.06196 3.75 10.25C3.75 13.1938 5.11031 16.3138 7.6875 19.2734C8.37338 20.0608 9.10795 20.8045 9.88688 21.5H5.25C5.05109 21.5 4.86032 21.579 4.71967 21.7197C4.57902 21.8603 4.5 22.0511 4.5 22.25C4.5 22.4489 4.57902 22.6397 4.71967 22.7803C4.86032 22.921 5.05109 23 5.25 23H18.75C18.9489 23 19.1397 22.921 19.2803 22.7803C19.421 22.6397 19.5 22.4489 19.5 22.25C19.5 22.0511 19.421 21.8603 19.2803 21.7197C19.1397 21.579 18.9489 21.5 18.75 21.5ZM5.25 10.25C5.25 8.45979 5.96116 6.7429 7.22703 5.47703C8.4929 4.21116 10.2098 3.5 12 3.5C13.7902 3.5 15.5071 4.21116 16.773 5.47703C18.0388 6.7429 18.75 8.45979 18.75 10.25C18.75 15.6153 13.5497 20.0938 12 21.3125C10.4503 20.0938 5.25 15.6153 5.25 10.25ZM15.75 10.25C15.75 9.50832 15.5301 8.7833 15.118 8.16661C14.706 7.54993 14.1203 7.06928 13.4351 6.78545C12.7498 6.50162 11.9958 6.42736 11.2684 6.57205C10.541 6.71675 9.8728 7.0739 9.34835 7.59835C8.8239 8.1228 8.46675 8.79098 8.32205 9.51841C8.17736 10.2458 8.25162 10.9998 8.53545 11.6851C8.81928 12.3703 9.29993 12.956 9.91661 13.368C10.5333 13.7801 11.2583 14 12 14C12.9946 14 13.9484 13.6049 14.6517 12.9017C15.3549 12.1984 15.75 11.2446 15.75 10.25ZM9.75 10.25C9.75 9.80499 9.88196 9.36998 10.1292 8.99997C10.3764 8.62996 10.7278 8.34157 11.139 8.17127C11.5501 8.00097 12.0025 7.95642 12.439 8.04323C12.8754 8.13005 13.2763 8.34434 13.591 8.65901C13.9057 8.97368 14.12 9.37459 14.2068 9.81105C14.2936 10.2475 14.249 10.6999 14.0787 11.111C13.9084 11.5222 13.62 11.8736 13.25 12.1208C12.88 12.368 12.445 12.5 12 12.5C11.4033 12.5 10.831 12.2629 10.409 11.841C9.98705 11.419 9.75 10.8467 9.75 10.25Z" fill="#103C3B"></path></svg>