<svg xmlns="http://www.w3.org/2000/svg" width="24" height="25" viewBox="0 0 24 25" fill="none"><path d="M19.5 4.25H4.5C4.10218 4.25 3.72064 4.40804 3.43934 4.68934C3.15804 4.97064 3 5.35218 3 5.75V11.2606C3 19.6616 10.1081 22.4487 11.5312 22.9222C11.8352 23.0256 12.1648 23.0256 12.4688 22.9222C13.8938 22.4487 21 19.6616 21 11.2606V5.75C21 5.35218 20.842 4.97064 20.5607 4.68934C20.2794 4.40804 19.8978 4.25 19.5 4.25ZM19.5 11.2616C19.5 18.6134 13.2797 21.0697 12 21.4972C10.7316 21.0744 4.5 18.62 4.5 11.2616V5.75H19.5V11.2616ZM7.71937 13.7806C7.57864 13.6399 7.49958 13.449 7.49958 13.25C7.49958 13.051 7.57864 12.8601 7.71937 12.7194C7.86011 12.5786 8.05098 12.4996 8.25 12.4996C8.44902 12.4996 8.63989 12.5786 8.78063 12.7194L10.5 14.4387L15.2194 9.71937C15.2891 9.64969 15.3718 9.59442 15.4628 9.5567C15.5539 9.51899 15.6515 9.49958 15.75 9.49958C15.8485 9.49958 15.9461 9.51899 16.0372 9.5567C16.1282 9.59442 16.2109 9.64969 16.2806 9.71937C16.3503 9.78906 16.4056 9.87178 16.4433 9.96283C16.481 10.0539 16.5004 10.1515 16.5004 10.25C16.5004 10.3485 16.481 10.4461 16.4433 10.5372C16.4056 10.6282 16.3503 10.7109 16.2806 10.7806L11.0306 16.0306C10.961 16.1004 10.8783 16.1557 10.7872 16.1934C10.6962 16.2312 10.5986 16.2506 10.5 16.2506C10.4014 16.2506 10.3038 16.2312 10.2128 16.1934C10.1217 16.1557 10.039 16.1004 9.96937 16.0306L7.71937 13.7806Z" fill="#103C3B"></path></svg>