<svg xmlns="http://www.w3.org/2000/svg" width="24" height="25" viewBox="0 0 24 25" fill="none"><path d="M21.6478 16.6249C21.7469 16.7968 21.7738 17.001 21.7226 17.1927C21.6715 17.3844 21.5465 17.548 21.375 17.6477L12.375 22.8977C12.2603 22.9646 12.1299 22.9999 11.9972 22.9999C11.8644 22.9999 11.7341 22.9646 11.6194 22.8977L2.61938 17.6477C2.45034 17.5462 2.32811 17.3821 2.27916 17.1911C2.2302 17 2.25846 16.7974 2.35781 16.627C2.45717 16.4567 2.61962 16.3323 2.81 16.2809C3.00037 16.2294 3.20336 16.255 3.375 16.3521L12 21.3818L20.625 16.3521C20.7969 16.2531 21.0011 16.2261 21.1927 16.2773C21.3844 16.3284 21.5481 16.4534 21.6478 16.6249ZM20.625 11.8521L12 16.8818L3.375 11.8521C3.20423 11.7671 3.00748 11.7503 2.82479 11.8053C2.6421 11.8602 2.4872 11.9827 2.39163 12.1478C2.29606 12.3129 2.26699 12.5082 2.31035 12.6939C2.3537 12.8797 2.46622 13.042 2.625 13.1477L11.625 18.3977C11.7397 18.4646 11.8701 18.4999 12.0028 18.4999C12.1356 18.4999 12.2659 18.4646 12.3806 18.3977L21.3806 13.1477C21.4671 13.0988 21.5429 13.0332 21.6038 12.9548C21.6647 12.8763 21.7094 12.7865 21.7353 12.6907C21.7612 12.5948 21.7679 12.4947 21.7548 12.3963C21.7417 12.2978 21.7092 12.2029 21.6592 12.1171C21.6091 12.0313 21.5426 11.9563 21.4633 11.8965C21.384 11.8366 21.2937 11.7931 21.1975 11.7684C21.1013 11.7438 21.0011 11.7385 20.9028 11.7529C20.8046 11.7672 20.7101 11.801 20.625 11.8521ZM2.25 7.99993C2.2503 7.86856 2.2851 7.73958 2.35091 7.62589C2.41672 7.5122 2.51124 7.41779 2.625 7.35211L11.625 2.10211C11.7397 2.03524 11.8701 2 12.0028 2C12.1356 2 12.2659 2.03524 12.3806 2.10211L21.3806 7.35211C21.4938 7.41816 21.5878 7.51274 21.6531 7.6264C21.7183 7.74006 21.7527 7.86885 21.7527 7.99993C21.7527 8.131 21.7183 8.25979 21.6531 8.37345C21.5878 8.48712 21.4938 8.58169 21.3806 8.64774L12.3806 13.8977C12.2659 13.9646 12.1356 13.9999 12.0028 13.9999C11.8701 13.9999 11.7397 13.9646 11.625 13.8977L2.625 8.64774C2.51124 8.58206 2.41672 8.48765 2.35091 8.37396C2.2851 8.26027 2.2503 8.13129 2.25 7.99993ZM4.48875 7.99993L12 12.3818L19.5112 7.99993L12 3.61805L4.48875 7.99993Z" fill="#103C3B"></path></svg>