<svg xmlns="http://www.w3.org/2000/svg" width="20" height="20" viewBox="0 0 20 20" fill="none"><path d="M3.75 3H8.125C8.15815 3 8.19042 3.01269 8.21387 3.03613C8.23731 3.05957 8.25 3.09185 8.25 3.125C8.25 3.15815 8.23731 3.19043 8.21387 3.21387C8.19042 3.23731 8.15815 3.25 8.125 3.25H3.25V16.75H8.125C8.15815 16.75 8.19043 16.7627 8.21387 16.7861C8.23731 16.8096 8.25 16.8418 8.25 16.875C8.25 16.9082 8.23731 16.9404 8.21387 16.9639C8.19043 16.9873 8.15815 17 8.125 17H3.75C3.55109 17 3.36038 16.9209 3.21973 16.7803C3.07907 16.6396 3 16.4489 3 16.25V3.75C3 3.55109 3.07907 3.36038 3.21973 3.21973C3.36038 3.07907 3.55109 3 3.75 3ZM13.75 6.75C13.7832 6.75 13.8154 6.76263 13.8389 6.78613L16.9639 9.91113C16.9755 9.92274 16.9849 9.93698 16.9912 9.95215C16.9975 9.96729 17.001 9.98361 17.001 10C17.001 10.0164 16.9975 10.0327 16.9912 10.0479C16.9849 10.063 16.9755 10.0773 16.9639 10.0889L13.8389 13.2139C13.8154 13.2374 13.7832 13.25 13.75 13.25C13.7168 13.25 13.6846 13.2374 13.6611 13.2139C13.6376 13.1904 13.625 13.1582 13.625 13.125C13.625 13.0918 13.6376 13.0596 13.6611 13.0361L15.7197 10.9785L16.5742 10.125H8.125C8.09185 10.125 8.05957 10.1123 8.03613 10.0889C8.01269 10.0654 8 10.0332 8 10C8 9.96685 8.01269 9.93458 8.03613 9.91113C8.05958 9.88769 8.09185 9.875 8.125 9.875H16.5742L15.7197 9.02148L13.6611 6.96387C13.6376 6.94036 13.625 6.90824 13.625 6.875C13.625 6.84176 13.6376 6.80964 13.6611 6.78613C13.6846 6.76263 13.7168 6.75 13.75 6.75Z" stroke="#0F604D"></path></svg>