<svg xmlns="http://www.w3.org/2000/svg" width="129" height="32" viewBox="0 0 129 32" fill="none"><g clip-path="url(#clip0_19362_5725)"><path d="M41.2544 25.3204L42.8165 21.6692C44.527 22.9358 46.7579 23.6063 48.9893 23.6063C50.6256 23.6063 51.6667 22.9732 51.6667 22.0046C51.6293 19.322 41.8122 21.4084 41.7376 14.6638C41.7002 11.2361 44.7498 8.59082 49.064 8.59082C51.6293 8.59082 54.1957 9.22442 56.0176 10.6777L54.5578 14.4068C52.8816 13.3289 50.8112 12.5775 48.8406 12.5775C47.5018 12.5775 46.609 13.2105 46.609 14.0308C46.6464 16.6761 56.5386 15.2228 56.6501 21.6692C56.6501 25.1716 53.6746 27.6308 49.4352 27.6308C46.312 27.6308 43.4486 26.8858 41.2539 25.3204H41.2544ZM103.456 20.347C103.062 21.0477 102.488 21.6308 101.794 22.0366C101.1 22.4424 100.311 22.6563 99.5067 22.6564C97.0011 22.6564 94.9701 20.6212 94.9701 18.1108C94.9701 15.6004 97.0011 13.5652 99.5067 13.5652C100.311 13.5652 101.1 13.7792 101.794 14.185C102.488 14.5908 103.062 15.1739 103.456 15.8746L107.799 13.4638C106.172 10.5567 103.069 8.59082 99.5067 8.59082C94.2592 8.59082 90.0054 12.8526 90.0054 18.1108C90.0054 23.3684 94.2592 27.6308 99.5067 27.6308C103.069 27.6308 106.172 25.6649 107.799 22.7578L103.456 20.347ZM59.4683 27.258H64.8976V0.666016H59.4688L59.4683 27.258ZM110.541 0.666016V27.258H115.97V19.291L122.404 27.258H129.344L121.162 17.7934L128.748 8.96202H122.106L115.97 16.3044V0.666016H110.541ZM81.6246 8.96308V11.1247C80.7323 9.63402 78.5381 8.59082 76.2326 8.59082C71.4725 8.59082 67.7168 12.8014 67.7168 18.0922C67.7168 23.3828 71.4725 27.6308 76.2326 27.6308C78.5381 27.6308 80.7323 26.5876 81.6246 25.097V27.258H87.0538V8.96308H81.6246ZM81.6246 20.3839C80.8438 21.6878 79.2074 22.6559 77.3856 22.6559C74.8795 22.6559 72.8485 20.6212 72.8485 18.1108C72.8485 15.6004 74.8795 13.5652 77.3856 13.5652C79.2074 13.5652 80.8438 14.571 81.6246 15.9118V20.3839Z" fill="black"></path><path d="M12.5815 0.0800781C10.822 0.0800781 9.39585 1.50941 9.39585 3.27208C9.39544 3.69083 9.4775 4.10558 9.63736 4.49263C9.79724 4.87967 10.0318 5.23143 10.3276 5.52784C10.6234 5.82425 10.9747 6.05949 11.3614 6.22013C11.7481 6.38077 12.1627 6.46366 12.5815 6.46408H15.7676V3.27208C15.7684 2.42631 15.433 1.61489 14.8355 1.01629C14.238 0.417685 13.4272 0.0809264 12.5815 0.0800781ZM12.5815 8.59208H4.08599C2.32653 8.59208 0.900391 10.0214 0.900391 11.7846C0.900391 13.5473 2.32653 14.9766 4.08599 14.9766H12.582C14.3409 14.9766 15.7676 13.5473 15.7676 11.7846C15.7676 10.0214 14.3409 8.59208 12.5815 8.59208Z" fill="#2FBDEE"></path><path d="M32.7578 11.7846C32.7578 10.0214 31.3311 8.59208 29.5716 8.59208C27.8122 8.59208 26.3861 10.0214 26.3861 11.7846V14.9766H29.5716C30.4175 14.9757 31.2282 14.639 31.8257 14.0404C32.4232 13.4418 32.7585 12.6304 32.7578 11.7846ZM24.2623 11.7846V3.27208C24.263 2.42631 23.9277 1.61489 23.3302 1.01629C22.7327 0.417685 21.922 0.0809264 21.0762 0.0800781C19.3167 0.0800781 17.8906 1.50941 17.8906 3.27208V11.7841C17.8906 13.5478 19.3167 14.9771 21.0762 14.9771C21.922 14.9762 22.7327 14.6395 23.3302 14.041C23.9277 13.4423 24.263 12.6309 24.2623 11.7851" fill="#29AD72"></path><path d="M21.0762 32C21.922 31.9993 22.7327 31.6625 23.3302 31.0638C23.9277 30.4653 24.263 29.6538 24.2623 28.8081C24.263 27.9623 23.9277 27.1509 23.3302 26.5522C22.7327 25.9537 21.922 25.6169 21.0762 25.616H17.8906V28.8081C17.8906 30.5708 19.3167 32 21.0762 32ZM21.0762 23.488H29.5722C31.3311 23.488 32.7578 22.0588 32.7578 20.2956C32.7585 19.4498 32.4232 18.6384 31.8257 18.0397C31.2282 17.4412 30.4175 17.1044 29.5717 17.1035H21.0762C19.3167 17.1035 17.8906 18.5329 17.8906 20.2956C17.8901 20.7143 17.9723 21.129 18.1322 21.5161C18.2919 21.9031 18.5265 22.2549 18.8223 22.5513C19.1181 22.8476 19.4694 23.0829 19.8562 23.2435C20.2429 23.4042 20.6575 23.4871 21.0762 23.4875" fill="#E9A929"></path><path d="M0.900392 20.2956C0.899972 20.7143 0.982036 21.129 1.1419 21.5161C1.30176 21.9031 1.5363 22.2549 1.83211 22.5513C2.12792 22.8476 2.47921 23.0829 2.86593 23.2435C3.25266 23.4042 3.66724 23.4871 4.08599 23.4875C4.93176 23.4866 5.74257 23.1499 6.34007 22.5513C6.93756 21.9527 7.27283 21.1413 7.27213 20.2956V17.1035H4.08599C2.32653 17.1035 0.900392 18.5329 0.900392 20.2956ZM9.39585 20.2956V28.8076C9.39585 30.5708 10.822 32 12.5815 32C13.4272 31.9993 14.238 31.6625 14.8355 31.0638C15.433 30.4653 15.7684 29.6538 15.7676 28.8081V20.2956C15.768 19.8768 15.6859 19.4619 15.5261 19.0748C15.3662 18.6878 15.1316 18.336 14.8358 18.0396C14.5398 17.7431 14.1885 17.508 13.8016 17.3474C13.4149 17.1867 13.0003 17.1039 12.5815 17.1035C10.822 17.1035 9.39585 18.5329 9.39585 20.2956Z" fill="#DC1C50"></path></g><defs><clipPath id="clip0_19362_5725"><rect width="128" height="32" fill="white" transform="translate(0.900391)"></rect></clipPath></defs></svg>