<svg xmlns="http://www.w3.org/2000/svg" width="60" height="60" viewBox="0 0 60 60" fill="none"><path d="M56.25 43.1253H54.375V13.5706L56.6414 13.0831C56.8874 13.037 57.1216 12.9421 57.3304 12.804C57.5391 12.6659 57.7181 12.4874 57.8567 12.279C57.9954 12.0707 58.0909 11.8367 58.1377 11.5908C58.1845 11.345 58.1816 11.0922 58.1292 10.8475C58.0768 10.6028 57.9759 10.3711 57.8325 10.1659C57.6891 9.96082 57.5061 9.78649 57.2943 9.65321C57.0824 9.51994 56.8461 9.43042 56.5991 9.38993C56.3521 9.34944 56.0995 9.35881 55.8563 9.41748L3.35625 20.6675C2.90396 20.7651 2.50374 21.0265 2.23255 21.4014C1.96136 21.7763 1.83837 22.2382 1.88723 22.6983C1.9361 23.1584 2.15336 23.5842 2.49723 23.8938C2.8411 24.2034 3.2873 24.3749 3.75 24.3753C3.88314 24.3751 4.01589 24.3609 4.14609 24.3331L5.625 24.0167V43.1253H3.75C3.25272 43.1253 2.77581 43.3228 2.42417 43.6745C2.07254 44.0261 1.875 44.503 1.875 45.0003C1.875 45.4976 2.07254 45.9745 2.42417 46.3261C2.77581 46.6777 3.25272 46.8753 3.75 46.8753H56.25C56.7473 46.8753 57.2242 46.6777 57.5758 46.3261C57.9275 45.9745 58.125 45.4976 58.125 45.0003C58.125 44.503 57.9275 44.0261 57.5758 43.6745C57.2242 43.3228 56.7473 43.1253 56.25 43.1253ZM9.375 23.2034L50.625 14.3745V43.1253H45V30.0003C45 29.503 44.8025 29.0261 44.4508 28.6745C44.0992 28.3228 43.6223 28.1253 43.125 28.1253H16.875C16.3777 28.1253 15.9008 28.3228 15.5492 28.6745C15.1975 29.0261 15 29.503 15 30.0003V43.1253H9.375V23.2034ZM41.25 35.6253H18.75V31.8753H41.25V35.6253ZM18.75 39.3753H41.25V43.1253H18.75V39.3753Z" fill="#103C3B"></path></svg>