<svg xmlns="http://www.w3.org/2000/svg" width="21" height="20" viewBox="0 0 21 20" fill="none"><path d="M17.375 11.75C17.4082 11.75 17.4404 11.7627 17.4639 11.7861C17.4873 11.8096 17.5 11.8418 17.5 11.875V16.25C17.5 16.4489 17.4209 16.6396 17.2803 16.7803C17.1396 16.9209 16.9489 17 16.75 17H4.25C4.05109 17 3.86038 16.9209 3.71973 16.7803C3.57907 16.6396 3.5 16.4489 3.5 16.25V11.875C3.5 11.8418 3.51269 11.8096 3.53613 11.7861C3.55957 11.7627 3.59185 11.75 3.625 11.75C3.65815 11.75 3.69043 11.7627 3.71387 11.7861C3.73731 11.8096 3.75 11.8418 3.75 11.875V16.75H17.25V11.875C17.25 11.8418 17.2627 11.8096 17.2861 11.7861C17.3096 11.7627 17.3418 11.75 17.375 11.75ZM10.5 3C10.5332 3 10.5654 3.01269 10.5889 3.03613C10.6123 3.05957 10.625 3.09185 10.625 3.125V11.5742L11.4785 10.7197L13.5361 8.66113C13.5478 8.64949 13.5619 8.64009 13.5771 8.63379C13.5923 8.62756 13.6086 8.625 13.625 8.625C13.6414 8.625 13.6577 8.62756 13.6729 8.63379C13.6881 8.64009 13.7022 8.64949 13.7139 8.66113C13.7255 8.67277 13.7349 8.68694 13.7412 8.70215C13.7474 8.71729 13.75 8.73363 13.75 8.75C13.75 8.76637 13.7474 8.78271 13.7412 8.79785C13.7349 8.81306 13.7255 8.82723 13.7139 8.83887L10.5889 11.9639C10.5773 11.9755 10.563 11.9849 10.5479 11.9912C10.5327 11.9975 10.5164 12.001 10.5 12.001C10.4836 12.001 10.4673 11.9975 10.4521 11.9912C10.437 11.9849 10.4227 11.9755 10.4111 11.9639L7.28613 8.83887C7.26263 8.81536 7.25 8.78325 7.25 8.75L7.25879 8.70215C7.26503 8.68699 7.27432 8.67295 7.28613 8.66113C7.30964 8.63763 7.34176 8.625 7.375 8.625C7.40824 8.625 7.44036 8.63763 7.46387 8.66113L9.52148 10.7197L10.375 11.5742V3.125C10.375 3.09185 10.3877 3.05958 10.4111 3.03613C10.4228 3.02444 10.4372 3.01599 10.4521 3.00977L10.5 3Z" stroke="#103C3B"></path></svg>