<svg xmlns="http://www.w3.org/2000/svg" width="60" height="60" viewBox="0 0 60 60" fill="none"><path d="M30 5.6875C30.358 5.6875 30.708 5.79351 31.0059 5.99219L53.5059 20.9922C53.7541 21.1578 53.9579 21.3823 54.0986 21.6455C54.2393 21.9087 54.3127 22.2026 54.3125 22.501V46.876C54.3125 47.8539 53.9239 48.7919 53.2324 49.4834C52.5409 50.1749 51.603 50.5635 50.625 50.5635H9.375C8.39701 50.5635 7.45912 50.1749 6.76758 49.4834C6.07611 48.7919 5.6875 47.8539 5.6875 46.876V22.501C5.68734 22.2026 5.7607 21.9087 5.90137 21.6455C6.04207 21.3823 6.24585 21.1578 6.49414 20.9922L28.9941 5.99219C29.292 5.79351 29.642 5.6875 30 5.6875ZM50.5889 26.0898L35.1436 37.1055C34.8361 37.325 34.4676 37.4434 34.0898 37.4434H25.9102L25.7686 37.4375C25.441 37.4118 25.1253 37.2975 24.8564 37.1055L9.41113 26.0898L9.3125 26.0195V46.9385H50.6875V26.0195L50.5889 26.0898ZM29.9648 9.70117L10.7725 22.501L10.6973 22.5508L10.7705 22.6035L26.4736 33.8018L26.4902 33.8135H33.5146L33.5312 33.8018L49.2344 22.6035L49.3076 22.5508L49.2324 22.501L30.0352 9.70117L30 9.67871L29.9648 9.70117Z" fill="#103C3B" stroke="#103C3B" stroke-width="0.125"></path></svg>