<svg xmlns="http://www.w3.org/2000/svg" width="48" height="49" viewBox="0 0 48 49" fill="none"><path d="M41.5755 45.2533H6.43224C6.02819 45.2533 5.70312 44.9282 5.70312 44.5242V22.1647C5.70312 21.7606 6.02819 21.4355 6.43224 21.4355C6.83629 21.4355 7.16135 21.7606 7.16135 22.1647V43.795H40.8464V22.1647C40.8464 21.7606 41.1715 21.4355 41.5755 21.4355C41.9796 21.4355 42.3046 21.7606 42.3046 22.1647V44.5242C42.3046 44.9282 41.9765 45.2533 41.5755 45.2533Z" fill="#B07E50"></path><path d="M45.0795 25.2451C44.5782 25.2451 44.0952 25.078 43.6942 24.762L24.002 9.26837L4.30988 24.762C3.33469 25.5276 1.919 25.3605 1.15343 24.3853C0.782795 23.9144 0.615706 23.3251 0.688618 22.7296C0.758491 22.1342 1.05925 21.5995 1.53014 21.2289L23.5524 3.90331C23.8167 3.69369 24.1904 3.69369 24.4547 3.90331L46.477 21.2289C47.4522 21.9944 47.6193 23.4101 46.8537 24.3853C46.4831 24.8562 45.9484 25.157 45.3529 25.2269C45.2618 25.239 45.1706 25.2451 45.0795 25.2451ZM24.002 7.61268C24.16 7.61268 24.321 7.66432 24.4517 7.76761L44.5965 23.6137C44.7636 23.7443 44.9701 23.802 45.1798 23.7777C45.3894 23.7534 45.5777 23.6471 45.7084 23.4831C45.9787 23.1398 45.918 22.6415 45.5747 22.3742L24.002 5.40407L2.42938 22.3742C2.26229 22.5048 2.159 22.6932 2.13469 22.9028C2.11039 23.1124 2.16811 23.319 2.29874 23.4861C2.56912 23.8294 3.06431 23.8871 3.40761 23.6198L23.5524 7.77369C23.6831 7.66432 23.8441 7.61268 24.002 7.61268Z" fill="#B07E50"></path><path d="M37.8103 16.0672C37.4063 16.0672 37.0812 15.7421 37.0812 15.338V6.95627H33.466V11.3461C33.466 11.7502 33.141 12.0753 32.7369 12.0753C32.3329 12.0753 32.0078 11.7502 32.0078 11.3461V6.22716C32.0078 5.82311 32.3329 5.49805 32.7369 5.49805H37.8103C38.2144 5.49805 38.5395 5.82311 38.5395 6.22716V15.338C38.5395 15.7421 38.2144 16.0672 37.8103 16.0672Z" fill="#B07E50"></path><path d="M10.8151 39.8884C10.411 39.8884 10.0859 39.5634 10.0859 39.1593V31.0358C10.0859 30.6317 10.411 30.3066 10.8151 30.3066C11.2191 30.3066 11.5442 30.6317 11.5442 31.0358V39.1593C11.5442 39.5634 11.2191 39.8884 10.8151 39.8884Z" fill="#B07E50"></path><path d="M12.7107 35.8601H10.8151C10.411 35.8601 10.0859 35.535 10.0859 35.1309V31.0358C10.0859 30.6317 10.411 30.3066 10.8151 30.3066H12.7107C14.2419 30.3066 15.4875 31.5522 15.4875 33.0834C15.4875 34.6145 14.2419 35.8601 12.7107 35.8601ZM11.5442 34.4018H12.7107C13.4368 34.4018 14.0292 33.8094 14.0292 33.0834C14.0292 32.3573 13.4368 31.7649 12.7107 31.7649H11.5442V34.4018Z" fill="#B07E50"></path><path d="M14.7607 39.888C14.548 39.888 14.3414 39.7968 14.1956 39.6206L10.8994 35.5923C10.6442 35.2794 10.6898 34.8206 11.0027 34.5654C11.3156 34.3102 11.7744 34.3558 12.0295 34.6687L15.3257 38.6971C15.5809 39.01 15.5354 39.4687 15.2225 39.7239C15.0857 39.8333 14.9217 39.888 14.7607 39.888Z" fill="#B07E50"></path><path d="M18.1744 39.8884C17.7704 39.8884 17.4453 39.5634 17.4453 39.1593V31.0358C17.4453 30.6317 17.7704 30.3066 18.1744 30.3066C18.5785 30.3066 18.9035 30.6317 18.9035 31.0358V39.1593C18.9035 39.5634 18.5754 39.8884 18.1744 39.8884Z" fill="#B07E50"></path><path d="M21.5678 31.7649H18.1744C17.7704 31.7649 17.4453 31.4398 17.4453 31.0358C17.4453 30.6317 17.7704 30.3066 18.1744 30.3066H21.5678C21.9719 30.3066 22.297 30.6317 22.297 31.0358C22.297 31.4398 21.9719 31.7649 21.5678 31.7649Z" fill="#B07E50"></path><path d="M21.5678 35.8274H18.1744C17.7704 35.8274 17.4453 35.5023 17.4453 35.0983C17.4453 34.6942 17.7704 34.3691 18.1744 34.3691H21.5678C21.9719 34.3691 22.297 34.6942 22.297 35.0983C22.297 35.5023 21.9719 35.8274 21.5678 35.8274Z" fill="#B07E50"></path><path d="M21.5678 39.8879H18.1744C17.7704 39.8879 17.4453 39.5629 17.4453 39.1588C17.4453 38.7548 17.7704 38.4297 18.1744 38.4297H21.5678C21.9719 38.4297 22.297 38.7548 22.297 39.1588C22.297 39.5629 21.9719 39.8879 21.5678 39.8879Z" fill="#B07E50"></path><path d="M29.0826 39.8888C28.8091 39.8888 28.5509 39.7339 28.4264 39.4787L25.8684 34.2078V39.1597C25.8684 39.5638 25.5433 39.8888 25.1393 39.8888C24.7352 39.8888 24.4102 39.5638 24.4102 39.1597V31.0362C24.4102 30.6959 24.6441 30.4012 24.9752 30.3253C25.3064 30.2493 25.6466 30.4104 25.7955 30.7172L28.3534 35.9881V31.0362C28.3534 30.6321 28.6785 30.3071 29.0826 30.3071C29.4866 30.3071 29.8117 30.6321 29.8117 31.0362V39.1597C29.8117 39.5 29.5778 39.7947 29.2466 39.8706C29.1919 39.8828 29.1342 39.8888 29.0826 39.8888Z" fill="#B07E50"></path><path d="M34.7799 39.8884C34.3758 39.8884 34.0508 39.5634 34.0508 39.1593V31.0358C34.0508 30.6317 34.3758 30.3066 34.7799 30.3066C35.1839 30.3066 35.509 30.6317 35.509 31.0358V39.1593C35.509 39.5634 35.1839 39.8884 34.7799 39.8884Z" fill="#B07E50"></path><path d="M37.1836 31.7649H32.3776C31.9735 31.7649 31.6484 31.4398 31.6484 31.0358C31.6484 30.6317 31.9735 30.3066 32.3776 30.3066H37.1836C37.5877 30.3066 37.9127 30.6317 37.9127 31.0358C37.9127 31.4398 37.5877 31.7649 37.1836 31.7649Z" fill="#B07E50"></path><path d="M16.651 28.2469C16.2469 28.2469 15.9219 27.9218 15.9219 27.5178V22.0494C15.9219 21.6454 16.2469 21.3203 16.651 21.3203C17.055 21.3203 17.3801 21.6454 17.3801 22.0494V27.5178C17.3801 27.9218 17.052 28.2469 16.651 28.2469Z" fill="#B07E50"></path><path d="M19.3578 22.7785H16.651C16.2469 22.7785 15.9219 22.4535 15.9219 22.0494C15.9219 21.6454 16.2469 21.3203 16.651 21.3203H19.3578C19.7619 21.3203 20.0869 21.6454 20.0869 22.0494C20.0869 22.4535 19.7619 22.7785 19.3578 22.7785Z" fill="#B07E50"></path><path d="M19.3578 25.5285H16.651C16.2469 25.5285 15.9219 25.2035 15.9219 24.7994C15.9219 24.3954 16.2469 24.0703 16.651 24.0703H19.3578C19.7619 24.0703 20.0869 24.3954 20.0869 24.7994C20.0869 25.2035 19.7619 25.5285 19.3578 25.5285Z" fill="#B07E50"></path><path d="M23.9395 28.246C22.7152 28.246 21.7188 27.2496 21.7188 26.0253V23.5372C21.7188 22.3129 22.7152 21.3164 23.9395 21.3164C25.1638 21.3164 26.1603 22.3129 26.1603 23.5372V26.0253C26.1603 27.2526 25.1638 28.246 23.9395 28.246ZM23.9395 22.7777C23.5203 22.7777 23.177 23.1179 23.177 23.5402V26.0283C23.177 26.4475 23.5172 26.7908 23.9395 26.7908C24.3618 26.7908 24.702 26.4506 24.702 26.0283V23.5402C24.702 23.1179 24.3587 22.7777 23.9395 22.7777Z" fill="#B07E50"></path><path d="M28.6432 28.3016C28.2391 28.3016 27.9141 27.9765 27.9141 27.5725V21.9947C27.9141 21.5907 28.2391 21.2656 28.6432 21.2656C29.0472 21.2656 29.3723 21.5907 29.3723 21.9947V27.5725C29.3723 27.9765 29.0472 28.3016 28.6432 28.3016Z" fill="#B07E50"></path><path d="M29.9465 25.534H28.6432C28.2391 25.534 27.9141 25.2089 27.9141 24.8049V21.9947C27.9141 21.5907 28.2391 21.2656 28.6432 21.2656H29.9465C31.1222 21.2656 32.0822 22.2226 32.0822 23.4013C32.0791 24.577 31.1222 25.534 29.9465 25.534ZM29.3723 24.0758H29.9465C30.3201 24.0758 30.6239 23.772 30.6239 23.3983C30.6239 23.0246 30.3201 22.7208 29.9465 22.7208H29.3723V24.0758Z" fill="#B07E50"></path><path d="M31.3528 28.301C31.1432 28.301 30.9335 28.2099 30.7877 28.0337L28.5244 25.2661C28.2692 24.9532 28.3148 24.4944 28.6277 24.2393C28.9406 23.9841 29.3994 24.0296 29.6545 24.3425L31.9178 27.1101C32.173 27.4231 32.1275 27.8818 31.8145 28.137C31.6809 28.2463 31.5168 28.301 31.3528 28.301Z" fill="#B07E50"></path></svg>