<svg xmlns="http://www.w3.org/2000/svg" width="48" height="49" viewBox="0 0 48 49" fill="none"><path d="M44.7002 24.5656H30.3021L30.3304 19.3288L30.4063 19.3912C30.8647 19.768 31.4455 19.9749 32.0407 19.9749C32.8211 19.9749 33.5507 19.6307 34.0423 19.0297C34.9447 17.9277 34.7839 16.2957 33.6827 15.3918L30.0405 12.4096V5.49374C30.0405 5.04206 29.6743 4.67582 29.2226 4.67582H24.3487C23.8979 4.67582 23.5307 5.04206 23.5307 5.49374V7.07966L20.5859 4.66814C20.129 4.29134 19.5482 4.08398 18.9525 4.08398C18.4591 4.08398 17.9675 4.2275 17.5533 4.49198C17.2763 4.58558 17.02 4.7243 16.7925 4.90382L3.47154 15.351C2.92962 15.7763 2.58594 16.3883 2.50338 17.0752C2.42082 17.7616 2.60898 18.4374 3.0333 18.9798C3.52578 19.6067 4.26738 19.9662 5.06898 19.9662C5.64402 19.9662 6.20994 19.7709 6.66018 19.4171L6.93714 19.2006L6.88962 28.2669H6.70674C5.89938 28.2669 5.24274 28.9235 5.24274 29.7299V31.5155C5.24274 32.3229 5.89938 32.9795 6.70674 32.9795H19.2727V37.0763C19.2727 37.5275 19.6384 37.8937 20.0901 37.8937H28.8621V44.0977C28.8621 44.5489 29.2283 44.9152 29.6786 44.9152H35.1122C35.5639 44.9152 35.9296 44.5494 35.9296 44.0977V37.8933H44.6997C45.1509 37.8933 45.5171 37.527 45.5171 37.0758V25.3825C45.5176 24.9313 45.1514 24.5656 44.7002 24.5656ZM25.1661 8.41646V6.31214H28.4061V11.0713L27.8627 10.6269L25.1661 8.41646ZM5.65218 18.1297C5.44098 18.2958 5.21874 18.3304 5.06946 18.3304C4.7733 18.3304 4.4997 18.1989 4.31922 17.9694C4.16466 17.7712 4.09602 17.5235 4.12626 17.2701C4.15698 17.0166 4.28274 16.792 4.48002 16.6369L17.8043 6.18878C17.8994 6.11294 18.0083 6.05822 18.1283 6.02462C18.2215 5.9987 18.3107 5.95646 18.389 5.89934C18.5503 5.78222 18.7509 5.71886 18.9525 5.71886C19.1061 5.71886 19.3346 5.75534 19.5482 5.93198L26.9056 11.9555L28.7056 13.4305C28.7109 13.4353 28.7171 13.4397 28.7224 13.444L32.6464 16.6557C33.0511 16.9878 33.1101 17.5878 32.777 17.9934C32.5979 18.2133 32.3291 18.3395 32.0407 18.3395C31.8875 18.3395 31.6576 18.303 31.4431 18.1264L19.3355 8.21006C19.1853 8.0867 19.0019 8.02478 18.8181 8.02478C18.64 8.02478 18.4619 8.08286 18.3136 8.19902L7.26018 16.8702L5.65218 18.1297ZM8.58018 17.9128L18.8066 9.89054L28.7023 17.9953L28.6667 24.5656H23.4799V20.9805C23.4799 20.1121 22.7738 19.4056 21.905 19.4056H15.3559C14.4875 19.4056 13.7819 20.1126 13.7819 20.9805V28.2664H8.5269L8.58018 17.9128ZM20.0901 24.5656C19.6384 24.5656 19.2727 24.9313 19.2727 25.3825V28.2664H15.4168V21.0405H21.845V24.5656H20.0901ZM6.8781 31.3441V29.9013H14.5984H19.2722V31.3441H6.8781ZM34.2943 43.2798H30.4965V37.8933H34.2943V43.2798ZM43.8823 36.2584H35.1122H29.6786H20.908V32.1616V29.0833V26.2005H22.6624H43.8823V36.2584Z" fill="#B07E50"></path><path d="M26.2877 30.6819C26.0348 30.5197 25.6503 30.3689 25.1362 30.2278C24.7426 30.1145 24.5045 30.0281 24.4239 29.9686C24.3101 29.8769 24.2535 29.7771 24.2535 29.6686C24.2535 29.5285 24.3169 29.4104 24.4445 29.3163C24.5713 29.2217 24.7268 29.1747 24.9102 29.1747C25.0191 29.1747 25.1722 29.2016 25.3719 29.2558L25.6076 29.3365C25.802 29.4013 25.9445 29.4339 26.0372 29.4339C26.1994 29.4339 26.3358 29.3734 26.4462 29.2515C26.558 29.1301 26.6127 28.9856 26.6127 28.8181C26.6127 28.5694 26.4605 28.363 26.1548 28.1979C25.85 28.0333 25.4698 27.9512 25.0162 27.9512C24.3946 27.9512 23.882 28.124 23.4759 28.4701C23.0703 28.8157 22.8687 29.2563 22.8687 29.791C22.8687 30.3209 23.0679 30.715 23.4682 30.9742C23.6737 31.1096 24.0524 31.2555 24.6025 31.4125C24.9586 31.5209 25.1972 31.602 25.3162 31.6553C25.4353 31.7096 25.5159 31.7744 25.5586 31.8492C25.6018 31.9256 25.6244 32.0149 25.6244 32.1171C25.6244 32.3009 25.5481 32.4493 25.3964 32.563C25.2457 32.6763 25.0585 32.7329 24.8377 32.7329C24.6164 32.7329 24.3318 32.6715 23.9866 32.5467C23.7001 32.444 23.509 32.3926 23.4116 32.3926C23.2493 32.3926 23.1145 32.4521 23.006 32.5707C22.8985 32.6897 22.8438 32.8385 22.8438 33.0166V33.0574C22.8438 33.3219 23.0271 33.5408 23.3953 33.7136C23.7625 33.8864 24.2214 33.9733 24.7729 33.9733C25.4478 33.9733 25.9897 33.7933 26.3977 33.4337C26.8057 33.0742 27.0092 32.6081 27.0092 32.0355C27.0087 31.4254 26.7687 30.9737 26.2877 30.6819Z" fill="#B07E50"></path><path d="M28.0156 33.3332C28.0156 33.5113 28.078 33.6634 28.2014 33.7873C28.3262 33.9111 28.4793 33.974 28.6641 33.974C28.9939 33.974 29.2041 33.8228 29.2963 33.5194L29.5151 32.7822H31.7601L31.9953 33.5194C32.098 33.8166 32.2977 33.9654 32.5948 33.9654C32.7729 33.9654 32.9246 33.9111 33.0489 33.8031C33.179 33.6793 33.2428 33.5468 33.2428 33.4062C33.2428 33.2655 33.2212 33.1359 33.1785 33.0169L31.5887 28.6969C31.4107 28.2102 31.0953 27.9668 30.6412 27.9668C30.1819 27.9668 29.8631 28.2097 29.6836 28.6969L28.0708 33.0087C28.0339 33.1062 28.0156 33.2146 28.0156 33.3332ZM30.6422 29.329L31.3631 31.6071L29.8876 31.5985L30.6422 29.329Z" fill="#B07E50"></path><path d="M35.0237 33.8834H37.1477C37.2336 33.8834 37.3119 33.8671 37.3829 33.8344C37.4525 33.8023 37.5144 33.7591 37.5696 33.7048C37.6877 33.5863 37.7477 33.4452 37.7477 33.2829C37.7477 33.1965 37.7319 33.1183 37.6983 33.0482C37.6661 32.9781 37.6229 32.9162 37.5691 32.862C37.4443 32.7482 37.3008 32.692 37.1391 32.692H35.6803V28.6312C35.6803 28.4527 35.6127 28.2986 35.4778 28.1695C35.3424 28.0394 35.1879 27.9746 35.016 27.9746C34.837 27.9746 34.6839 28.0394 34.5538 28.1695C34.4237 28.2986 34.3594 28.4527 34.3594 28.6312V33.1941C34.3594 33.3784 34.4251 33.5388 34.5581 33.6765C34.6901 33.8148 34.8456 33.8834 35.0237 33.8834Z" fill="#B07E50"></path><path d="M39.7276 33.884H41.868C42.0403 33.884 42.1852 33.8279 42.3014 33.7141C42.4171 33.6003 42.4752 33.4631 42.4752 33.3003C42.4752 33.2144 42.4588 33.1362 42.4262 33.0651C42.3945 32.9955 42.3513 32.9331 42.2961 32.8789C42.1728 32.7603 42.0288 32.7008 41.867 32.7008H40.3752V31.5416H41.6803C41.8598 31.5416 42.0067 31.4831 42.1224 31.3669C42.2385 31.2507 42.2961 31.1115 42.2961 30.9493C42.2961 30.7928 42.2376 30.6546 42.118 30.536C41.999 30.417 41.8531 30.3575 41.6803 30.3575H40.368V29.2391H41.8267C41.9832 29.2391 42.1214 29.1795 42.2395 29.06C42.3532 28.9299 42.4099 28.7874 42.4099 28.6309C42.4099 28.4691 42.3532 28.3295 42.2395 28.2133C42.1257 28.0967 41.9884 28.0391 41.8267 28.0391H39.7195C39.5352 28.0391 39.3782 28.1067 39.2491 28.2411C39.12 28.3765 39.0547 28.533 39.0547 28.7111V33.2178C39.0547 33.4074 39.1204 33.5658 39.2491 33.692C39.3787 33.8207 39.539 33.884 39.7276 33.884Z" fill="#B07E50"></path></svg>