<svg xmlns="http://www.w3.org/2000/svg" width="60" height="60" viewBox="0 0 60 60" fill="none"><path d="M30 3.8125C35.4535 3.8125 40.6838 5.97875 44.54 9.83496C48.3963 13.6912 50.5625 18.9215 50.5625 24.375C50.5625 31.4854 47.3706 39.0145 41.3281 46.1982L40.7344 46.8926C39.0214 48.8591 37.1865 50.7161 35.2412 52.4531L35.1191 52.5625H46.875C47.3557 52.5625 47.8163 52.7538 48.1562 53.0938C48.4962 53.4337 48.6875 53.8943 48.6875 54.375C48.6875 54.8557 48.4962 55.3163 48.1562 55.6562C47.8163 55.9962 47.3557 56.1875 46.875 56.1875H13.125C12.6443 56.1875 12.1837 55.9962 11.8438 55.6562C11.5038 55.3163 11.3125 54.8557 11.3125 54.375C11.3125 53.8943 11.5038 53.4337 11.8438 53.0938C12.1837 52.7538 12.6443 52.5625 13.125 52.5625H24.8809L24.7588 52.4531C22.8135 50.7161 20.9786 48.8591 19.2656 46.8926C12.8293 39.501 9.4375 31.7149 9.4375 24.375C9.4375 18.9215 11.6037 13.6912 15.46 9.83496C19.3162 5.97874 24.5465 3.8125 30 3.8125ZM30 7.4375C25.5079 7.4375 21.1998 9.22204 18.0234 12.3984C14.847 15.5748 13.0625 19.8829 13.0625 24.375C13.0625 31.1014 16.3223 37.2674 20.0605 42.1289C23.7991 46.9907 28.0216 50.5549 29.9609 52.0801L30 52.1104L30.0391 52.0801C31.9784 50.5549 36.2009 46.9907 39.9395 42.1289C43.6777 37.2674 46.9375 31.1014 46.9375 24.375C46.9375 19.8829 45.153 15.5748 41.9766 12.3984C38.8002 9.22204 34.4921 7.4375 30 7.4375ZM28.1836 15.2412C29.9899 14.882 31.862 15.0668 33.5635 15.7715C35.2651 16.4763 36.7199 17.6697 37.7432 19.2012C38.7664 20.7326 39.3125 22.5332 39.3125 24.375C39.3125 26.8448 38.3314 29.2135 36.585 30.96C34.8385 32.7064 32.4698 33.6875 30 33.6875C28.1582 33.6875 26.3576 33.1414 24.8262 32.1182C23.2947 31.0949 22.1013 29.6401 21.3965 27.9385C20.6918 26.237 20.507 24.3649 20.8662 22.5586C21.2255 20.7521 22.1127 19.0924 23.415 17.79C24.7174 16.4877 26.3771 15.6005 28.1836 15.2412ZM31.1094 18.7969C30.0062 18.5775 28.8624 18.6897 27.8232 19.1201C26.7842 19.5505 25.8964 20.2798 25.2715 21.2148C24.6465 22.1501 24.3125 23.2501 24.3125 24.375C24.3125 25.8834 24.9119 27.3299 25.9785 28.3965C27.0451 29.4631 28.4916 30.0625 30 30.0625C31.1249 30.0625 32.2249 29.7285 33.1602 29.1035C34.0952 28.4786 34.8245 27.5908 35.2549 26.5518C35.6853 25.5126 35.7975 24.3688 35.5781 23.2656C35.3587 22.1624 34.8169 21.1489 34.0215 20.3535C33.2261 19.5581 32.2126 19.0163 31.1094 18.7969Z" fill="#103C3B" stroke="#103C3B" stroke-width="0.125"></path></svg>