<svg xmlns="http://www.w3.org/2000/svg" width="60" height="60" viewBox="0 0 60 60" fill="none"><path d="M33.3047 5.88867C30.0192 5.23514 26.6134 5.57063 23.5186 6.85254C20.4236 8.1345 17.7781 10.3055 15.917 13.0908C14.056 15.8761 13.0625 19.1511 13.0625 22.501C13.0676 26.9914 14.8541 31.2965 18.0293 34.4717C21.1053 37.5475 25.2412 39.3202 29.5791 39.4326L30 39.4385C33.3499 39.4385 36.6248 38.4451 39.4102 36.584C42.1955 34.7229 44.3665 32.0773 45.6484 28.9824C46.9304 25.8875 47.2658 22.4818 46.6123 19.1963C45.9588 15.9107 44.3453 12.8922 41.9766 10.5234C39.6079 8.15492 36.59 6.54223 33.3047 5.88867ZM25.001 10.4326C27.3878 9.44395 30.015 9.18543 32.5488 9.68945C35.0824 10.1935 37.4097 11.4371 39.2363 13.2637C41.0632 15.0905 42.3075 17.4183 42.8115 19.9521C43.3155 22.4859 43.0569 25.1122 42.0684 27.499C41.0797 29.8859 39.405 31.926 37.2568 33.3613C35.1087 34.7966 32.5835 35.5635 30 35.5635C26.5369 35.5598 23.2164 34.1821 20.7676 31.7334C18.3188 29.2846 16.9413 25.9641 16.9375 22.501C16.9375 19.9175 17.7033 17.3913 19.1387 15.2432C20.5739 13.0952 22.6143 11.4213 25.001 10.4326ZM16.9375 38.3691L16.915 38.3496C14.242 36.1445 12.1689 33.2996 10.8896 30.0791C9.6105 26.8588 9.1664 23.3669 9.59766 19.9287C10.029 16.4906 11.3215 13.2167 13.3564 10.4121C15.3915 7.60744 18.1025 5.36238 21.2373 3.88574C24.3721 2.4091 27.8297 1.74876 31.2881 1.96582C34.7465 2.1829 38.0939 3.27091 41.0195 5.12793C43.9451 6.985 46.3541 9.55167 48.0225 12.5889C49.6907 15.626 50.5646 19.0358 50.5625 22.501C50.5631 25.5308 49.8933 28.5235 48.6006 31.2637C47.3078 34.0039 45.4237 36.4234 43.085 38.3496L43.0625 38.3691V56.251C43.0624 56.7315 42.8711 57.1924 42.5312 57.5322C42.1914 57.872 41.7306 58.0635 41.25 58.0635H41.249C40.9693 58.0664 40.6918 58.0045 40.4395 57.8838L30.0283 52.6787L30 52.665L29.9717 52.6787L19.5615 57.873C19.2852 58.0113 18.9776 58.0763 18.6689 58.0625C18.3602 58.0486 18.0597 57.9564 17.7969 57.7939C17.534 57.6314 17.3174 57.4038 17.167 57.1338C17.0167 56.8639 16.9373 56.56 16.9375 56.251V38.3691Z" fill="#103C3B" stroke="#103C3B" stroke-width="0.125"></path></svg>