<svg xmlns="http://www.w3.org/2000/svg" width="60" height="60" viewBox="0 0 60 60" fill="none"><path d="M18.9736 5.71484C19.7631 5.61853 20.5628 5.77954 21.2529 6.1748C21.857 6.52079 22.3493 7.02983 22.6748 7.64062L22.8037 7.90918L27.748 18.9463V18.9756L27.7539 18.9873C27.9961 19.5461 28.096 20.1568 28.0449 20.7637C27.9938 21.3703 27.7929 21.9546 27.4609 22.4648C27.4205 22.5255 27.3779 22.5823 27.332 22.6396L22.4521 28.4238L22.4258 28.4551L22.4443 28.4922C24.206 32.0718 27.9471 35.7797 31.5732 37.5459L31.6104 37.5645L31.6416 37.5381L37.3447 32.6836L37.3457 32.6846C37.3998 32.6391 37.4567 32.5966 37.5156 32.5576V32.5566C38.0256 32.2165 38.6132 32.0095 39.2236 31.9531C39.8337 31.8969 40.4484 31.9926 41.0117 32.2334L41.041 32.248H41.042L52.083 37.1953L52.084 37.1963C52.8151 37.5115 53.4246 38.0548 53.8213 38.7451C54.2179 39.4353 54.3808 40.2352 54.2852 41.0254C53.8692 44.1861 52.3166 47.0876 49.918 49.1875C47.5193 51.2875 44.438 52.4432 41.25 52.4375C22.6753 52.4375 7.56276 37.3246 7.5625 18.75V18.749C7.55688 15.5611 8.71166 12.4797 10.8115 10.0811C12.7803 7.83223 15.4538 6.32761 18.3848 5.80566L18.9736 5.71484ZM19.4453 9.31934C17.1574 9.61778 15.0561 10.7407 13.5361 12.4766C12.0163 14.2124 11.1813 16.4429 11.1875 18.75C11.1963 26.7201 14.3663 34.3613 20.002 39.9971C25.6379 45.633 33.2796 48.8038 41.25 48.8125C43.5558 48.8204 45.7856 47.9874 47.5225 46.4707C49.2447 44.9667 50.3639 42.8916 50.6777 40.6279H50.6875V40.5625L50.625 40.5576C50.625 40.5121 50.625 40.5043 50.625 40.5029H50.6143L39.6094 35.5742L39.5732 35.5586L39.543 35.584L33.8359 40.4375C33.7823 40.4829 33.7262 40.5252 33.668 40.5645C33.1375 40.9183 32.5246 41.1287 31.8887 41.1748C31.2525 41.2208 30.6151 41.101 30.0391 40.8271C25.6618 38.7121 21.296 34.38 19.1787 30.0498C18.9022 29.4779 18.778 28.8439 18.8184 28.21C18.8588 27.5762 19.0625 26.9637 19.4092 26.4316L19.4102 26.4307C19.4482 26.3699 19.4911 26.3119 19.5381 26.2578V26.2568L24.4229 20.4658L24.4482 20.4355L24.4316 20.3994L19.5156 9.39648C19.5156 9.39355 19.5153 9.39062 19.5156 9.3877L19.5234 9.30957L19.4453 9.31934ZM35.3887 15.0771C35.6244 15.046 35.864 15.0617 36.0938 15.123C40.5627 16.3172 43.6817 19.4364 44.876 23.9053C44.9376 24.1352 44.9539 24.3753 44.9229 24.6113C44.8918 24.8473 44.8143 25.0751 44.6953 25.2812C44.5762 25.4874 44.4175 25.6686 44.2285 25.8135C44.0869 25.9221 43.9301 26.0087 43.7637 26.0713L43.5938 26.126C43.4407 26.1661 43.2832 26.1871 43.125 26.1875L42.9756 26.1807C42.6295 26.152 42.2975 26.0244 42.0205 25.8115C41.7039 25.5682 41.4769 25.2267 41.374 24.8408C40.5057 21.5873 38.4118 19.4942 35.1582 18.626C34.9283 18.5645 34.7124 18.4582 34.5234 18.3135C34.3346 18.1687 34.1758 17.9882 34.0566 17.7822C33.9375 17.5762 33.8603 17.3483 33.8291 17.1123C33.7979 16.8764 33.8136 16.6362 33.875 16.4062C33.9364 16.1765 34.0429 15.9613 34.1875 15.7725C34.3323 15.5835 34.5127 15.4248 34.7188 15.3057C34.9248 15.1865 35.1527 15.1084 35.3887 15.0771ZM37.2627 7.57715C37.4987 7.54608 37.7388 7.56144 37.9688 7.62305H37.9697C41.4347 8.52714 44.5958 10.339 47.1279 12.8711C49.5019 15.2451 51.243 18.172 52.1963 21.3838L52.376 22.0303C52.4376 22.2602 52.4539 22.5003 52.4229 22.7363C52.3918 22.9723 52.3143 23.2001 52.1953 23.4062C52.0762 23.6124 51.9175 23.7936 51.7285 23.9385C51.5869 24.0471 51.4301 24.1337 51.2637 24.1963L51.0938 24.251C50.9407 24.2911 50.7832 24.3121 50.625 24.3125L50.4756 24.3057C50.1295 24.277 49.7975 24.1494 49.5205 23.9365C49.2434 23.7235 49.0347 23.4356 48.918 23.1084L48.874 22.9658C48.1315 20.1179 46.6426 17.5196 44.5615 15.4385C42.6103 13.4873 40.2044 12.0564 37.5645 11.2734L37.0332 11.126C36.8031 11.0647 36.5876 10.9582 36.3984 10.8135C36.2093 10.6687 36.05 10.4884 35.9307 10.2822C35.8114 10.0761 35.7344 9.84833 35.7031 9.6123C35.6719 9.37611 35.6874 9.13541 35.749 8.90527C35.8106 8.67537 35.9167 8.45937 36.0615 8.27051C36.2063 8.08184 36.3869 7.92368 36.5928 7.80469C36.7989 7.68567 37.0268 7.60826 37.2627 7.57715Z" fill="#103C3B" stroke="#103C3B" stroke-width="0.125"></path></svg>