<svg xmlns="http://www.w3.org/2000/svg" width="60" height="60" viewBox="0 0 60 60" fill="none"><path d="M16.1117 4.46719H10.4152C9.34531 4.46719 8.47578 5.33906 8.47578 6.41016V12.1066C8.47578 13.1766 9.34649 14.0461 10.4152 14.0461H16.1117C17.1816 14.0461 18.0512 13.1754 18.0512 12.1066V6.41016C18.0523 5.33906 17.1816 4.46719 16.1117 4.46719ZM16.1785 12.1078C16.1785 12.1418 16.1457 12.1746 16.1117 12.1746H10.4152C10.3813 12.1746 10.3484 12.1418 10.3484 12.1078V6.41016C10.3484 6.37617 10.3824 6.34102 10.4152 6.34102H16.1117C16.1445 6.34102 16.1785 6.37617 16.1785 6.41016V12.1078ZM16.1117 16.6453H10.4152C9.34531 16.6453 8.47578 17.516 8.47578 18.5848V24.2813C8.47578 25.3523 9.34649 26.2242 10.4152 26.2242H16.1117C17.1816 26.2242 18.0512 25.3523 18.0512 24.2813V18.5848C18.0523 17.5148 17.1816 16.6453 16.1117 16.6453ZM16.1785 24.2824C16.1785 24.3188 16.1469 24.3516 16.1117 24.3516H10.4152C10.3801 24.3516 10.3484 24.3188 10.3484 24.2824V18.5848C10.3484 18.5508 10.3813 18.518 10.4152 18.518H16.1117C16.1457 18.518 16.1785 18.5508 16.1785 18.5848V24.2824ZM16.1117 28.8199H10.4152C9.34531 28.8199 8.47578 29.6918 8.47578 30.7629V36.4594C8.47578 37.5293 9.34649 38.3988 10.4152 38.3988H16.1117C17.1816 38.3988 18.0512 37.5281 18.0512 36.4594V30.7629C18.0523 29.6918 17.1816 28.8199 16.1117 28.8199ZM16.1785 36.4594C16.1785 36.4934 16.1457 36.5262 16.1117 36.5262H10.4152C10.3813 36.5262 10.3484 36.4934 10.3484 36.4594V30.7629C10.3484 30.7266 10.3801 30.6938 10.4152 30.6938H16.1117C16.1469 30.6938 16.1785 30.7266 16.1785 30.7629V36.4594ZM16.1117 40.9969H10.4152C9.34531 40.9969 8.47578 41.8676 8.47578 42.9363V48.6328C8.47578 49.7039 9.34649 50.5758 10.4152 50.5758H16.1117C17.1816 50.5758 18.0512 49.7039 18.0512 48.6328V42.9363C18.0523 41.8676 17.1816 40.9969 16.1117 40.9969ZM16.1785 48.634C16.1785 48.6691 16.1457 48.7031 16.1117 48.7031H10.4152C10.3824 48.7031 10.3484 48.668 10.3484 48.634V42.9375C10.3484 42.9035 10.3813 42.8707 10.4152 42.8707H16.1117C16.1457 42.8707 16.1785 42.9035 16.1785 42.9375V48.634ZM21.9582 6.46406C21.9582 5.94609 22.3777 5.52773 22.8945 5.52773H39.8492C40.3672 5.52773 40.7855 5.94727 40.7855 6.46406C40.7855 6.98086 40.366 7.40039 39.8492 7.40039H22.8957C22.3777 7.40039 21.9582 6.98086 21.9582 6.46406ZM21.9582 12.0504C21.9582 11.5324 22.3777 11.1141 22.8945 11.1141H39.8492C40.3672 11.1141 40.7855 11.5336 40.7855 12.0504C40.7855 12.5672 40.366 12.9867 39.8492 12.9867H22.8957C22.3777 12.9879 21.9582 12.5684 21.9582 12.0504ZM21.9582 18.641C21.9582 18.123 22.3777 17.7047 22.8945 17.7047H39.8492C40.3672 17.7047 40.7855 18.1242 40.7855 18.641C40.7855 19.1578 40.366 19.5773 39.8492 19.5773H22.8957C22.3777 19.5785 21.9582 19.159 21.9582 18.641ZM21.9582 24.2285C21.9582 23.7105 22.3777 23.2922 22.8945 23.2922H39.8492C40.3672 23.2922 40.7855 23.7117 40.7855 24.2285C40.7855 24.7453 40.366 25.1648 39.8492 25.1648H22.8957C22.3777 25.166 21.9582 24.7465 21.9582 24.2285ZM46.5664 37.3031V4.17188C46.5664 1.87148 44.6949 0 42.3945 0H8.17578C5.87539 0 4.00391 1.87148 4.00391 4.17188V50.8734C4.00391 53.1738 5.87539 55.0453 8.17578 55.0453H35.15C37.2148 58.0348 40.6648 59.9988 44.5637 59.9988C50.8684 59.9988 55.9977 54.8684 55.9977 48.5613C55.9977 42.9398 51.9195 38.2535 46.5664 37.3031ZM8.17578 53.1715C6.90781 53.1715 5.87656 52.1402 5.87656 50.8723V4.17188C5.87656 2.90391 6.90781 1.87266 8.17578 1.87266H42.3945C43.6625 1.87266 44.6938 2.90391 44.6938 4.17188V37.1297C44.6504 37.1297 44.607 37.1285 44.5637 37.1285C38.259 37.1285 33.1297 42.2578 33.1297 48.5625C33.1297 50.202 33.4766 51.7617 34.1012 53.1727H8.17578V53.1715ZM44.5637 58.125C39.2926 58.125 35.0035 53.8348 35.0035 48.5613C35.0035 43.2902 39.2926 39.0012 44.5637 39.0012C49.8348 39.0012 54.1238 43.2902 54.1238 48.5613C54.1238 53.8348 49.8348 58.125 44.5637 58.125ZM21.9582 30.8156C21.9582 30.2977 22.3777 29.8793 22.8945 29.8793H39.8492C40.3672 29.8793 40.7855 30.2988 40.7855 30.8156C40.7855 31.3324 40.366 31.752 39.8492 31.752H22.8957C22.3777 31.7531 21.9582 31.3336 21.9582 30.8156ZM21.9582 36.4031C21.9582 35.8852 22.3777 35.4668 22.8945 35.4668H36.3781C36.8961 35.4668 37.3145 35.8863 37.3145 36.4031C37.3145 36.9199 36.8949 37.3395 36.3781 37.3395H22.8957C22.3777 37.3406 21.9582 36.9211 21.9582 36.4031ZM31.9402 42.9938C31.9402 43.5117 31.5207 43.9301 31.0039 43.9301H22.8957C22.3777 43.9301 21.9594 43.5106 21.9594 42.9938C21.9594 42.477 22.3789 42.0574 22.8957 42.0574H31.0039C31.5219 42.0574 31.9402 42.477 31.9402 42.9938ZM30.8445 48.5813C30.8445 49.0992 30.425 49.5176 29.9082 49.5176H22.8957C22.3777 49.5176 21.9594 49.098 21.9594 48.5813C21.9594 48.0645 22.3789 47.6449 22.8957 47.6449H29.9082C30.425 47.6449 30.8445 48.0645 30.8445 48.5813ZM50.8895 44.707C51.065 44.8826 51.1637 45.1208 51.1637 45.3691C51.1637 45.6175 51.065 45.8556 50.8895 46.0312L44.5016 52.4191C44.3188 52.602 44.0785 52.6934 43.8395 52.6934C43.6004 52.6934 43.3602 52.602 43.1773 52.4191L38.2379 47.4797C38.0661 47.3033 37.9707 47.0664 37.9723 46.8201C37.9739 46.5739 38.0725 46.3382 38.2466 46.1641C38.4207 45.99 38.6563 45.8915 38.9026 45.8899C39.1488 45.8883 39.3857 45.9837 39.5621 46.1555L43.8395 50.4328L49.5652 44.707C49.7409 44.5315 49.979 44.4328 50.2273 44.4328C50.4757 44.4328 50.7138 44.5315 50.8895 44.707Z" fill="#103C3B"></path></svg>